<?xml version="1.0" encoding="utf-8"?>
<!-- Generator: Adobe Illustrator 24.0.2, SVG Export Plug-In . SVG Version: 6.00 Build 0)  -->
<svg version="1.1" id="Layer_1" xmlns="http://www.w3.org/2000/svg" xmlns:xlink="http://www.w3.org/1999/xlink" x="0px" y="0px"
	 viewBox="0 0 228.7 124.8" style="enable-background:new 0 0 228.7 124.8;" xml:space="preserve">
<style type="text/css">
	.st0{fill-rule:evenodd;clip-rule:evenodd;fill:#95A6B0;}
	.st1{fill-rule:evenodd;clip-rule:evenodd;fill:#FFFFFF;}
	.st2{fill-rule:evenodd;clip-rule:evenodd;fill:#94C120;}
	.st3{fill-rule:evenodd;clip-rule:evenodd;fill:#717E85;}
	.st4{fill-rule:evenodd;clip-rule:evenodd;fill:url(#SVGID_1_);}
	.st5{fill-rule:evenodd;clip-rule:evenodd;fill:url(#SVGID_2_);}
	.st6{fill-rule:evenodd;clip-rule:evenodd;}
	.st7{fill-rule:evenodd;clip-rule:evenodd;fill:#A30E06;}
	.st8{fill-rule:evenodd;clip-rule:evenodd;fill:#E3000F;}
</style>
<path class="st0" d="M15.7,60.4l-0.2-0.1c-2.9-1.4-5.5-3.3-7.4-5.8c-1.9-2.6-2.9-5.6-2.9-8.8c0-4.5,1.9-8.6,5.5-11.4
	c3.5-2.7,7.9-3.8,12.3-3.8h17.2v3.1c3.3-2.5,7.4-3.7,11.7-3.7c4.1,0,7.8,1,11.1,3.2v-2.7h18.7v21.7l0.1,0.1
	c1.1-12.6,11.9-22.4,25.1-22.4c6,0,11.7,2,16.2,5.7c0.3-0.5,0.6-0.9,0.9-1.4c2-2.7,5.1-4.1,8.5-4.1c2.5,0,4.9,0.8,6.8,2.4
	c1.3,1.1,2.4,2.4,3.2,3.9v-5.9h18.5v2.8c3.2-2.3,7.1-3.3,11.2-3.3c5.5,0,10.4,1.9,14.1,5.9l0.1,0.1c1.8,1.9,3.1,4.2,3.9,6.6
	c0.9,2.5,1.2,5.1,1.2,7.7v5.3l10.4-2.6c6.4-1.6,13,2.2,14.7,8.4l7.2,27c1.6,6.2-2.3,12.7-8.6,14.3L142,121c-6.4,1.6-13-2.2-14.7-8.4
	l-5.2-19.5h0L119,80.9c-33,0-75.2,0-113.9,0v-3.6c0-2.6,0-5.2,0-7.8c0-2.6,0-5.2,0-7.8v-1.3h1.4C9.6,60.4,12.7,60.4,15.7,60.4z"/>
<path class="st1" d="M6.5,77.3c0-2.6,0-5.2,0-7.8c0-2.6,0-5.2,0-7.8c5,0,9.9,0,14.9,0l-5.2-2.6c-2.7-1.3-5.1-3-6.9-5.4
	c-1.8-2.4-2.7-5.1-2.7-8c0-4.1,1.7-7.8,5-10.4c3.3-2.6,7.3-3.5,11.5-3.5H39v4.8c3.4-3.7,8-5.4,13.1-5.4c4.8,0,9.1,1.5,12.4,4.7v-4.2
	h16v21.1l2.7,1.8c0-0.1,0-0.3,0-0.4c0-12.8,10.7-23.2,23.8-23.2c6.5,0,12.4,2.5,16.7,6.7c0.3-1,0.8-2,1.5-2.8
	c1.8-2.3,4.4-3.5,7.4-3.5c2.2,0,4.2,0.7,5.9,2.1c1.5,1.2,2.5,2.7,3.4,4.3l0,0.1l2,4.1V31.8h15.8v4.3c3.4-3.3,7.7-4.9,12.6-4.9
	c5.1,0,9.7,1.7,13.1,5.4l0,0.1c1.6,1.8,2.9,3.9,3.6,6.1c0.8,2.3,1.1,4.8,1.1,7.3v7.1l12.1-3c5.7-1.4,11.5,1.9,13,7.5l7.2,27
	c1.5,5.5-2,11.2-7.7,12.7l-73.2,18.4c-5.7,1.4-11.5-1.9-13-7.5l-4.4-16.5l-4.2-16.2H6.5V77.3z"/>
<path class="st2" d="M45.6,62.7c5.3,2.1,9.8,5.6,13,10v0.1h0.1h2.5h4.4V50.1c0-2-0.2-4-0.9-5.9c-0.6-1.7-1.5-3.3-2.7-4.6
	c-2.6-2.8-6-4-9.8-4c-3.8,0-7.2,1.2-9.8,4c-2.7,2.9-3.6,6.6-3.6,10.5v22.7h6.9V62.7L45.6,62.7z M58.6,63c-3.7-3.2-8.1-5.7-13-7.2
	v-5.6c0-2.1,0.3-4.5,1.7-6.2c1.2-1.5,2.9-2,4.7-2c1.9,0,3.6,0.5,4.8,2c1.4,1.7,1.7,4.1,1.7,6.2V63z"/>
<path class="st2" d="M165.9,62.7c5.3,2.1,9.8,5.6,13,10v0.1h0.1h2.5h4.4V50.1c0-2-0.2-4-0.9-5.9c-0.6-1.7-1.5-3.3-2.7-4.6
	c-2.6-2.8-6-4-9.8-4c-3.8,0-7.2,1.2-9.8,4c-2.7,2.9-3.6,6.6-3.6,10.5v22.7h6.9V62.7L165.9,62.7z M178.9,63c-3.7-3.2-8.1-5.7-13-7.2
	v-5.6c0-2.1,0.3-4.5,1.7-6.2c1.2-1.5,2.9-2,4.7-2c1.9,0,3.6,0.5,4.8,2c1.4,1.7,1.7,4.1,1.7,6.2V63z"/>
<path class="st2" d="M148.5,61.4V36.2h6.7v31c0,1.5-0.3,3.1-1.2,4.3c-0.9,1.2-2.1,1.8-3.6,1.8c-1.2,0-2.3-0.4-3.2-1.1
	c-1-0.8-1.7-1.9-2.2-3l-10.7-21.7v25.2h-6.7V42c0-1.5,0.3-3.1,1.2-4.4c0.9-1.2,2.2-1.8,3.7-1.8c1.1,0,2.2,0.4,3,1.1
	c1,0.8,1.7,1.9,2.3,3L148.5,61.4z"/>
<path class="st2" d="M14.5,38.7c2.4-1.9,5.6-2.5,8.6-2.5h11.3v6.7H21.5c-0.9,0-1.8,0.2-2.5,0.8c-0.6,0.5-0.8,1.1-0.8,1.8
	c0,0.7,0.2,1.3,0.7,1.8c0.9,1,3.6,2.3,4.7,2.9l5.2,2.6c2,1,4,2.3,5.4,4.2c1.3,1.7,1.8,3.6,1.8,5.7c0,3-1,5.7-3.5,7.6
	c-2.6,2.1-6,2.7-9.3,2.7H11v-6.7h13.2c1.2,0,2.7-0.2,3.7-0.9c0.8-0.6,1-1.4,1-2.4c0-0.8-0.3-1.5-0.8-2.2c-0.9-1-2.8-2-4-2.6l-5.9-3
	c-2-1-3.9-2.3-5.3-4c-1.2-1.6-1.8-3.5-1.8-5.5C11.2,42.9,12.2,40.5,14.5,38.7z"/>
<path class="st0" d="M130.3,76.9l73.2-18.4c3.3-0.8,6.6,1.1,7.5,4.3l7.2,27c0.8,3.2-1.1,6.5-4.4,7.3l-73.2,18.4
	c-3.3,0.8-6.6-1.1-7.5-4.3l-7.2-27C125.1,81,127.1,77.7,130.3,76.9z"/>
<path class="st3" d="M144.6,83.4c-0.5,0.2-0.9,0.3-1.2,0.6c-0.3,0.2-0.5,0.5-0.6,0.8c-0.2,0.3-0.3,0.6-0.4,1c-0.1,0.3-0.2,0.7-0.4,1
	c-0.2,0.3-0.4,0.7-0.7,1c-0.3,0.3-0.7,0.6-1.3,0.9c-0.5,0.2-1,0.5-1.6,0.7c-0.6,0.2-1.2,0.4-1.8,0.6c-0.6,0.2-1.2,0.3-1.7,0.4
	c-0.5,0.1-0.9,0.2-1.3,0.3c-0.1,0.2-0.2,0.4-0.3,0.6c-0.1,0.2-0.1,0.4-0.1,0.6c0,0.3,0.1,0.7,0.3,1c0.2,0.4,0.3,0.7,0.5,1
	c0.2,0.3,0.4,0.6,0.6,0.8c0.3,0,0.5-0.1,0.7-0.1c0.2-0.1,0.3-0.1,0.5-0.2c0.2-0.1,0.3-0.2,0.6-0.3c0.2-0.1,0.5-0.2,0.9-0.3l2.6-0.7
	c-0.3,0.9-0.5,1.7-0.8,2.6c-0.3,0.9-0.5,1.8-0.7,2.6c-0.2,0.9-0.4,1.7-0.6,2.4c-0.2,0.7-0.3,1.3-0.4,1.8c-0.1,0.5-0.1,0.8-0.1,1
	c0,0.1,0.1,0.2,0.1,0.3c0.1,0.1,0.1,0.2,0.2,0.3c0.1,0.4,0.2,0.8,0.2,1.2c0.1,0.4,0.2,0.7,0.3,0.9c0.1,0.2,0.4,0.4,0.6,0.4l-0.1,0.4
	c0.3,0,0.6-0.1,1-0.1c0.4-0.1,0.8-0.2,1.2-0.3c0.1-0.8,0.3-1.7,0.4-2.6c0.2-0.9,0.4-1.8,0.6-2.8c-0.1,0-0.3,0.1-0.4,0.1
	c-0.1,0.1-0.2,0.2-0.2,0.4l-0.3-0.1c0.1-0.3,0.2-0.6,0.3-1c0.1-0.3,0.2-0.7,0.3-1c0,0.1,0.1,0.2,0.1,0.3c0,0.1,0,0.3,0.1,0.4
	c0,0.1,0.1,0.1,0.2,0.1c0.1,0,0.1-0.1,0.2-0.3c0-0.1,0.1-0.3,0.1-0.5c0-0.2,0.1-0.4,0.1-0.5c0-0.1,0-0.3-0.1-0.4
	c0-0.1-0.1-0.3-0.2-0.5c0-0.2,0.1-0.4,0.1-0.6c0-0.2,0.1-0.4,0.1-0.6c0-0.2,0.1-0.3,0.2-0.3c0.1,0,0.1,0,0.1,0.1c0,0.1,0,0.2,0,0.3
	c0,0.1,0.1,0.2,0.2,0.1c0.1,0,0.2-0.1,0.3-0.3c0.1-0.2,0.2-0.4,0.2-0.6c0.1-0.2,0.1-0.5,0.2-0.7c0.1-0.2,0.1-0.5,0.1-0.7l-0.3-0.1
	c0.1-0.1,0.1-0.2,0.2-0.3c0.1-0.1,0.2-0.3,0.2-0.4c0.1-0.1,0.1-0.3,0.1-0.4c0.2-0.8,0.3-1.3,0.5-1.8c0.2-0.4,0.3-0.7,0.6-1
	c0.2-0.2,0.5-0.4,0.9-0.5c0.1-0.2,0.2-0.3,0.3-0.4c0.1-0.1,0.2-0.2,0.4-0.2l0,0.4l0.5-0.1c0.7-0.5,1.3-0.9,2-1.3
	c0.7-0.3,1.4-0.6,2-0.9c0.7-0.3,1.3-0.5,1.9-0.7c0.6-0.2,1.1-0.4,1.6-0.7c0,0,0-0.1-0.1-0.1c0,0,0-0.1,0-0.1c0-0.1,0-0.1,0-0.2
	c0-0.1,0.1-0.1,0.2-0.1c0,0,0.1,0,0.2,0c0.1,0,0.2,0,0.3,0l0.1,0.2c0.1-0.1,0.2-0.1,0.3-0.2c0.1-0.1,0.2-0.1,0.2-0.2
	c-0.1-0.1-0.2-0.3-0.3-0.5c-0.1-0.2-0.1-0.4-0.1-0.6c0-0.2,0.1-0.5,0.2-0.7c-0.2-0.4-0.4-0.6-0.8-0.8c-0.3-0.2-0.7-0.3-1.1-0.4
	c-0.4-0.1-0.9-0.1-1.4-0.1c-0.5,0.2-1.1,0.5-1.8,0.8c-0.7,0.3-1.4,0.7-2.1,1c-0.7,0.4-1.5,0.7-2.2,1.1L144.6,83.4L144.6,83.4z
	 M143.2,95.8l-0.2,0.7l-0.2-0.2l0.3-0.7L143.2,95.8L143.2,95.8z M170.5,80.7c0,0.1,0,0.2-0.1,0.3c-0.1,0.1-0.2,0.2-0.3,0.3
	c-0.1,0.1-0.3,0.2-0.4,0.4c-0.7,0.5-1.5,1-2.2,1.5c-0.7,0.4-1.5,0.8-2.2,1.2c-0.7,0.4-1.5,0.7-2.2,1.1c-0.7,0.4-1.5,0.7-2.2,1.2
	c-0.2,0.3-0.3,0.7-0.5,1.2c-0.2,0.4-0.4,0.9-0.6,1.5c0.3-0.1,0.7-0.3,1.2-0.6c0.5-0.3,0.9-0.5,1.4-0.8c0.5-0.3,0.9-0.6,1.3-0.8
	c0.4-0.2,0.7-0.4,1-0.5c0.3-0.1,0.6-0.1,0.8-0.1c0.2,0,0.4,0.1,0.6,0.3c0.2,0.2,0.4,0.4,0.7,0.7c0,0.2,0,0.4,0.1,0.5
	c0.1,0.1,0.2,0.2,0.4,0.3L167,89c-0.4,0.2-0.9,0.4-1.5,0.7c-0.6,0.3-1.2,0.6-1.9,0.9c-0.7,0.3-1.3,0.6-2,1c-0.6,0.3-1.2,0.7-1.8,1
	c-0.5,0.3-1,0.6-1.3,0.8c-0.2,0.1-0.3,0.4-0.4,0.7c-0.1,0.3-0.2,0.7-0.3,1.2c-0.1,0.4-0.2,0.9-0.2,1.3c-0.1,0.5-0.1,0.9-0.1,1.2
	c0,0.4,0,0.6,0,0.8c0.4,0.1,0.8,0.2,1.2,0.1c0.4-0.1,0.9-0.2,1.3-0.4c0.4-0.2,0.8-0.4,1.1-0.5l0.2,0.3c0.1,0,0.2-0.1,0.3-0.2
	c0.1-0.1,0.2-0.2,0.1-0.3c0.1,0,0.2-0.1,0.3,0c0.1,0,0.2,0.1,0.3,0.2c0.1,0.1,0.2,0.1,0.3,0.2c0.1,0,0.2,0,0.3,0
	c0.7-0.4,1.4-0.8,2.2-1.3c0.7-0.5,1.5-0.9,2.2-1.3c0.7-0.4,1.3-0.8,1.8-1.2c0,0,0.1-0.1,0.2-0.1c0.1,0,0.1,0,0.1,0
	c0,0,0,0.1-0.1,0.2c-0.1,0.1-0.2,0.2-0.3,0.3c-0.1,0.1-0.2,0.2-0.3,0.3l-2.2,1.5c0.1,0,0.2,0.1,0.4,0.1c0.2,0,0.3,0.1,0.4,0.1
	c0,0,0.1,0,0,0.1c0,0-0.1,0.1-0.1,0.1c-0.5,0.3-1.1,0.7-1.7,1.1c-0.6,0.4-1.2,0.7-1.8,1.1c-0.6,0.4-1.2,0.7-1.9,1
	c0.3,0,0.6,0,0.9-0.1c0.3-0.1,0.7-0.2,1-0.4c0.4-0.3,0.9-0.5,1.4-0.9c0.5-0.3,1-0.7,1.6-1c0.5-0.4,1.1-0.7,1.6-1
	c0,0,0.1-0.1,0.1-0.1c0,0,0.1,0,0.1,0c0,0,0,0.1,0,0.2c-0.1,0.2-0.2,0.4-0.3,0.5c-0.1,0.2-0.3,0.3-0.5,0.5c-0.7,0.5-1.4,1-2.2,1.5
	c-0.8,0.5-1.6,1-2.3,1.4c-0.8,0.4-1.5,0.7-2.2,0.9c-1,0.3-1.9,0.4-2.7,0.4c-0.8,0-1.6-0.2-2.2-0.5c-0.6-0.3-1.1-0.9-1.5-1.6
	c-0.4-0.7-0.6-1.7-0.7-2.9c0-0.6,0-1.3,0.2-2.1c0.2-0.8,0.4-1.6,0.7-2.6c0.3-1,0.7-2,1.1-3.2c0.4-1.2,0.9-2.5,1.4-3.9
	c-0.1-0.4-0.2-0.8-0.2-1.2c0-0.4,0.1-0.9,0.4-1.4c0.3-0.1,0.6-0.2,0.9-0.4c0.3-0.2,0.5-0.5,0.7-0.8c0.2-0.3,0.4-0.6,0.6-0.9
	c0.2-0.3,0.4-0.6,0.6-0.8c0.2-0.2,0.4-0.4,0.7-0.5c0.2,0,0.4-0.1,0.7-0.1c0.3,0,0.6,0,0.9-0.1c0.3,0,0.6,0,0.8,0c0.2,0,0.4,0,0.6,0
	c0.1,0.4,0.1,0.7,0,1.2c-0.1,0.4-0.2,0.9-0.4,1.4c0.1,0,0.3,0,0.6-0.1c0.2,0,0.5-0.1,0.8-0.1c0.3-0.1,0.6-0.1,0.8-0.2
	c0.3-0.1,0.5-0.1,0.7-0.2l0.4,0.5c0.1,0,0.2-0.1,0.3-0.2c0.1-0.1,0.3-0.2,0.5-0.2c0.1,0,0.3-0.1,0.5-0.1c0.2,0,0.4,0,0.6,0
	c0.2,0,0.4,0,0.6,0c0,0,0.1,0,0.1,0c0,0,0,0.1,0,0.1c-0.2,0.3-0.5,0.6-0.7,0.7c-0.2,0.2-0.4,0.3-0.6,0.4c-0.2,0.1-0.3,0.2-0.4,0.2
	c-0.1,0.1-0.2,0.2-0.2,0.2c0,0.1,0,0.2,0,0.4c0.5-0.3,0.9-0.6,1.3-0.9c0.4-0.3,0.9-0.6,1.3-0.9c0,0,0.1-0.1,0.1-0.1
	C170.3,80.7,170.3,80.6,170.5,80.7C170.4,80.6,170.4,80.6,170.5,80.7L170.5,80.7z M167.7,81.4c0-0.1-0.1-0.1-0.2-0.1
	c-0.1,0-0.2,0-0.3,0c-0.1,0-0.2,0.1-0.3,0.1l0.1,0.4L167.7,81.4L167.7,81.4z M157.2,94.6l0,0.4l0,0c0.1-0.2,0.2-0.3,0.3-0.5
	c0.1-0.2,0.2-0.4,0.2-0.5c-0.2,0-0.4,0.1-0.4,0.2C157.2,94.3,157.2,94.5,157.2,94.6L157.2,94.6z M157.1,97.5l-0.3-0.3
	c0,0.3,0,0.6,0,0.8c0,0.2,0.1,0.3,0.2,0.4L157.1,97.5L157.1,97.5z M167,94.4c0-0.1,0-0.1,0-0.1c0,0-0.1,0-0.1,0
	c-0.6,0.4-1.2,0.9-2,1.3c-0.7,0.4-1.4,0.9-2.2,1.3c0.2,0.2,0.4,0.2,0.6,0.1c0.3-0.1,0.6-0.3,0.9-0.5c0.3-0.2,0.6-0.5,0.9-0.9
	c0.2-0.1,0.4-0.1,0.7-0.3c0.2-0.1,0.5-0.3,0.7-0.4C166.8,94.8,166.9,94.6,167,94.4L167,94.4z M160.3,86.8l-0.4,0.2l-0.5,1.1l0.4-0.2
	L160.3,86.8L160.3,86.8z M159.3,88.6c-0.1,0-0.2,0.1-0.3,0.2c-0.1,0.1-0.2,0.3-0.3,0.4c-0.1,0.2-0.1,0.3-0.1,0.4l0.4-0.2L159.3,88.6
	L159.3,88.6z M157.5,95.1l-0.3,0.1l-0.2,1.3l0.3,0.2L157.5,95.1L157.5,95.1z M186.8,76.4c0-0.4,0-0.7-0.1-0.9
	c-0.1-0.3-0.2-0.5-0.4-0.7c-0.2-0.2-0.3-0.4-0.5-0.6c-0.2-0.2-0.3-0.4-0.5-0.7c-0.2,0-0.4-0.1-0.6-0.1c-0.2,0-0.4-0.1-0.6-0.1
	c-0.2,0-0.4,0-0.5,0c-0.2,0.1-0.5,0.3-0.9,0.6c-0.4,0.3-0.9,0.7-1.5,1.2c-0.5,0.5-1.1,1-1.7,1.6c-0.6,0.6-1.1,1.2-1.6,1.8
	c-0.5,0.6-1,1.2-1.3,1.7c-0.4,0.5-0.6,1-0.7,1.4l-0.2,0.1c0,0.1,0.1,0.3,0.1,0.5c0,0.2,0.1,0.3,0.2,0.4l-0.4,0.1
	c-0.1,0-0.2,0.2-0.3,0.4c-0.1,0.2-0.2,0.4-0.3,0.7c-0.1,0.3-0.2,0.5-0.3,0.7c-0.1,0.2-0.2,0.3-0.3,0.4c-0.1,0-0.2,0-0.2,0
	c0,0,0-0.1,0-0.2c0-0.1,0-0.1,0-0.2c0,0-0.1-0.1-0.2,0c-0.1,0-0.3,0.2-0.4,0.5c-0.2,0.3-0.4,0.7-0.6,1.1c-0.2,0.4-0.4,0.9-0.6,1.4
	c-0.2,0.5-0.4,0.9-0.5,1.3c0,0.1,0,0.3,0,0.4c0,0.1,0,0.3,0.1,0.4c0,0.1,0,0.3-0.1,0.4l-0.4-0.1c0,0.2,0,0.5,0,0.7
	c0,0.2,0,0.5-0.1,0.7c-0.1,0.2-0.2,0.4-0.3,0.6l0.1,0.9c0,0.2,0.1,0.4,0.1,0.6c0.1,0.2,0.1,0.4,0.2,0.5c0.1,0.1,0.2,0.3,0.4,0.5
	c0.2,0.2,0.4,0.5,0.7,0.8c0.3,0.3,0.5,0.5,0.7,0.8c0.2,0.2,0.4,0.4,0.6,0.5c0.3-0.1,0.5-0.2,0.7-0.1c0.2,0,0.3,0,0.5,0.1
	c0.1,0.1,0.3,0.1,0.4,0.1c0.2,0,0.3,0,0.5,0c0.1,0,0.2,0,0.3,0c0.1,0.1,0.2,0.1,0.3,0.2c0.1,0.1,0.2,0.1,0.4,0
	c0.3-0.1,0.5-0.2,0.8-0.3c0.3-0.1,0.6-0.3,0.9-0.4c0.3-0.2,0.5-0.3,0.8-0.4c-0.1-0.1-0.1-0.2-0.1-0.4c0.1-0.2,0.2-0.3,0.4-0.4
	c0.4-0.3,0.9-0.6,1.4-0.9c0.5-0.3,1-0.6,1.5-0.9c0.5-0.3,1-0.6,1.4-0.9c0.4-0.3,0.8-0.5,1.1-0.7c0.3-0.2,0.5-0.3,0.5-0.3l-0.3-0.3
	c-0.1-0.1-0.1-0.2-0.1-0.3c0-0.1,0.1-0.2,0.2-0.3c0.1-0.1,0.3-0.1,0.4-0.2l1.7-0.8l-0.4-0.1l-0.8,0.3l-0.5,0
	c-0.6,0.2-1.2,0.5-1.8,0.8c-0.6,0.3-1.3,0.6-1.9,0.9c-0.6,0.3-1.3,0.6-1.8,0.9c-0.2,0.2-0.4,0.4-0.6,0.6c-0.3,0.2-0.5,0.3-0.8,0.4
	c-0.3,0.1-0.5,0.1-0.8,0c0.1-0.2,0.3-0.4,0.5-0.6c0.3-0.2,0.6-0.4,1-0.7c0.4-0.2,0.8-0.5,1.3-0.7c0.4-0.2,0.9-0.4,1.2-0.6
	c-0.1-0.1-0.2-0.1-0.4-0.2c-0.2,0-0.4,0-0.6,0.1c-0.5,0.2-1,0.5-1.6,0.8c-0.6,0.3-1.1,0.6-1.6,0.8c-0.5,0.3-1,0.5-1.5,0.7
	c-0.5,0.2-0.8,0.4-1.1,0.5c-0.2,0.1-0.3,0-0.4,0c-0.1-0.1-0.2-0.2-0.2-0.4c0-0.3,0-0.8,0.2-1.3c0.2-0.5,0.4-1.1,0.7-1.7
	c0.3-0.6,0.6-1.2,0.9-1.8c0.3-0.6,0.6-1.1,0.9-1.5c0.3-0.4,0.4-0.7,0.6-0.9c0-0.1,0.1-0.2,0.1-0.4c0-0.2,0.1-0.3,0.1-0.4
	c0.3-0.4,0.6-0.8,0.9-1.1c0.3-0.4,0.6-0.8,0.9-1.1c0.3-0.4,0.4-0.6,0.5-0.9l0.2,0.3c0.1-0.2,0.3-0.4,0.5-0.6
	c0.2-0.3,0.4-0.5,0.6-0.9c0.2-0.3,0.5-0.6,0.8-1c0.4-0.4,0.8-0.8,1.2-1.1c0.4-0.4,0.9-0.7,1.4-1C185.8,77,186.3,76.7,186.8,76.4
	L186.8,76.4z M183.8,92.7L183.8,92.7c-0.3,0.3-0.6,0.6-0.9,0.8c-0.3,0.2-0.6,0.4-0.9,0.5c-0.1,0-0.2,0-0.2,0c-0.1,0-0.2,0-0.2,0
	c0.3-0.2,0.7-0.4,1.1-0.7C183,93.2,183.4,92.9,183.8,92.7L183.8,92.7z M180.8,94.9c-0.1,0-0.2,0-0.3,0.1c-0.1,0-0.2,0-0.3,0l1.1-0.7
	c0.1,0.1,0.2,0.1,0.2,0.2c0,0.1-0.1,0.2-0.2,0.2C181.1,94.8,180.9,94.8,180.8,94.9L180.8,94.9z M174.1,85l-0.2,0.5l-0.4-0.1
	c0.1-0.2,0.1-0.3,0.2-0.4C173.9,85.1,174,85,174.1,85L174.1,85z M176,88.3l-0.9,1.8c-0.1-0.1-0.1-0.2-0.1-0.3c0-0.1,0.1-0.3,0.1-0.4
	c0.1-0.1,0.1-0.3,0.2-0.4l0.3-0.7L176,88.3L176,88.3z M174.9,90.7l-0.3,0.8l-0.2-0.2l0.2-0.5L174.9,90.7L174.9,90.7z M187.2,90
	l-1,0.6l-0.4-0.3l0.9-0.4L187.2,90L187.2,90z M183.9,89.6c-0.3,0.1-0.6,0.2-0.8,0.2c-0.3,0-0.5,0-0.6,0c0.4-0.2,0.9-0.4,1.3-0.6
	c0.4-0.2,0.9-0.4,1.2-0.6c0.4-0.2,0.8-0.3,1.1-0.4c0,0.2-0.2,0.4-0.4,0.6c-0.2,0.2-0.5,0.3-0.8,0.5
	C184.5,89.4,184.2,89.5,183.9,89.6L183.9,89.6z M177.1,85.7c0.2-0.3,0.3-0.5,0.5-0.7c0.1-0.2,0.3-0.3,0.5-0.4c0,0,0,0.1,0,0.2
	c0,0.1-0.1,0.2-0.1,0.3c-0.1,0.2-0.2,0.4-0.4,0.7L177.1,85.7L177.1,85.7z M177.3,86.1l-0.2,0.4l-0.3-0.1l0.2-0.4L177.3,86.1
	L177.3,86.1z M173.7,86l-0.4,0.8l-0.3-0.1l0.4-0.9L173.7,86L173.7,86z M201.7,89.6c0.1,0.1,0.2,0.1,0.3-0.1c0.1-0.2,0.3-0.5,0.5-0.9
	c0.2-0.4,0.4-0.9,0.5-1.5c0.1,0,0.2,0.2,0.2,0.4c0,0.2-0.1,0.5-0.2,0.8c-0.1,0.3-0.2,0.6-0.3,0.9c-0.1,0.3-0.2,0.6-0.3,0.9
	c-0.1,0.3-0.2,0.7-0.3,1c-0.1,0.3-0.2,0.6-0.3,0.8c-0.1,0.2-0.2,0.4-0.3,0.4c-0.2-0.1-0.5-0.2-0.9-0.3c-0.3-0.1-0.7-0.3-1-0.5
	c-0.3-0.2-0.6-0.4-0.9-0.7c-0.2-0.3-0.4-0.6-0.4-1c0-0.5,0-1.1,0.1-1.7c0.1-0.6,0.2-1.3,0.4-2c0.2-0.7,0.4-1.4,0.6-2
	c0.2-0.7,0.4-1.3,0.6-1.8l-0.2-0.2c-0.2,0-0.4,0.1-0.7,0.2c-0.3,0.1-0.6,0.2-1,0.4c-0.3,0.1-0.7,0.3-1,0.4c-0.3,0.1-0.6,0.2-0.8,0.3
	c-0.2,0.1-0.4,0.2-0.4,0.2c-0.1-0.1-0.1-0.1-0.2-0.1c-0.1,0-0.2,0-0.2,0c-0.3,0.1-0.5,0.2-0.6,0.4c-0.1,0.2-0.2,0.5-0.3,0.7
	c-0.1,0.3-0.2,0.8-0.3,1.3c-0.1,0.5-0.2,1-0.3,1.6c-0.1,0.6-0.2,1.2-0.3,1.7c-0.1,0.6-0.2,1.1-0.2,1.6c-0.1,0.5-0.1,0.9-0.2,1.2
	c-0.2,0.1-0.4,0.1-0.6,0c-0.1,0-0.3-0.1-0.4-0.2c-0.1-0.1-0.2-0.2-0.4-0.3c0,0,0,0-0.1,0.1c0,0-0.1,0-0.1,0c0,0,0,0-0.1,0
	c0,0-0.1,0-0.1,0c-0.1,0-0.1,0-0.2,0c-0.1,0-0.1,0-0.2,0l0.1-0.4c-0.4-0.1-0.7-0.3-0.9-0.5c-0.2-0.2-0.3-0.5-0.4-0.7
	c-0.1-0.3-0.1-0.6,0-1c0-0.4,0.1-0.8,0.2-1.2c0.1-0.4,0.1-0.9,0.2-1.5c-0.3,0-0.5,0.1-0.9,0.2c-0.3,0.1-0.6,0.2-0.9,0.3
	c-0.3,0.1-0.6,0.2-0.9,0.3c0.1-0.3,0.2-0.5,0.4-0.6c0.2-0.2,0.4-0.3,0.6-0.5c0.2-0.1,0.4-0.3,0.6-0.4l-0.6-0.1l1.8-1.3
	c0.1-0.2,0.1-0.3,0.2-0.5c0.1-0.1,0.1-0.3,0.2-0.4c0.1-0.1,0.1-0.3,0.2-0.5c0.2-0.4,0.3-0.9,0.4-1.3c0.1-0.5,0.2-0.9,0.3-1.4
	c0.1-0.5,0.2-0.9,0.4-1.4c0.3-0.8,0.7-1.7,1-2.6c0.4-0.9,0.7-1.8,1.1-2.6c0.3-0.9,0.7-1.7,1-2.5c0.3-0.8,0.5-1.6,0.7-2.3
	c0,0,0.1-0.1,0.1-0.1c0,0,0-0.1,0.1-0.1c0,0,0.1-0.1,0.3-0.1c0.4-0.1,0.8-0.2,1-0.1c0.3,0,0.5,0.1,0.6,0.3c0.2,0.1,0.3,0.3,0.5,0.5
	c0.2,0.2,0.4,0.4,0.6,0.5c0.1,0.4,0.1,0.7,0.2,1c0.1,0.3,0.1,0.7,0.1,1.1c0,0.4,0,0.9-0.1,1.5l-0.2,0.1c-0.1,0.4-0.2,0.9-0.4,1.4
	c-0.2,0.5-0.4,1.1-0.7,1.7c-0.3,0.6-0.5,1.2-0.7,1.7c-0.3,0.3-0.5,0.5-0.7,0.9c-0.2,0.3-0.2,0.7-0.2,1l0.7-0.4
	c0.3-0.4,0.6-0.8,1-1.1c0.4-0.3,0.8-0.5,1.2-0.7c0.4-0.2,0.8-0.3,1.3-0.5c0.2-0.1,0.5-0.1,0.8-0.1c0.3,0,0.6,0,0.8,0
	c0.6-1,1.1-2.1,1.6-3.2c0.5-1.1,0.9-2.2,1.3-3.3c0.4-1.1,0.8-2.2,1.2-3.3c0.1-0.1,0.1-0.3,0.3-0.4c0.1-0.1,0.3-0.2,0.4-0.2
	c0.3-0.1,0.5-0.1,0.8,0.1c0.2,0.1,0.4,0.3,0.6,0.6c0.2,0.3,0.3,0.6,0.4,0.9c0.1,0.3,0.2,0.6,0.2,1c0,0.3,0,0.5,0,0.8
	c0,0.3,0,0.5-0.1,0.8c-0.1,0.3-0.2,0.5-0.3,0.7c0,0.5-0.1,1-0.2,1.4c-0.1,0.5-0.4,0.8-0.8,1.2c0.1,0.1,0.1,0.3,0,0.6
	c0,0.2-0.1,0.5-0.3,0.8c-0.1,0.3-0.3,0.6-0.4,0.9c-0.1,0.3-0.3,0.6-0.4,0.8c-0.2,0-0.3,0.1-0.5,0.2c-0.2,0.1-0.3,0.2-0.4,0.4
	c-0.1,0.2-0.2,0.3-0.3,0.5c-0.1,0.2-0.1,0.4-0.2,0.6c-0.1,0.2-0.2,0.5-0.3,0.7c-0.1,0.3-0.2,0.5-0.3,0.7c0,0.1,0,0.1,0,0.1
	c0,0,0.1,0,0.2,0c0.1,0,0.1-0.1,0.2-0.2l0.3-0.9c0.1-0.2,0.2-0.4,0.3-0.5c0.1-0.1,0.3-0.2,0.4-0.3c-0.3,0.7-0.5,1.4-0.7,2.1
	c-0.2,0.7-0.4,1.4-0.7,2.1c-0.2,0.7-0.5,1.4-0.9,2.2l-0.4,0c-0.1,0-0.2,0-0.3,0.1c-0.1,0.1-0.2,0.2-0.3,0.3
	c-0.1,0.1-0.1,0.3-0.2,0.5c-0.1,0.2-0.2,0.5-0.3,0.7c-0.1,0.2-0.1,0.4-0.1,0.6c0,0.2,0.1,0.4,0.1,0.6c0.1,0.2,0.1,0.3,0.1,0.4
	c-0.1,0.2-0.2,0.3-0.2,0.5c-0.1,0.2-0.2,0.3-0.2,0.5C201.8,89.3,201.7,89.4,201.7,89.6L201.7,89.6z M203.3,85.5l-0.1-0.1
	c0,0-0.1,0-0.1,0c0,0-0.1,0.1-0.1,0.1l-0.4,0.9l0.1,0.4c0,0,0,0.1,0.1,0.1c0,0,0.1-0.1,0.1-0.1L203.3,85.5L203.3,85.5z M204.6,80.9
	c-0.1,0-0.1,0-0.2,0.1c-0.1,0.1-0.1,0.1-0.2,0.2l-1.1,3c0.1-0.1,0.2-0.2,0.3-0.3c0.1-0.1,0.2-0.3,0.3-0.5c0.1-0.2,0.1-0.4,0.2-0.5
	L204.6,80.9L204.6,80.9z M201.8,88.1c-0.1,0-0.1,0-0.2,0.1c-0.1,0-0.2,0.1-0.2,0.2l-0.3,0.8l0.2,0.2L201.8,88.1L201.8,88.1z
	 M198.2,86.6c0,0,0.1-0.1,0.2-0.2c0.1-0.1,0.2-0.3,0.3-0.5c0.1-0.2,0.1-0.5,0.2-0.8l-0.4,0L198.2,86.6L198.2,86.6z M187.5,87
	l-0.1,0.6l-0.6,0.3c0,0,0-0.1,0.1-0.2c0.1-0.1,0.2-0.2,0.3-0.3c0.1-0.1,0.2-0.3,0.3-0.4c0,0,0.1-0.1,0.1-0.1
	C187.5,86.9,187.5,87,187.5,87L187.5,87z M194.4,84.4c-0.1,0-0.2,0.1-0.3,0.2c-0.1,0.1-0.1,0.2-0.2,0.4c-0.1,0.2-0.1,0.3-0.1,0.5
	l0.3,0L194.4,84.4z"/>
<linearGradient id="SVGID_1_" gradientUnits="userSpaceOnUse" x1="176.4425" y1="103.5621" x2="176.2367" y2="102.7645">
	<stop  offset="0" style="stop-color:#485155"/>
	<stop  offset="1" style="stop-color:#95A6B0"/>
</linearGradient>
<path class="st4" d="M133.7,111.1c0.8,2.8,3.8,4.5,6.7,3.8l73.2-18.4c2.9-0.7,4.7-3.6,4-6.5L133.7,111.1z"/>
<linearGradient id="SVGID_2_" gradientUnits="userSpaceOnUse" x1="167.9565" y1="71.2231" x2="167.6122" y2="69.7449">
	<stop  offset="0" style="stop-color:#95A6B0"/>
	<stop  offset="1" style="stop-color:#FFFFFF"/>
</linearGradient>
<path class="st5" d="M130.5,77.4c-2.9,0.7-4.7,3.7-4,6.5l83.9-21.1c-0.8-2.8-3.8-4.6-6.7-3.8L130.5,77.4z"/>
<path class="st1" d="M144.4,83.1c-0.5,0.2-0.9,0.3-1.2,0.6c-0.3,0.2-0.5,0.5-0.6,0.8c-0.2,0.3-0.3,0.6-0.4,1c-0.1,0.3-0.2,0.7-0.4,1
	c-0.2,0.3-0.4,0.7-0.7,1c-0.3,0.3-0.7,0.6-1.3,0.9c-0.5,0.2-1,0.5-1.6,0.7c-0.6,0.2-1.2,0.4-1.8,0.6c-0.6,0.2-1.2,0.3-1.7,0.4
	c-0.5,0.1-0.9,0.2-1.3,0.3c-0.1,0.2-0.2,0.4-0.3,0.6c-0.1,0.2-0.1,0.4-0.1,0.6c0,0.3,0.1,0.7,0.3,1c0.2,0.4,0.3,0.7,0.5,1
	c0.2,0.3,0.4,0.6,0.6,0.8c0.3,0,0.5-0.1,0.7-0.1c0.2-0.1,0.3-0.1,0.5-0.2c0.2-0.1,0.3-0.2,0.6-0.3c0.2-0.1,0.5-0.2,0.9-0.3l2.6-0.7
	c-0.3,0.9-0.5,1.7-0.8,2.6c-0.3,0.9-0.5,1.8-0.7,2.6c-0.2,0.9-0.4,1.7-0.6,2.4c-0.2,0.7-0.3,1.3-0.4,1.8c-0.1,0.5-0.1,0.8-0.1,1
	c0,0.1,0.1,0.2,0.1,0.3c0.1,0.1,0.1,0.2,0.2,0.3c0.1,0.4,0.2,0.8,0.2,1.2c0.1,0.4,0.2,0.7,0.3,0.9c0.1,0.2,0.4,0.4,0.6,0.4l-0.1,0.4
	c0.3,0,0.6-0.1,1-0.1c0.4-0.1,0.8-0.2,1.2-0.3c0.1-0.8,0.3-1.7,0.4-2.6c0.2-0.9,0.4-1.8,0.6-2.8c-0.1,0-0.3,0.1-0.4,0.1
	c-0.1,0.1-0.2,0.2-0.2,0.4l-0.3-0.1c0.1-0.3,0.2-0.6,0.3-1c0.1-0.3,0.2-0.7,0.3-1c0,0.1,0.1,0.2,0.1,0.3c0,0.1,0,0.3,0.1,0.4
	c0,0.1,0.1,0.1,0.2,0.1c0.1,0,0.1-0.1,0.2-0.3c0-0.1,0.1-0.3,0.1-0.5c0-0.2,0.1-0.4,0.1-0.5c0-0.1,0-0.3-0.1-0.4
	c0-0.1-0.1-0.3-0.2-0.5c0-0.2,0.1-0.4,0.1-0.6c0-0.2,0.1-0.4,0.1-0.6c0-0.2,0.1-0.3,0.2-0.3c0.1,0,0.1,0,0.1,0.1c0,0.1,0,0.2,0,0.3
	c0,0.1,0.1,0.2,0.2,0.1c0.1,0,0.2-0.1,0.3-0.3c0.1-0.2,0.2-0.4,0.2-0.6c0.1-0.2,0.1-0.5,0.2-0.7c0.1-0.2,0.1-0.5,0.1-0.7l-0.3-0.1
	c0.1-0.1,0.1-0.2,0.2-0.3c0.1-0.1,0.2-0.3,0.2-0.4c0.1-0.1,0.1-0.3,0.1-0.4c0.2-0.8,0.3-1.3,0.5-1.8c0.2-0.4,0.3-0.7,0.6-1
	c0.2-0.2,0.5-0.4,0.9-0.5c0.1-0.2,0.2-0.3,0.3-0.4c0.1-0.1,0.2-0.2,0.4-0.2l0,0.4l0.5-0.1c0.7-0.5,1.3-0.9,2-1.3
	c0.7-0.3,1.4-0.6,2-0.9c0.7-0.3,1.3-0.5,1.9-0.7c0.6-0.2,1.1-0.4,1.6-0.7c0,0,0-0.1-0.1-0.1c0,0,0-0.1,0-0.1c0-0.1,0-0.1,0-0.2
	c0-0.1,0.1-0.1,0.2-0.1c0,0,0.1,0,0.2,0c0.1,0,0.2,0,0.3,0l0.1,0.2c0.1-0.1,0.2-0.1,0.3-0.2c0.1-0.1,0.2-0.1,0.2-0.2
	c-0.1-0.1-0.2-0.3-0.3-0.5c-0.1-0.2-0.1-0.4-0.1-0.6c0-0.2,0.1-0.5,0.2-0.7c-0.2-0.4-0.4-0.6-0.8-0.8c-0.3-0.2-0.7-0.3-1.1-0.4
	c-0.4-0.1-0.9-0.1-1.4-0.1c-0.5,0.2-1.1,0.5-1.8,0.8c-0.7,0.3-1.4,0.7-2.1,1c-0.7,0.4-1.5,0.7-2.2,1.1L144.4,83.1L144.4,83.1z
	 M143,95.5l-0.2,0.7l-0.2-0.2l0.3-0.7L143,95.5L143,95.5z M170.3,80.4c0,0.1,0,0.2-0.1,0.3c-0.1,0.1-0.2,0.2-0.3,0.3
	c-0.1,0.1-0.3,0.2-0.4,0.4c-0.7,0.5-1.5,1-2.2,1.5c-0.7,0.4-1.5,0.8-2.2,1.2c-0.7,0.4-1.5,0.7-2.2,1.1c-0.7,0.4-1.5,0.7-2.2,1.2
	c-0.2,0.3-0.3,0.7-0.5,1.2c-0.2,0.4-0.4,0.9-0.6,1.5c0.3-0.1,0.7-0.3,1.2-0.6c0.5-0.3,0.9-0.5,1.4-0.8c0.5-0.3,0.9-0.6,1.3-0.8
	c0.4-0.2,0.7-0.4,1-0.5c0.3-0.1,0.6-0.1,0.8-0.1c0.2,0,0.4,0.1,0.6,0.3c0.2,0.2,0.4,0.4,0.7,0.7c0,0.2,0,0.4,0.1,0.5
	c0.1,0.1,0.2,0.2,0.4,0.3l-0.2,0.8c-0.4,0.2-0.9,0.4-1.5,0.7c-0.6,0.3-1.2,0.6-1.9,0.9c-0.7,0.3-1.3,0.6-2,1c-0.6,0.3-1.2,0.7-1.8,1
	c-0.5,0.3-1,0.6-1.3,0.8c-0.2,0.1-0.3,0.4-0.4,0.7c-0.1,0.3-0.2,0.7-0.3,1.2c-0.1,0.4-0.2,0.9-0.2,1.3c-0.1,0.5-0.1,0.9-0.1,1.2
	c0,0.4,0,0.6,0,0.8c0.4,0.1,0.8,0.2,1.2,0.1c0.4-0.1,0.9-0.2,1.3-0.4c0.4-0.2,0.8-0.4,1.1-0.5l0.2,0.3c0.1,0,0.2-0.1,0.3-0.2
	c0.1-0.1,0.2-0.2,0.1-0.3c0.1,0,0.2-0.1,0.3,0c0.1,0,0.2,0.1,0.3,0.2c0.1,0.1,0.2,0.1,0.3,0.2c0.1,0,0.2,0,0.3,0
	c0.7-0.4,1.4-0.8,2.2-1.3c0.7-0.5,1.5-0.9,2.1-1.3c0.7-0.4,1.3-0.8,1.8-1.2c0,0,0.1-0.1,0.2-0.1c0.1,0,0.1,0,0.1,0
	c0,0,0,0.1-0.1,0.2c-0.1,0.1-0.2,0.2-0.3,0.3c-0.1,0.1-0.2,0.2-0.3,0.2l-2.2,1.5c0.1,0,0.2,0.1,0.4,0.1c0.2,0,0.3,0.1,0.4,0.1
	c0,0,0.1,0,0,0.1c0,0-0.1,0.1-0.1,0.1c-0.5,0.3-1.1,0.7-1.7,1.1c-0.6,0.4-1.2,0.7-1.8,1.1c-0.6,0.4-1.2,0.7-1.9,1
	c0.3,0,0.6,0,0.9-0.1c0.3-0.1,0.7-0.2,1-0.4c0.4-0.2,0.9-0.5,1.4-0.9c0.5-0.3,1-0.7,1.6-1c0.5-0.4,1.1-0.7,1.6-1
	c0,0,0.1-0.1,0.1-0.1c0,0,0.1,0,0.1,0c0,0,0,0.1,0,0.2c-0.1,0.2-0.2,0.4-0.3,0.5c-0.1,0.2-0.3,0.3-0.5,0.5c-0.7,0.5-1.4,1-2.2,1.5
	c-0.8,0.5-1.6,1-2.3,1.4c-0.8,0.4-1.5,0.7-2.2,0.9c-1,0.3-1.9,0.4-2.7,0.4c-0.8,0-1.6-0.2-2.2-0.5c-0.6-0.3-1.1-0.9-1.5-1.6
	c-0.4-0.7-0.6-1.7-0.7-2.9c0-0.6,0-1.3,0.2-2.1c0.2-0.8,0.4-1.6,0.7-2.6c0.3-1,0.7-2,1.1-3.2c0.4-1.2,0.9-2.5,1.4-3.9
	c-0.1-0.4-0.2-0.8-0.2-1.2c0-0.4,0.1-0.9,0.4-1.4c0.3-0.1,0.6-0.2,0.9-0.4c0.3-0.2,0.5-0.5,0.7-0.8c0.2-0.3,0.4-0.6,0.6-0.9
	c0.2-0.3,0.4-0.6,0.6-0.8c0.2-0.2,0.4-0.4,0.7-0.5c0.2,0,0.4-0.1,0.7-0.1c0.3,0,0.6,0,0.9-0.1c0.3,0,0.6,0,0.8,0c0.2,0,0.4,0,0.6,0
	c0.1,0.4,0.1,0.7,0,1.2c-0.1,0.4-0.2,0.9-0.4,1.4c0.1,0,0.3,0,0.6-0.1c0.2,0,0.5-0.1,0.8-0.1c0.3-0.1,0.6-0.1,0.8-0.2
	c0.3-0.1,0.5-0.1,0.7-0.2l0.4,0.5c0.1,0,0.2-0.1,0.3-0.2c0.1-0.1,0.3-0.2,0.5-0.2c0.1,0,0.3,0,0.5-0.1c0.2,0,0.4,0,0.6,0
	c0.2,0,0.4,0,0.6,0c0,0,0.1,0,0.1,0c0,0,0,0.1,0,0.1c-0.2,0.3-0.5,0.6-0.7,0.7c-0.2,0.2-0.4,0.3-0.6,0.4c-0.2,0.1-0.3,0.2-0.4,0.2
	c-0.1,0.1-0.2,0.2-0.2,0.2c0,0.1,0,0.2,0,0.4c0.5-0.3,0.9-0.6,1.3-0.9c0.4-0.3,0.9-0.6,1.3-0.9c0,0,0.1-0.1,0.1-0.1
	C170.1,80.4,170.2,80.3,170.3,80.4C170.3,80.3,170.3,80.3,170.3,80.4L170.3,80.4z M167.5,81.1c0-0.1-0.1-0.1-0.2-0.1
	c-0.1,0-0.2,0-0.3,0c-0.1,0-0.2,0.1-0.3,0.1l0.1,0.4L167.5,81.1L167.5,81.1z M157,94.3l0,0.4l0,0c0.1-0.2,0.2-0.3,0.3-0.5
	c0.1-0.2,0.2-0.4,0.2-0.5c-0.2,0-0.4,0.1-0.4,0.2C157.1,94,157,94.2,157,94.3L157,94.3z M157,97.2l-0.3-0.3c0,0.3,0,0.6,0,0.8
	c0,0.2,0.1,0.3,0.2,0.4L157,97.2L157,97.2z M166.9,94.1c0-0.1,0-0.1,0-0.1c0,0-0.1,0-0.1,0c-0.6,0.4-1.2,0.9-2,1.3
	c-0.7,0.4-1.4,0.9-2.2,1.3c0.2,0.2,0.4,0.2,0.6,0.1c0.3-0.1,0.6-0.3,0.9-0.5c0.3-0.2,0.6-0.5,0.9-0.9c0.2-0.1,0.4-0.1,0.7-0.3
	c0.2-0.1,0.5-0.3,0.7-0.4C166.6,94.5,166.8,94.3,166.9,94.1L166.9,94.1z M160.2,86.5l-0.4,0.2l-0.5,1.1l0.4-0.2L160.2,86.5
	L160.2,86.5z M159.1,88.3c-0.1,0-0.2,0.1-0.3,0.2c-0.1,0.1-0.2,0.3-0.3,0.4c-0.1,0.2-0.1,0.3-0.1,0.4l0.4-0.2L159.1,88.3L159.1,88.3
	z M157.3,94.8l-0.3,0.1l-0.2,1.3l0.3,0.2L157.3,94.8L157.3,94.8z M186.6,76.1c0-0.4,0-0.7-0.1-0.9c-0.1-0.3-0.2-0.5-0.4-0.7
	c-0.2-0.2-0.3-0.4-0.5-0.6c-0.2-0.2-0.3-0.4-0.5-0.7c-0.2,0-0.4-0.1-0.6-0.1c-0.2,0-0.4-0.1-0.6-0.1c-0.2,0-0.4,0-0.5,0
	c-0.2,0.1-0.5,0.3-0.9,0.6c-0.4,0.3-0.9,0.7-1.5,1.2c-0.5,0.5-1.1,1-1.7,1.6c-0.6,0.6-1.1,1.2-1.6,1.8c-0.5,0.6-1,1.2-1.3,1.7
	c-0.4,0.5-0.6,1-0.7,1.4l-0.2,0.1c0,0.1,0.1,0.3,0.1,0.5c0,0.2,0.1,0.3,0.2,0.4l-0.4,0.1c-0.1,0-0.2,0.2-0.3,0.4
	c-0.1,0.2-0.2,0.4-0.3,0.7c-0.1,0.3-0.2,0.5-0.3,0.7c-0.1,0.2-0.2,0.3-0.3,0.4c-0.1,0-0.2,0-0.2,0c0,0,0-0.1,0-0.2
	c0-0.1,0-0.1,0-0.2c0,0-0.1-0.1-0.2,0c-0.1,0-0.3,0.2-0.4,0.5c-0.2,0.3-0.4,0.7-0.6,1.1c-0.2,0.4-0.4,0.9-0.6,1.4
	c-0.2,0.5-0.4,0.9-0.5,1.3c0,0.1,0,0.3,0,0.4c0,0.1,0,0.3,0.1,0.4c0,0.1,0,0.3-0.1,0.4l-0.4-0.1c0,0.2,0,0.5,0,0.7
	c0,0.2,0,0.5-0.1,0.7c-0.1,0.2-0.2,0.4-0.3,0.6l0.1,0.9c0,0.2,0.1,0.4,0.1,0.6c0.1,0.2,0.1,0.4,0.2,0.5c0.1,0.1,0.2,0.3,0.4,0.5
	c0.2,0.2,0.4,0.5,0.7,0.8c0.3,0.3,0.5,0.5,0.7,0.8c0.2,0.2,0.4,0.4,0.6,0.5c0.3-0.1,0.5-0.1,0.7-0.1c0.2,0,0.3,0,0.5,0.1
	c0.1,0.1,0.3,0.1,0.4,0.1c0.2,0,0.3,0,0.5,0c0.1,0,0.2,0,0.3,0c0.1,0.1,0.2,0.1,0.3,0.2c0.1,0.1,0.2,0.1,0.4,0
	c0.3-0.1,0.5-0.2,0.8-0.3c0.3-0.1,0.6-0.3,0.9-0.4c0.3-0.2,0.5-0.3,0.8-0.4c-0.1-0.1-0.1-0.2-0.1-0.4c0.1-0.2,0.2-0.3,0.4-0.4
	c0.4-0.3,0.9-0.6,1.4-0.9c0.5-0.3,1-0.6,1.5-0.9c0.5-0.3,1-0.6,1.4-0.9c0.4-0.3,0.8-0.5,1.1-0.7c0.3-0.2,0.5-0.3,0.5-0.3l-0.3-0.3
	c-0.1-0.1-0.1-0.2-0.1-0.3c0-0.1,0.1-0.2,0.2-0.3c0.1-0.1,0.3-0.1,0.4-0.2l1.7-0.8l-0.4-0.1l-0.8,0.3l-0.5,0
	c-0.6,0.2-1.2,0.5-1.8,0.8c-0.6,0.3-1.3,0.6-1.9,0.9c-0.6,0.3-1.3,0.6-1.8,0.9c-0.2,0.2-0.4,0.4-0.6,0.6c-0.3,0.2-0.5,0.3-0.8,0.4
	c-0.3,0.1-0.5,0.1-0.8,0c0.1-0.2,0.3-0.4,0.5-0.6c0.3-0.2,0.6-0.4,1-0.7c0.4-0.2,0.8-0.5,1.3-0.7c0.4-0.2,0.9-0.4,1.2-0.6
	c-0.1-0.1-0.2-0.1-0.4-0.2c-0.2,0-0.4,0-0.6,0.1c-0.5,0.2-1,0.5-1.6,0.8c-0.6,0.3-1.1,0.6-1.6,0.8c-0.5,0.3-1,0.5-1.5,0.7
	c-0.5,0.2-0.8,0.4-1.1,0.5c-0.2,0.1-0.3,0-0.4,0c-0.1-0.1-0.2-0.2-0.2-0.4c0-0.3,0-0.8,0.2-1.3c0.2-0.5,0.4-1.1,0.7-1.7
	c0.3-0.6,0.6-1.2,0.9-1.8c0.3-0.6,0.6-1.1,0.9-1.5c0.3-0.4,0.4-0.7,0.6-0.9c0-0.1,0.1-0.2,0.1-0.4c0-0.2,0.1-0.3,0.1-0.4
	c0.3-0.4,0.6-0.8,0.9-1.1c0.3-0.4,0.6-0.8,0.9-1.1c0.3-0.4,0.4-0.6,0.5-0.9l0.2,0.3c0.1-0.2,0.3-0.4,0.5-0.6
	c0.2-0.3,0.4-0.5,0.6-0.9c0.2-0.3,0.5-0.6,0.8-1c0.4-0.4,0.8-0.8,1.2-1.1c0.4-0.4,0.9-0.7,1.4-1C185.7,76.7,186.1,76.4,186.6,76.1
	L186.6,76.1z M183.6,92.4L183.6,92.4c-0.3,0.3-0.6,0.6-0.9,0.8c-0.3,0.2-0.6,0.4-0.9,0.5c-0.1,0-0.2,0-0.2,0c-0.1,0-0.2,0-0.2,0
	c0.3-0.2,0.7-0.4,1.1-0.7C182.8,92.9,183.2,92.6,183.6,92.4L183.6,92.4z M180.6,94.6c-0.1,0-0.2,0-0.3,0.1c-0.1,0-0.2,0-0.3,0
	L181,94c0.1,0.1,0.2,0.1,0.2,0.2c0,0.1-0.1,0.2-0.2,0.2C180.9,94.5,180.8,94.6,180.6,94.6L180.6,94.6z M173.9,84.7l-0.2,0.5
	l-0.4-0.1c0.1-0.2,0.1-0.3,0.2-0.4C173.7,84.8,173.8,84.7,173.9,84.7L173.9,84.7z M175.9,88l-0.9,1.8c-0.1-0.1-0.1-0.2-0.1-0.3
	c0-0.1,0.1-0.3,0.1-0.4c0.1-0.1,0.1-0.3,0.2-0.4l0.3-0.7L175.9,88L175.9,88z M174.8,90.4l-0.3,0.8l-0.2-0.2l0.2-0.5L174.8,90.4
	L174.8,90.4z M187,89.7l-1,0.6l-0.4-0.3l0.9-0.4L187,89.7L187,89.7z M183.7,89.3c-0.3,0.1-0.6,0.2-0.8,0.2c-0.3,0-0.5,0-0.6,0
	c0.4-0.2,0.9-0.4,1.3-0.6c0.4-0.2,0.9-0.4,1.2-0.6c0.4-0.2,0.8-0.3,1.1-0.4c0,0.2-0.2,0.4-0.4,0.6c-0.2,0.2-0.5,0.3-0.8,0.5
	C184.4,89.1,184,89.2,183.7,89.3L183.7,89.3z M176.9,85.4c0.2-0.3,0.3-0.5,0.5-0.7c0.1-0.2,0.3-0.3,0.5-0.4c0,0,0,0.1,0,0.2
	c0,0.1-0.1,0.2-0.1,0.3c-0.1,0.2-0.2,0.4-0.4,0.7L176.9,85.4L176.9,85.4z M177.1,85.8l-0.2,0.4l-0.3-0.1l0.2-0.4L177.1,85.8
	L177.1,85.8z M173.6,85.7l-0.4,0.8l-0.3-0.1l0.4-0.9L173.6,85.7L173.6,85.7z M201.6,89.3c0.1,0.1,0.2,0.1,0.3-0.1
	c0.1-0.2,0.3-0.5,0.5-0.9c0.2-0.4,0.4-0.9,0.5-1.5c0.1,0,0.2,0.2,0.2,0.4c0,0.2-0.1,0.5-0.2,0.8c-0.1,0.3-0.2,0.6-0.3,0.9
	c-0.1,0.3-0.2,0.6-0.3,0.9c-0.1,0.3-0.2,0.7-0.3,1c-0.1,0.3-0.2,0.6-0.3,0.8c-0.1,0.2-0.2,0.4-0.3,0.4c-0.2-0.1-0.5-0.2-0.9-0.3
	c-0.3-0.1-0.7-0.3-1-0.5c-0.3-0.2-0.6-0.4-0.9-0.7c-0.2-0.3-0.4-0.6-0.4-1c0-0.5,0-1.1,0.1-1.7c0.1-0.6,0.2-1.3,0.4-2
	c0.2-0.7,0.4-1.4,0.6-2c0.2-0.7,0.4-1.3,0.6-1.8l-0.2-0.2c-0.2,0-0.4,0.1-0.7,0.2c-0.3,0.1-0.6,0.2-1,0.4c-0.3,0.1-0.7,0.3-1,0.4
	c-0.3,0.1-0.6,0.2-0.8,0.3c-0.2,0.1-0.4,0.2-0.4,0.2c-0.1-0.1-0.1-0.1-0.2-0.1c-0.1,0-0.2,0-0.2,0c-0.3,0.1-0.5,0.2-0.6,0.4
	c-0.1,0.2-0.2,0.5-0.3,0.7c-0.1,0.3-0.2,0.8-0.3,1.3c-0.1,0.5-0.2,1-0.3,1.6c-0.1,0.6-0.2,1.2-0.3,1.7c-0.1,0.6-0.2,1.1-0.2,1.6
	c-0.1,0.5-0.1,0.9-0.2,1.2c-0.2,0.1-0.4,0.1-0.6,0c-0.1,0-0.3-0.1-0.4-0.2c-0.1-0.1-0.2-0.2-0.4-0.3c0,0,0,0-0.1,0.1
	c0,0-0.1,0-0.1,0c0,0,0,0-0.1,0c0,0-0.1,0-0.1,0c-0.1,0-0.1,0-0.2,0c-0.1,0-0.1,0-0.2,0l0.1-0.4c-0.4-0.1-0.7-0.3-0.9-0.5
	c-0.2-0.2-0.3-0.5-0.4-0.7c-0.1-0.3-0.1-0.6,0-1c0-0.4,0.1-0.8,0.2-1.2c0.1-0.4,0.1-0.9,0.2-1.5c-0.3,0-0.5,0.1-0.9,0.2
	c-0.3,0.1-0.6,0.2-0.9,0.3c-0.3,0.1-0.6,0.2-0.9,0.3c0.1-0.3,0.2-0.5,0.4-0.6c0.2-0.2,0.4-0.3,0.6-0.5c0.2-0.1,0.4-0.3,0.6-0.4
	l-0.6-0.1l1.8-1.3c0-0.2,0.1-0.3,0.2-0.5c0.1-0.1,0.1-0.3,0.2-0.4c0.1-0.1,0.1-0.3,0.2-0.5c0.2-0.4,0.3-0.9,0.4-1.3
	c0.1-0.5,0.2-0.9,0.3-1.4c0.1-0.5,0.2-0.9,0.4-1.4c0.3-0.8,0.7-1.7,1-2.6c0.4-0.9,0.7-1.8,1.1-2.6c0.3-0.9,0.7-1.7,1-2.5
	c0.3-0.8,0.5-1.6,0.7-2.3c0,0,0.1-0.1,0.1-0.1c0,0,0-0.1,0.1-0.1c0,0,0.1-0.1,0.3-0.1c0.4-0.1,0.8-0.2,1-0.1c0.3,0,0.5,0.1,0.6,0.3
	c0.2,0.1,0.3,0.3,0.5,0.5c0.2,0.2,0.4,0.4,0.6,0.5c0.1,0.4,0.1,0.7,0.2,1c0.1,0.3,0.1,0.7,0.1,1.1c0,0.4,0,0.9-0.1,1.5l-0.2,0.1
	c-0.1,0.4-0.2,0.9-0.4,1.4c-0.2,0.5-0.4,1.1-0.7,1.7c-0.3,0.6-0.5,1.2-0.7,1.7c-0.3,0.3-0.5,0.5-0.7,0.9c-0.2,0.3-0.2,0.7-0.2,1
	l0.7-0.4c0.3-0.4,0.6-0.8,1-1.1c0.4-0.3,0.8-0.5,1.2-0.7c0.4-0.2,0.8-0.3,1.3-0.5c0.2-0.1,0.5-0.1,0.8-0.1c0.3,0,0.6,0,0.8,0
	c0.6-1,1.1-2.1,1.6-3.2c0.5-1.1,0.9-2.2,1.3-3.3c0.4-1.1,0.8-2.2,1.2-3.3c0.1-0.1,0.1-0.3,0.3-0.4c0.1-0.1,0.3-0.2,0.4-0.2
	c0.3-0.1,0.5-0.1,0.8,0.1c0.2,0.1,0.4,0.3,0.6,0.6c0.2,0.3,0.3,0.6,0.4,0.9c0.1,0.3,0.2,0.6,0.2,1c0,0.3,0,0.5,0,0.8
	c0,0.3,0,0.5-0.1,0.8c-0.1,0.3-0.2,0.5-0.3,0.7c0,0.5-0.1,1-0.2,1.4c-0.1,0.5-0.4,0.8-0.8,1.2c0.1,0.1,0.1,0.3,0,0.6
	c0,0.2-0.1,0.5-0.3,0.8c-0.1,0.3-0.3,0.6-0.4,0.9c-0.1,0.3-0.3,0.6-0.4,0.8c-0.2,0-0.3,0.1-0.5,0.2c-0.2,0.1-0.3,0.2-0.4,0.4
	c-0.1,0.2-0.2,0.3-0.3,0.5c-0.1,0.2-0.1,0.4-0.2,0.6c-0.1,0.2-0.2,0.5-0.3,0.7c-0.1,0.3-0.2,0.5-0.3,0.7c0,0.1,0,0.1,0,0.1
	c0,0,0.1,0,0.2,0c0.1,0,0.1-0.1,0.2-0.2l0.3-0.9c0.1-0.2,0.2-0.4,0.3-0.5c0.1-0.1,0.3-0.2,0.4-0.3c-0.3,0.7-0.5,1.4-0.7,2.2
	c-0.2,0.7-0.4,1.4-0.7,2.1c-0.2,0.7-0.5,1.4-0.9,2.2l-0.4,0c-0.1,0-0.2,0-0.3,0.1c-0.1,0.1-0.2,0.2-0.3,0.3
	c-0.1,0.1-0.1,0.3-0.2,0.5c-0.1,0.2-0.2,0.5-0.3,0.7c-0.1,0.2-0.1,0.4-0.1,0.6c0,0.2,0.1,0.4,0.1,0.6c0.1,0.2,0.1,0.3,0.1,0.4
	c-0.1,0.2-0.2,0.3-0.2,0.5c-0.1,0.2-0.2,0.3-0.2,0.5C201.6,89,201.6,89.1,201.6,89.3L201.6,89.3z M203.1,85.2l-0.1-0.1
	c0,0-0.1,0-0.1,0c0,0-0.1,0.1-0.1,0.1l-0.4,0.9l0.1,0.4c0,0,0,0.1,0.1,0.1c0,0,0.1-0.1,0.1-0.1L203.1,85.2L203.1,85.2z M204.4,80.6
	c-0.1,0-0.1,0-0.2,0.1c-0.1,0.1-0.1,0.1-0.2,0.2l-1.1,3c0.1-0.1,0.2-0.2,0.3-0.3c0.1-0.1,0.2-0.3,0.3-0.5c0.1-0.2,0.1-0.4,0.2-0.5
	L204.4,80.6L204.4,80.6z M201.6,87.8c-0.1,0-0.1,0-0.2,0.1c-0.1,0-0.2,0.1-0.2,0.2l-0.3,0.8l0.2,0.2L201.6,87.8L201.6,87.8z
	 M198,86.3c0,0,0.1-0.1,0.2-0.2c0.1-0.1,0.2-0.3,0.3-0.5c0.1-0.2,0.1-0.5,0.2-0.8l-0.4,0L198,86.3L198,86.3z M187.4,86.7l-0.1,0.6
	l-0.6,0.3c0,0,0-0.1,0.1-0.2c0.1-0.1,0.2-0.2,0.3-0.3c0.1-0.1,0.2-0.3,0.3-0.4c0,0,0.1-0.1,0.1-0.1
	C187.4,86.6,187.4,86.7,187.4,86.7L187.4,86.7z M194.2,84.1c-0.1,0-0.2,0.1-0.3,0.2c-0.1,0.1-0.1,0.2-0.2,0.4
	c-0.1,0.2-0.1,0.3-0.1,0.5l0.3,0L194.2,84.1z"/>
<path class="st2" d="M69,36.2H76v24.3c0,1.6,0.3,3.3,1.5,4.5c1.2,1.2,2.8,1.5,4.4,1.5h7.5v6.4h-6.7c-3.6,0-7.5-0.7-10.2-3.3
	C69.8,67,69,63.3,69,59.7V36.2z"/>
<path class="st1" d="M5.4,5.6h2.9c0.4,0,0.7,0.3,0.7,0.7V21c0,0.4-0.3,0.7-0.7,0.7H5.4c-0.4,0-0.7-0.3-0.7-0.7V6.3
	C4.7,5.9,5,5.6,5.4,5.6L5.4,5.6z M7.6,7H6.2v13.3h1.4V7L7.6,7z M11.6,5.6h2.8c0.3,0,0.5,0.1,0.6,0.4l5.2,7.6V6.3
	c0-0.4,0.3-0.7,0.7-0.7h2.9c0.4,0,0.7,0.3,0.7,0.7V21c0,0.4-0.3,0.7-0.7,0.7H21c-0.3,0-0.5-0.1-0.6-0.4l-5.2-7.6V21
	c0,0.4-0.3,0.7-0.7,0.7h-2.9c-0.4,0-0.7-0.3-0.7-0.7V6.3C10.9,5.9,11.2,5.6,11.6,5.6L11.6,5.6z M14,7h-1.7v13.3h1.4v-8.9
	c0-0.2,0.1-0.5,0.3-0.6c0.3-0.2,0.8-0.1,1,0.2l6.3,9.3h1.7V7h-1.4v9c0,0.2-0.1,0.5-0.3,0.6c-0.3,0.2-0.8,0.1-1-0.2L14,7L14,7z
	 M25.8,5.6h8.4c0.4,0,0.7,0.3,0.7,0.7v2.8c0,0.4-0.3,0.7-0.7,0.7h-2.1V21c0,0.4-0.3,0.7-0.7,0.7h-2.9c-0.4,0-0.7-0.3-0.7-0.7V9.8h-2
	c-0.4,0-0.7-0.3-0.7-0.7V6.3C25.1,5.9,25.4,5.6,25.8,5.6L25.8,5.6z M33.5,7h-7v1.4h2c0.4,0,0.7,0.3,0.7,0.7v11.2h1.5V9.1
	c0-0.4,0.3-0.7,0.7-0.7h2.1V7L33.5,7z M36.2,5.6h8.3c0.4,0,0.7,0.3,0.7,0.7v2.7c0,0.4-0.3,0.7-0.7,0.7h-4.7V11h4.7
	c0.4,0,0.7,0.3,0.7,0.7v2.7c0,0.4-0.3,0.7-0.7,0.7h-4.7v2.5h4.7c0.4,0,0.7,0.3,0.7,0.7V21c0,0.4-0.3,0.7-0.7,0.7h-8.3
	c-0.4,0-0.7-0.3-0.7-0.7V6.3C35.5,5.9,35.8,5.6,36.2,5.6L36.2,5.6z M43.8,7h-6.9v13.3h6.9V19h-4.7c-0.4,0-0.7-0.3-0.7-0.7v-3.9
	c0-0.4,0.3-0.7,0.7-0.7h4.7v-1.3h-4.7c-0.4,0-0.7-0.3-0.7-0.7V9.1c0-0.4,0.3-0.7,0.7-0.7h4.7V7L43.8,7z M47.5,5.6h3.1
	c0.9,0,1.6,0,2.3,0.1c0.7,0.1,1.2,0.2,1.6,0.4c0.4,0.2,0.8,0.4,1.2,0.7l0,0c0.3,0.3,0.6,0.6,0.9,1c0.3,0.4,0.4,0.8,0.6,1.3
	c0.1,0.5,0.2,1,0.2,1.5c0,0.5-0.1,1.1-0.2,1.5c-0.1,0.5-0.4,0.9-0.6,1.3c-0.3,0.4-0.6,0.7-1.1,1c-0.2,0.1-0.4,0.3-0.7,0.4l3.2,5.9
	c0.2,0.3,0.1,0.8-0.3,0.9c-0.1,0.1-0.2,0.1-0.3,0.1l-3.2,0c-0.3,0-0.6-0.2-0.7-0.4l-2.3-4.2V21c0,0.4-0.3,0.7-0.7,0.7h-2.9
	c-0.4,0-0.7-0.3-0.7-0.7V6.3C46.7,5.9,47,5.6,47.5,5.6L47.5,5.6z M50.5,7h-2.4v13.3h1.4v-5.5c0-0.4,0.3-0.7,0.7-0.7h0.3
	c0.3,0,0.5,0.1,0.6,0.4l3.2,5.8H56l-3-5.5l0-0.1c-0.1-0.4,0.1-0.8,0.4-0.9c0.4-0.1,0.8-0.3,1.1-0.5c0.3-0.2,0.5-0.4,0.7-0.7
	c0.2-0.3,0.3-0.6,0.4-0.9c0.1-0.3,0.2-0.7,0.2-1.1c0-0.4,0-0.8-0.1-1.1c-0.1-0.3-0.2-0.6-0.4-0.9c-0.2-0.3-0.4-0.5-0.6-0.7l0,0
	c-0.2-0.2-0.5-0.3-0.8-0.5c-0.3-0.1-0.7-0.2-1.2-0.3C52,7,51.4,7,50.5,7L50.5,7z M51.1,11.4h0.2c0.4,0,0.8,0,1-0.1
	c0.2,0,0.4-0.1,0.5-0.1c0.1,0,0.1-0.1,0.1-0.2c0-0.1,0.1-0.2,0.1-0.4c0-0.1,0-0.2,0-0.3l0,0c0-0.1,0-0.1-0.1-0.2
	c0-0.1-0.1-0.1-0.2-0.2c-0.1,0-0.1-0.1-0.2-0.1l0,0c-0.1,0-0.2-0.1-0.4-0.1l0,0c-0.2,0-0.5,0-0.9,0h-0.1V11.4L51.1,11.4z M51.3,12.8
	c0.5,0,0.9,0,1.3-0.1c0.4-0.1,0.8-0.2,1-0.4c0.3-0.2,0.5-0.4,0.6-0.8c0.1-0.3,0.2-0.6,0.2-1c0-0.2,0-0.4-0.1-0.6l0,0
	c-0.1-0.2-0.2-0.4-0.3-0.5c-0.1-0.2-0.3-0.3-0.5-0.5l0,0c-0.2-0.1-0.4-0.2-0.6-0.3l0,0c-0.2-0.1-0.5-0.1-0.8-0.1l0,0
	c-0.3,0-0.6,0-1,0h-0.8c-0.4,0-0.7,0.3-0.7,0.7v3c0,0.4,0.3,0.7,0.7,0.7H51.3L51.3,12.8z M59.6,5.6h2.8c0.3,0,0.5,0.1,0.6,0.4
	l5.2,7.6V6.3c0-0.4,0.3-0.7,0.7-0.7h2.9c0.4,0,0.7,0.3,0.7,0.7V21c0,0.4-0.3,0.7-0.7,0.7H69c-0.3,0-0.5-0.1-0.6-0.4l-5.2-7.6V21
	c0,0.4-0.3,0.7-0.7,0.7h-2.9c-0.4,0-0.7-0.3-0.7-0.7V6.3C58.9,5.9,59.2,5.6,59.6,5.6L59.6,5.6z M62,7h-1.7v13.3h1.4v-8.9
	c0-0.2,0.1-0.5,0.3-0.6c0.3-0.2,0.8-0.1,1,0.2l6.3,9.3h1.7V7h-1.4v9c0,0.2-0.1,0.5-0.3,0.6c-0.3,0.2-0.8,0.1-1-0.2L62,7L62,7z
	 M75.3,5.6h8.3c0.2,0,0.5,0.1,0.6,0.3c0.1-0.2,0.4-0.3,0.6-0.3h8.4c0.4,0,0.7,0.3,0.7,0.7v2.8c0,0.4-0.3,0.7-0.7,0.7h-2.1V21
	c0,0.4-0.3,0.7-0.7,0.7h-2.9c-0.4,0-0.7-0.3-0.7-0.7V9.8h-2c-0.3,0-0.5-0.1-0.6-0.3c-0.1,0.2-0.3,0.3-0.6,0.3h-4.7V11h4.7
	c0.4,0,0.7,0.3,0.7,0.7v2.7c0,0.4-0.3,0.7-0.7,0.7h-4.7v2.5h4.7c0.4,0,0.7,0.3,0.7,0.7V21c0,0.4-0.3,0.7-0.7,0.7h-8.3
	c-0.4,0-0.7-0.3-0.7-0.7V6.3C74.6,5.9,74.9,5.6,75.3,5.6L75.3,5.6z M82.9,7H76v13.3h6.9V19h-4.7c-0.4,0-0.7-0.3-0.7-0.7v-3.9
	c0-0.4,0.3-0.7,0.7-0.7h4.7v-1.3h-4.7c-0.4,0-0.7-0.3-0.7-0.7V9.1c0-0.4,0.3-0.7,0.7-0.7h4.7V7L82.9,7z M92.5,7h-7v1.4h2
	c0.4,0,0.7,0.3,0.7,0.7v11.2h1.5V9.1c0-0.4,0.3-0.7,0.7-0.7h2.1V7L92.5,7z M102.6,5.6l2.8,0c0.3,0,0.6,0.2,0.7,0.5l2.8,8.2l2.9-8.3
	c0.1-0.3,0.4-0.5,0.7-0.5l2.8,0c0.4,0,0.7,0.3,0.7,0.6l2.6,14.6c0.1,0.4-0.2,0.7-0.6,0.8c0,0-0.1,0-0.1,0l-2.8,0
	c-0.4,0-0.7-0.3-0.7-0.6l-1.1-6.5l-2.3,6.7c-0.1,0.3-0.4,0.5-0.7,0.5l-2.6,0c-0.3,0-0.6-0.2-0.7-0.5l-2.3-6.6l-1.2,6.5
	c-0.1,0.3-0.4,0.6-0.7,0.6l-2.8,0c-0.4,0-0.7-0.3-0.7-0.7c0-0.1,0-0.1,0-0.2l2.6-14.6C102,5.9,102.3,5.6,102.6,5.6L102.6,5.6z
	 M105,7h-1.7l-2.4,13.3h1.4l1.6-8.7c0-0.3,0.2-0.5,0.5-0.6c0.4-0.1,0.8,0.1,0.9,0.4l3,8.8h1.5l3.1-8.8c0.1-0.3,0.3-0.5,0.6-0.5
	c0.4-0.1,0.8,0.2,0.8,0.6l1.5,8.7h1.3L114.8,7h-1.7l-3.4,9.7c-0.1,0.2-0.2,0.4-0.5,0.5c-0.4,0.1-0.8-0.1-0.9-0.4L105,7L105,7z
	 M120.3,5.6h8.3c0.4,0,0.7,0.3,0.7,0.7v2.7c0,0.4-0.3,0.7-0.7,0.7h-4.7V11h4.7c0.4,0,0.7,0.3,0.7,0.7v2.7c0,0.4-0.3,0.7-0.7,0.7
	h-4.7v2.5h4.7c0.4,0,0.7,0.3,0.7,0.7V21c0,0.4-0.3,0.7-0.7,0.7h-8.3c-0.4,0-0.7-0.3-0.7-0.7V6.3C119.6,5.9,119.9,5.6,120.3,5.6
	L120.3,5.6z M127.9,7H121v13.3h6.9V19h-4.7c-0.4,0-0.7-0.3-0.7-0.7v-3.9c0-0.4,0.3-0.7,0.7-0.7h4.7v-1.3h-4.7
	c-0.4,0-0.7-0.3-0.7-0.7V9.1c0-0.4,0.3-0.7,0.7-0.7h4.7V7L127.9,7z M145.9,9.2l-2,1.9c-0.3,0.3-0.7,0.3-1,0l0,0
	c-0.6-0.6-1.2-1-1.9-1.3l0,0c-0.6-0.3-1.3-0.4-2.1-0.4c-0.7,0-1.3,0.1-1.8,0.3c-0.5,0.2-1,0.5-1.5,0.9l0,0c-0.4,0.4-0.8,0.9-1,1.4
	c-0.2,0.5-0.3,1-0.3,1.6c0,0.6,0.1,1.2,0.3,1.7l0,0c0.2,0.5,0.6,1,1,1.4l0,0c0.5,0.4,1,0.7,1.5,1c0.6,0.2,1.2,0.3,1.9,0.3
	c0.4,0,0.8,0,1.2-0.1l0,0c0.3-0.1,0.6-0.2,0.9-0.4c0.3-0.2,0.5-0.4,0.7-0.6h-3.1c-0.4,0-0.7-0.3-0.7-0.7v-2.6c0-0.4,0.3-0.7,0.7-0.7
	h7.7c0.4,0,0.7,0.3,0.7,0.7c0,0.2,0,0.4,0,0.6c0,0.7-0.1,1.4-0.3,2.1c-0.2,0.7-0.5,1.3-0.9,1.9c-0.4,0.6-0.8,1.2-1.3,1.7
	c-0.5,0.5-1,0.9-1.7,1.2c-0.6,0.3-1.3,0.6-2,0.8c-0.7,0.2-1.5,0.2-2.2,0.2c-0.8,0-1.6-0.1-2.4-0.3c-0.8-0.2-1.5-0.5-2.2-0.8
	c-0.7-0.4-1.3-0.8-1.8-1.3c-0.5-0.5-1-1.1-1.4-1.8c-0.4-0.7-0.7-1.4-0.9-2.1c-0.2-0.7-0.3-1.5-0.3-2.2c0-1.1,0.2-2,0.5-3
	c0.4-0.9,0.9-1.8,1.6-2.6c0.9-0.9,1.9-1.6,3-2.1c1.1-0.5,2.4-0.7,3.7-0.7c0.7,0,1.4,0.1,2.1,0.2c0.7,0.1,1.3,0.3,1.9,0.6
	c0.5,0.2,1.1,0.5,1.6,0.9c0.5,0.4,1,0.8,1.5,1.3C146.2,8.5,146.2,9,145.9,9.2L145.9,9.2z M143.4,9.7l1-1c-0.3-0.3-0.6-0.5-0.8-0.7
	c-0.4-0.3-0.9-0.6-1.3-0.7c-0.5-0.2-1.1-0.4-1.6-0.5c-0.6-0.1-1.2-0.2-1.8-0.2c-1.2,0-2.2,0.2-3.2,0.6c-0.9,0.4-1.8,1-2.5,1.8
	c-0.6,0.7-1.1,1.4-1.4,2.1c-0.3,0.8-0.5,1.6-0.5,2.5c0,0.7,0.1,1.3,0.2,1.9c0.2,0.6,0.4,1.2,0.7,1.7c0.3,0.6,0.7,1.1,1.2,1.5
	c0.4,0.4,0.9,0.8,1.5,1.1c0.6,0.3,1.2,0.5,1.8,0.7c0.6,0.2,1.3,0.2,2.1,0.2c0.7,0,1.3-0.1,1.9-0.2c0.6-0.1,1.1-0.3,1.6-0.6
	c0.5-0.3,0.9-0.6,1.3-1c0.4-0.4,0.8-0.9,1.1-1.4l0,0c0.3-0.5,0.5-1.1,0.7-1.6c0.1-0.5,0.2-1.1,0.2-1.6h-6.2v1.2h3.7
	c0.1,0,0.2,0,0.3,0.1c0.4,0.2,0.5,0.6,0.3,0.9c-0.2,0.5-0.5,0.9-0.8,1.3c-0.3,0.4-0.7,0.7-1.1,0.9c-0.4,0.2-0.8,0.4-1.3,0.5l0,0
	c-0.5,0.1-1,0.2-1.6,0.2c-0.9,0-1.7-0.1-2.4-0.4c-0.7-0.3-1.4-0.7-2-1.3l0,0c-0.6-0.5-1-1.2-1.3-1.8l0,0c-0.3-0.7-0.5-1.4-0.5-2.2
	c0-0.8,0.1-1.5,0.4-2.2c0.3-0.7,0.7-1.3,1.3-1.8c0.6-0.5,1.2-1,1.9-1.2c0.7-0.3,1.5-0.4,2.3-0.4c0.9,0,1.8,0.2,2.7,0.5l0,0
	C142.2,8.8,142.8,9.2,143.4,9.7L143.4,9.7z M153.8,5.6L153.8,5.6c-0.3,0-0.6,0.2-0.7,0.4l-5.9,14.6c0,0.1-0.1,0.2-0.1,0.3
	c0,0.4,0.3,0.7,0.7,0.7h3c0.3,0,0.6-0.2,0.7-0.4l1.1-2.6h5.2l1,2.5c0.1,0.3,0.4,0.5,0.7,0.5l3,0c0.1,0,0.2,0,0.3,0
	c0.4-0.1,0.6-0.5,0.4-0.9l-5.9-14.7c-0.1-0.3-0.4-0.5-0.7-0.5H153.8L153.8,5.6z M156.2,7l5.3,13.3h-1.5l-1-2.6
	c-0.1-0.3-0.4-0.5-0.7-0.5h-6.2c-0.3,0-0.6,0.2-0.7,0.5l-1.1,2.6H149L154.3,7H156.2L156.2,7z M155.3,12.1l1,2.4h-1.9L155.3,12.1
	L155.3,12.1z M152.6,15l2-5c0.1-0.2,0.2-0.3,0.4-0.4c0.4-0.1,0.8,0,0.9,0.4l2,5c0,0.1,0.1,0.2,0.1,0.3c0,0.4-0.3,0.7-0.7,0.7h-4.1
	c-0.1,0-0.2,0-0.3,0C152.6,15.8,152.4,15.4,152.6,15L152.6,15z M173.3,8.9l-2.1,1.8c-0.3,0.3-0.8,0.2-1-0.1l-0.1-0.1
	c-0.3-0.4-0.6-0.8-1-1c-0.3-0.2-0.5-0.3-0.8-0.3c-0.1,0-0.2,0-0.3,0c-0.1,0-0.1,0.1-0.2,0.1c0,0-0.1,0.1-0.1,0.1l0,0
	c0,0,0,0.1,0,0.1l0,0c0,0,0,0.1,0.1,0.1c0.1,0.1,0.3,0.3,0.6,0.6c0.3,0.3,0.8,0.7,1.4,1.2l0,0c0.6,0.5,1,0.8,1.3,1.1
	c0.4,0.3,0.6,0.5,0.7,0.6l0,0c0.3,0.3,0.6,0.6,0.8,0.9c0.2,0.3,0.4,0.6,0.6,0.9c0.1,0.3,0.3,0.6,0.3,1c0.1,0.3,0.1,0.7,0.1,1
	c0,0.7-0.1,1.3-0.4,1.9c-0.3,0.6-0.6,1.1-1.1,1.6l0,0c-0.5,0.5-1.1,0.8-1.7,1c-0.6,0.2-1.4,0.3-2.1,0.3c-0.6,0-1.2-0.1-1.7-0.2
	c-0.5-0.1-1.1-0.4-1.5-0.7c-0.5-0.3-0.9-0.7-1.3-1.1c-0.4-0.4-0.7-1-1-1.6c-0.2-0.3,0-0.7,0.3-0.9l2.4-1.4c0.3-0.2,0.8-0.1,1,0.2
	l0,0c0.3,0.6,0.7,1,1,1.2c0.3,0.2,0.6,0.3,0.9,0.3c0.2,0,0.3,0,0.4-0.1c0.1,0,0.2-0.1,0.3-0.2c0.1-0.1,0.2-0.2,0.2-0.2
	c0-0.1,0-0.1,0-0.2c0-0.1,0-0.2,0-0.3c0-0.1-0.1-0.2-0.2-0.3c-0.1-0.1-0.3-0.3-0.5-0.5c-0.3-0.2-0.6-0.5-1-0.9l0,0
	c-0.8-0.7-1.5-1.2-2.1-1.7c-0.6-0.5-1-1-1.3-1.4l0,0c-0.3-0.4-0.5-0.8-0.6-1.2c-0.1-0.4-0.2-0.9-0.2-1.3c0-0.6,0.1-1.2,0.4-1.7
	c0.2-0.5,0.6-1,1.1-1.4l0,0c0.5-0.4,1-0.7,1.6-1c0.6-0.2,1.2-0.3,1.9-0.3c0.4,0,0.9,0,1.3,0.1c0.4,0.1,0.8,0.2,1.2,0.4l0,0
	c0.4,0.2,0.8,0.5,1.2,0.8c0.4,0.3,0.8,0.7,1.2,1.2C173.7,8.2,173.6,8.6,173.3,8.9L173.3,8.9L173.3,8.9z M170.8,9.1l1-0.9
	c-0.2-0.2-0.4-0.4-0.6-0.6c-0.3-0.3-0.6-0.5-0.9-0.6l0,0c-0.3-0.1-0.6-0.3-0.9-0.3c-0.3-0.1-0.6-0.1-0.9-0.1c-0.5,0-1,0.1-1.4,0.2
	c-0.4,0.1-0.8,0.4-1.1,0.7l0,0c-0.3,0.3-0.6,0.6-0.7,1c-0.2,0.3-0.2,0.7-0.2,1.1c0,0.3,0,0.6,0.1,0.8c0.1,0.3,0.2,0.6,0.4,0.9l0,0
	c0.2,0.3,0.6,0.7,1.1,1.2c0.5,0.5,1.2,1,2,1.7l0,0c0.4,0.3,0.8,0.7,1.1,0.9c0.3,0.3,0.5,0.5,0.7,0.7c0.2,0.2,0.3,0.4,0.4,0.7
	c0.1,0.2,0.1,0.5,0.1,0.7c0,0.3-0.1,0.6-0.2,0.8c-0.1,0.2-0.3,0.5-0.6,0.7c-0.2,0.2-0.5,0.3-0.8,0.4c-0.3,0.1-0.6,0.1-0.9,0.1
	c-0.6,0-1.2-0.2-1.8-0.6c-0.3-0.3-0.7-0.6-1-1l-1.2,0.7c0.2,0.3,0.4,0.5,0.5,0.7c0.3,0.3,0.6,0.6,1,0.9c0.3,0.2,0.7,0.4,1.1,0.5
	c0.4,0.1,0.8,0.2,1.3,0.2c0.6,0,1.2-0.1,1.6-0.3c0.5-0.2,0.9-0.4,1.2-0.7c0.4-0.3,0.6-0.7,0.8-1.1c0.2-0.4,0.3-0.9,0.3-1.4
	c0-0.3,0-0.5-0.1-0.8c-0.1-0.2-0.1-0.5-0.2-0.7c-0.1-0.2-0.2-0.4-0.4-0.7c-0.2-0.2-0.4-0.5-0.7-0.7l0,0c-0.1-0.1-0.3-0.3-0.6-0.6
	c-0.3-0.3-0.8-0.6-1.3-1.1l0,0c-0.6-0.5-1.1-0.9-1.4-1.2c-0.4-0.3-0.7-0.6-0.8-0.8l0,0c-0.1-0.2-0.2-0.3-0.3-0.5l0,0
	c-0.1-0.2-0.1-0.4-0.1-0.6c0-0.2,0.1-0.4,0.1-0.6l0-0.1c0.1-0.2,0.3-0.4,0.4-0.5c0.2-0.2,0.4-0.3,0.7-0.4c0.2-0.1,0.5-0.1,0.7-0.1
	c0.5,0,1.1,0.2,1.6,0.5C170.3,8.6,170.5,8.8,170.8,9.1L170.8,9.1z M174.4,5.6c-0.4,0-0.7,0.3-0.7,0.7v2.8c0,0.4,0.3,0.7,0.7,0.7h2
	V21c0,0.4,0.3,0.7,0.7,0.7h2.9c0.4,0,0.7-0.3,0.7-0.7V9.8h2.1c0.4,0,0.7-0.3,0.7-0.7V6.3c0-0.4-0.3-0.7-0.7-0.7H174.4L174.4,5.6z
	 M182.1,7v1.4H180c-0.4,0-0.7,0.3-0.7,0.7v11.2h-1.5V9.1c0-0.4-0.3-0.7-0.7-0.7h-2V7H182.1L182.1,7z M192,5.3c1.2,0,2.3,0.2,3.3,0.6
	c1,0.4,1.9,1,2.8,1.8c0.8,0.8,1.5,1.7,1.9,2.7c0.4,1,0.6,2.1,0.6,3.3c0,1.2-0.2,2.2-0.6,3.2c-0.4,1-1,1.9-1.9,2.7
	c-0.8,0.8-1.8,1.4-2.8,1.8c-1,0.4-2.1,0.6-3.3,0.6c-1.2,0-2.4-0.2-3.4-0.6c-1-0.4-2-1-2.8-1.9c-0.8-0.8-1.4-1.7-1.9-2.7
	c-0.4-1-0.6-2.1-0.6-3.2c0-0.8,0.1-1.5,0.3-2.2c0.2-0.7,0.5-1.4,0.9-2c0.4-0.6,0.8-1.2,1.4-1.7c0.5-0.5,1.1-1,1.8-1.3
	c0.7-0.4,1.4-0.7,2.1-0.8C190.5,5.3,191.2,5.3,192,5.3L192,5.3z M194.7,7.2c-0.8-0.3-1.7-0.5-2.7-0.5c-0.7,0-1.3,0.1-1.9,0.2
	c-0.6,0.2-1.2,0.4-1.7,0.7c-0.6,0.3-1.1,0.7-1.5,1.1c-0.4,0.4-0.8,0.9-1.1,1.4c-0.3,0.5-0.6,1.1-0.7,1.7c-0.2,0.6-0.2,1.2-0.2,1.8
	c0,1,0.2,1.9,0.5,2.7c0.3,0.8,0.9,1.6,1.6,2.3c0.7,0.7,1.5,1.2,2.3,1.6c0.9,0.3,1.8,0.5,2.9,0.5c1,0,1.9-0.2,2.8-0.5
	c0.8-0.3,1.6-0.8,2.3-1.5c0.7-0.7,1.2-1.4,1.6-2.2c0.3-0.8,0.5-1.7,0.5-2.7c0-1-0.2-1.9-0.5-2.7c-0.4-0.8-0.9-1.6-1.6-2.3
	C196.4,8,195.6,7.5,194.7,7.2L194.7,7.2z M192,9.4c-0.6,0-1.2,0.1-1.7,0.3c-0.5,0.2-1,0.5-1.4,0.9l0,0c-0.4,0.4-0.7,0.9-0.9,1.4
	c-0.2,0.5-0.3,1.1-0.3,1.7c0,0.7,0.1,1.3,0.4,1.9c0.3,0.5,0.6,1,1.2,1.4c0.4,0.3,0.8,0.6,1.3,0.7c0.5,0.2,1,0.2,1.5,0.2
	c0.6,0,1.1-0.1,1.6-0.3c0.5-0.2,1-0.5,1.4-0.9c0.4-0.4,0.7-0.9,0.9-1.4c0.2-0.5,0.3-1.1,0.3-1.7c0-1.2-0.4-2.2-1.3-3.1l0,0
	c-0.4-0.4-0.9-0.7-1.4-0.9C193.1,9.5,192.6,9.4,192,9.4L192,9.4z M189.8,8.4c-0.7,0.3-1.3,0.7-1.8,1.2l0,0c-0.5,0.5-1,1.1-1.2,1.8
	c-0.3,0.7-0.4,1.4-0.4,2.2c0,0.9,0.2,1.7,0.5,2.5c0.3,0.7,0.9,1.4,1.6,1.9c0.5,0.4,1.1,0.7,1.7,0.9c0.6,0.2,1.3,0.3,2,0.3
	c0.8,0,1.5-0.1,2.2-0.4c0.7-0.3,1.3-0.7,1.8-1.2l0,0c0.6-0.5,1-1.2,1.2-1.8c0.3-0.7,0.4-1.4,0.4-2.2c0-1.6-0.6-2.9-1.7-4
	c-0.6-0.6-1.2-1-1.9-1.2C193.5,8.1,192.8,8,192,8C191.2,8,190.4,8.1,189.8,8.4L189.8,8.4z M202.8,5.6h3.1c0.9,0,1.6,0,2.3,0.1
	c0.7,0.1,1.2,0.2,1.6,0.4c0.4,0.2,0.8,0.4,1.2,0.7l0,0c0.3,0.3,0.6,0.6,0.9,1c0.3,0.4,0.4,0.8,0.6,1.3c0.1,0.5,0.2,1,0.2,1.5
	c0,0.5-0.1,1.1-0.2,1.5c-0.1,0.5-0.4,0.9-0.6,1.3c-0.3,0.4-0.6,0.7-1.1,1c-0.2,0.1-0.4,0.3-0.7,0.4l3.2,5.9c0.2,0.3,0.1,0.8-0.3,0.9
	c-0.1,0.1-0.2,0.1-0.3,0.1l-3.2,0c-0.3,0-0.6-0.2-0.7-0.4l-2.3-4.2V21c0,0.4-0.3,0.7-0.7,0.7h-2.9c-0.4,0-0.7-0.3-0.7-0.7V6.3
	C202.1,5.9,202.4,5.6,202.8,5.6L202.8,5.6z M205.9,7h-2.4v13.3h1.4v-5.5c0-0.4,0.3-0.7,0.7-0.7h0.3c0.3,0,0.5,0.1,0.6,0.4l3.2,5.8
	h1.5l-3-5.5l0-0.1c-0.1-0.4,0.1-0.8,0.4-0.9c0.4-0.1,0.8-0.3,1.1-0.5c0.3-0.2,0.5-0.4,0.7-0.7c0.2-0.3,0.3-0.6,0.4-0.9
	c0.1-0.3,0.1-0.7,0.1-1.1c0-0.4,0-0.8-0.1-1.1c-0.1-0.3-0.2-0.6-0.4-0.9c-0.2-0.3-0.4-0.5-0.6-0.7l0,0c-0.2-0.2-0.5-0.3-0.8-0.5
	c-0.3-0.1-0.7-0.2-1.2-0.3C207.4,7,206.7,7,205.9,7L205.9,7z M206.5,11.4h0.2c0.4,0,0.8,0,1-0.1c0.2,0,0.4-0.1,0.5-0.1
	c0.1,0,0.1-0.1,0.1-0.2c0-0.1,0.1-0.2,0.1-0.4c0-0.1,0-0.2,0-0.3l0,0c0-0.1,0-0.1-0.1-0.2c0-0.1-0.1-0.1-0.2-0.2
	c-0.1,0-0.1-0.1-0.2-0.1l0,0c-0.1,0-0.2-0.1-0.4-0.1l0,0c-0.2,0-0.5,0-0.9,0h-0.1V11.4L206.5,11.4z M206.7,12.8c0.5,0,0.9,0,1.3-0.1
	c0.4-0.1,0.8-0.2,1-0.4c0.3-0.2,0.5-0.4,0.6-0.8c0.1-0.3,0.2-0.6,0.2-1c0-0.2,0-0.4-0.1-0.6l0,0c-0.1-0.2-0.2-0.4-0.3-0.5
	c-0.1-0.2-0.3-0.3-0.5-0.5l0,0c-0.2-0.1-0.4-0.2-0.6-0.3l0,0c-0.2-0.1-0.5-0.1-0.8-0.1l0,0c-0.3,0-0.6,0-1,0h-0.8
	c-0.4,0-0.7,0.3-0.7,0.7v3c0,0.4,0.3,0.7,0.7,0.7H206.7L206.7,12.8z M215,5.6h8.3c0.4,0,0.7,0.3,0.7,0.7v2.7c0,0.4-0.3,0.7-0.7,0.7
	h-4.7V11h4.7c0.4,0,0.7,0.3,0.7,0.7v2.7c0,0.4-0.3,0.7-0.7,0.7h-4.7v2.5h4.7c0.4,0,0.7,0.3,0.7,0.7V21c0,0.4-0.3,0.7-0.7,0.7H215
	c-0.4,0-0.7-0.3-0.7-0.7V6.3C214.2,5.9,214.6,5.6,215,5.6L215,5.6z M222.6,7h-6.9v13.3h6.9V19h-4.7c-0.4,0-0.7-0.3-0.7-0.7v-3.9
	c0-0.4,0.3-0.7,0.7-0.7h4.7v-1.3h-4.7c-0.4,0-0.7-0.3-0.7-0.7V9.1c0-0.4,0.3-0.7,0.7-0.7h4.7V7z"/>
<path class="st6" d="M107,73.2c0.7,0.4,0.5,2.2,0.2,4.3c-0.1,1.2-0.3,2.4-0.3,3.6c0,1.3,0.2,2.6,0.5,3.8c0.4,1.4,0.9,2.6,1.5,3.4
	c1.2,1.9,0.2,4.4-0.8,6.9c-0.6,1.6-1.3,3.2-1.3,4.6c-1.2,0-0.5-1.5-0.2-2.2c0.2-0.8,0.6-1.6,0.9-2.5c1-2.4,1.9-4.8,0.8-6.6
	c-0.5-0.8-1.1-2-1.5-3.5c-0.3-1.2-0.5-2.5-0.5-3.9c0-1.1,0.2-2.4,0.3-3.6c0.2-1.9,0.4-3.6,0-3.9L107,73.2z"/>
<path class="st7" d="M106.8,74.4c9.2,0,16.7-8.9,16.7-19.7c0-10.9-7.5-19.7-16.7-19.7c-9.2,0-16.7,8.9-16.7,19.7
	C90.1,65.5,97.6,74.4,106.8,74.4z"/>
<path class="st8" d="M113.7,36.7c5.8,3.1,9.8,10,9.8,18c0,10.9-7.5,19.7-16.7,19.7c-1.9,0-3.6-0.4-5.3-1c-5.8-3.1-6.4-9.4-6.4-18.8
	c0-9.4,9.2-19.6,14.3-19.4C112,35.6,112.3,36.1,113.7,36.7z"/>
<path class="st8" d="M13.3,88.5l-0.2,0c-0.1,0-0.2,0-0.3-0.1c0,0-0.1-0.2-0.2-0.3c-0.2-0.6-0.3-1-0.3-1.2c0-0.2,0.1-0.3,0.2-0.4
	c0.1-0.1,0.4-0.3,0.9-0.6c0.6-0.4,1.2-0.8,1.7-1.2c0.1-0.1,0.1-0.1,0.2-0.1c0.1,0,0.3,0.2,0.5,0.6c0.3,0.5,0.4,0.8,0.4,0.9
	c0,0.1,0,0.2-0.1,0.4l-0.2,0.8c-0.2,0.8-0.6,1.8-1,2.9c-0.4,1.1-0.8,2.3-1.2,3.7c-0.4,1.1-0.6,1.7-0.6,1.9c-0.1,0.4-0.2,0.6-0.2,0.7
	c-0.1,0.1-0.1,0.2-0.2,0.2c-0.1,0-0.2-0.1-0.4-0.2c-0.1-0.1-0.3-0.2-0.6-0.3c-0.2,0-0.4-0.3-0.5-0.7C11.1,95,11,94.8,11,94.7
	c0-0.4,0.3-1.3,0.9-2.7c0.1-0.1,0.1-0.4,0.3-0.7c0.1-0.3,0.3-0.7,0.4-1.1C12.8,89.5,13.1,89,13.3,88.5L13.3,88.5z M32.1,89.7
	l0.4,0.5l0.2,0.3v0.3c0,0.7-0.3,1.8-0.8,3.4c-0.5,1.6-1.1,2.9-1.7,3.9c-0.3,0.5-0.6,0.9-0.9,1.1c-0.3,0.3-0.7,0.5-1.2,0.7
	c-0.4,0.2-0.7,0.3-0.8,0.3c-0.2,0-0.3-0.1-0.5-0.4c-0.1-0.2-0.2-0.3-0.3-0.5c-0.1-0.2-0.2-0.6-0.2-1.2c0-0.1,0-0.2,0-0.3
	c0,0,0.1-0.1,0.2-0.1c0.1,0,0.1,0,0.2,0c0,0,0.2,0,0.4-0.1l0.6-0.1c0.2,0,0.4-0.1,0.5-0.2c0.1-0.1,0.3-0.2,0.4-0.5
	c0.2-0.3,0.4-0.6,0.6-1.1l-0.4,0.2c-0.5,0.2-0.7,0.3-0.8,0.3c-0.2,0-0.5-0.3-0.8-1c-0.2-0.4-0.3-0.7-0.3-1c0-0.7,0.2-1.6,0.5-2.7
	c0.4-1.1,1-2,1.9-2.8c0.3-0.3,0.6-0.5,0.8-0.6c0.2-0.1,0.5-0.3,1-0.5c0.4-0.2,0.6-0.3,0.7-0.3c0.3,0,0.5,0.3,0.8,0.8
	c0.3,0.5,0.4,0.9,0.4,1c0,0.2-0.1,0.3-0.3,0.4C32.3,89.5,32.2,89.6,32.1,89.7L32.1,89.7z M30.8,90.3c-0.1,0.1-0.2,0.2-0.4,0.2
	c-0.1,0.1-0.2,0.2-0.3,0.3c-0.1,0.1-0.3,0.4-0.5,0.7c-0.2,0.4-0.4,0.7-0.5,1c-0.1,0.3-0.2,0.6-0.3,1c0.1,0,0.2,0,0.3,0l0.7-0.5
	l0.2-0.6C30.4,91.7,30.6,91.1,30.8,90.3L30.8,90.3z M36.2,87.1c0.1,0,0.2,0,0.3,0.1c0.1,0.1,0.2,0.4,0.5,0.9
	c0.1,0.2,0.1,0.2,0.2,0.3c0,0,0.1,0,0.3,0.1c0.2,0,0.3,0,0.5,0.1c0.1,0.1,0.2,0.1,0.3,0.2c0.1,0.1,0.2,0.4,0.2,0.8
	c0.1,0.4,0.1,0.8,0.1,1.3c0,1-0.2,2-0.6,2.9c-0.4,1-1,1.7-1.7,2.2c-0.3,0.2-0.6,0.3-0.8,0.3c-0.3,0-0.6-0.1-0.9-0.3
	c-0.4-0.2-0.6-0.4-0.9-0.7c-0.4-0.5-0.6-1.2-0.6-2c0-0.6,0.1-1.3,0.3-2c0.2-0.7,0.5-1.4,0.8-1.9c0.4-0.6,0.8-1.2,1.3-1.8
	C35.7,87.2,36,87.1,36.2,87.1L36.2,87.1z M36.5,90c-0.1,0-0.2,0.1-0.4,0.5c-0.2,0.3-0.3,0.7-0.5,1.1c-0.1,0.3-0.2,0.7-0.3,1.2
	c-0.1,0.4-0.1,0.7-0.1,0.9c0,0.2,0.1,0.3,0.2,0.3c0.1,0,0.3-0.2,0.5-0.5c0.2-0.3,0.4-0.8,0.6-1.3c0.2-0.6,0.4-1.1,0.4-1.5
	C36.7,90.2,36.6,90,36.5,90L36.5,90z M43.2,88.5c0.3-0.9,0.6-2,1.1-3.3c0.2-0.5,0.3-0.8,0.3-0.9c0.1-0.1,0.1-0.1,0.3-0.1
	c0.3,0,0.4,0,0.5,0.1c0.1,0.1,0.2,0.2,0.2,0.4c0,0.1,0.1,0.2,0.1,0.2l0.2,0.1c0.1,0.1,0.2,0.2,0.3,0.4c0.1,0.2,0.1,0.3,0.1,0.4
	c0,0.1,0,0.3-0.1,0.5l-0.4,1.1c-0.5,1.4-0.8,2.5-1.1,3.2c-0.2,0.6-0.4,1.3-0.6,2.1c-0.1,0.6-0.3,1.2-0.3,1.7c-0.1,0.5-0.1,1-0.2,1.5
	c0,0.2-0.1,0.3-0.1,0.4c-0.1,0.1-0.2,0.1-0.3,0.1c-0.1,0-0.3-0.1-0.6-0.2c-0.3-0.1-0.5-0.2-0.7-0.3c-0.1-0.1-0.2-0.1-0.2-0.2
	c0-0.1-0.1-0.2-0.1-0.5c-0.6,0.6-1,0.9-1.3,0.9c-0.3,0-0.6-0.3-0.9-0.8c-0.2-0.3-0.4-0.6-0.4-0.8c-0.1-0.3-0.1-0.6-0.1-1
	c0-0.6,0.1-1.3,0.3-2c0.2-0.7,0.4-1.3,0.8-1.8c0.4-0.7,1.2-1.4,2.1-2.2l0.2-0.2c0.1-0.1,0.2-0.1,0.3-0.1c0.1,0,0.2,0.2,0.4,0.5
	L43.2,88.5L43.2,88.5z M42.8,90c-0.4,0.4-0.8,0.9-1.1,1.4c-0.2,0.4-0.4,0.8-0.5,1.1C41,92.8,41,93.1,41,93.4c0,0.2,0.1,0.3,0.2,0.3
	c0.1,0,0.4-0.2,0.8-0.7C42.1,92.5,42.3,91.5,42.8,90L42.8,90z M48.3,84c0.1,0,0.1,0,0.2,0.1l0.6,0.5l0.5,0.4
	c0.2,0.1,0.3,0.3,0.3,0.5c0,0.2-0.1,0.4-0.2,0.6c-0.1,0.2-0.2,0.3-0.2,0.5c-0.1,0.1-0.1,0.3-0.2,0.5c-0.1,0.5-0.3,0.7-0.4,0.7
	c-0.1,0-0.5-0.3-1-0.8c-0.3-0.3-0.4-0.5-0.4-0.8c0-0.1,0.1-0.4,0.2-0.9c0.1-0.4,0.2-0.7,0.3-0.9C48,84.2,48.1,84,48.3,84L48.3,84z
	 M47.3,87.7c-0.1,0-0.3,0.2-0.4,0.5c-0.1,0.3-0.5,1.3-0.9,2.8c-0.7,2.2-1.1,3.5-1.1,3.8c0,0.2,0,0.3,0.1,0.5
	c0.1,0.1,0.1,0.2,0.2,0.3c0,0,0.1,0.1,0.3,0.1c0.2,0.1,0.4,0.2,0.5,0.3c0.1,0.2,0.3,0.3,0.4,0.3c0.2,0,0.3-0.1,0.4-0.2
	c0.1-0.1,0.2-0.3,0.2-0.5l0.1-0.5l0.1-0.5c0.3-1.2,0.5-2.1,0.8-2.9c0.2-0.7,0.4-1.2,0.5-1.5l0.2-0.6c0-0.1,0-0.2,0-0.3
	c0-0.3-0.2-0.7-0.7-1.2c-0.2-0.2-0.3-0.3-0.5-0.4C47.4,87.7,47.3,87.7,47.3,87.7L47.3,87.7z M51.7,88.6c0-0.3,0-0.5-0.1-0.5
	c-0.1-0.1-0.2-0.2-0.6-0.3l-0.4-0.2c-0.1-0.1-0.2-0.1-0.3-0.1c-0.1,0-0.2,0.1-0.3,0.2C50.1,87.7,50,88,50,88.3
	c-0.1,0.6-0.2,1.1-0.3,1.5c-0.1,0.4-0.3,0.9-0.5,1.4c-0.2,0.5-0.3,0.9-0.4,1.2c-0.1,0.3-0.2,0.6-0.3,0.8l-0.2,0.6
	c-0.1,0.4-0.2,0.7-0.2,0.8c0,0.1,0,0.3,0.1,0.4c0.1,0.1,0.2,0.3,0.5,0.5c0.5,0.4,0.8,0.7,1,0.7c0.1,0,0.2-0.1,0.2-0.3
	c0.1-0.2,0.2-0.5,0.3-1.1c0.2-0.6,0.4-1.6,0.9-3c0.2-0.6,0.3-0.9,0.3-1c0.1-0.1,0.2-0.2,0.3-0.2c0.1-0.1,0.2-0.1,0.3-0.1
	c0.1,0,0.1,0,0.1,0.1c0,0,0.1,0.1,0.1,0.2c0,0.2-0.1,0.5-0.2,1c-0.1,0.2-0.2,0.5-0.3,1c-0.2,0.7-0.4,1.2-0.5,1.5
	c-0.1,0.2-0.2,0.4-0.2,0.5c0,0.1-0.1,0.2-0.1,0.3l0,0.2c0,0.1,0.1,0.3,0.4,0.6c0.3,0.4,0.6,0.6,0.7,0.6c0,0,0.1,0,0.2,0
	c0.1,0,0.1,0,0.2-0.1c0.2-0.1,0.3-0.2,0.4-0.2c0.1-0.1,0.2-0.5,0.4-1.1c0.2-0.6,0.4-1.4,0.6-2.2c0.2-1,0.4-1.7,0.4-1.9
	c0-0.2,0.1-0.5,0.1-0.7c0-0.6-0.2-1.1-0.5-1.7c-0.3-0.5-0.6-0.8-0.8-0.8C52.9,87.7,52.5,88,51.7,88.6L51.7,88.6z M61.2,88.5
	c-0.5,1.3-0.9,2.5-1.2,3.5c-0.3,1.1-0.4,2.1-0.4,2.9c0,0.3,0,0.5,0,0.7c0,0.2-0.1,0.3-0.1,0.4c-0.1,0.2-0.2,0.3-0.4,0.3
	c-0.1,0-0.5-0.1-1.1-0.4c-0.2-0.1-0.4-0.2-0.4-0.2c0,0-0.1-0.1-0.1-0.2l0-0.2c-0.2,0.2-0.4,0.3-0.4,0.3c-0.2,0.1-0.3,0.2-0.5,0.3
	c-0.1,0.1-0.3,0.1-0.5,0.1c-0.2,0-0.5-0.2-0.8-0.6c-0.5-0.6-0.7-1.3-0.7-2c0-0.9,0.2-1.8,0.5-2.6c0.3-0.9,0.8-1.6,1.3-2.3
	c0.4-0.5,0.9-0.9,1.3-1.2c0.3-0.2,0.5-0.3,0.6-0.3c0.1,0,0.3,0.2,0.5,0.6l0.2,0.5l0.1-0.3c0.1-0.3,0.2-0.5,0.3-0.6
	c0.1-0.1,0.2-0.2,0.3-0.2C60,87.2,60.5,87.6,61.2,88.5L61.2,88.5z M57.8,92.5l0.3-1.1c0.1-0.3,0.2-0.7,0.3-1.1
	c-0.2,0-0.3,0.1-0.5,0.2c-0.2,0.1-0.3,0.3-0.5,0.6c-0.2,0.3-0.3,0.7-0.5,1.1c-0.1,0.4-0.2,0.7-0.2,0.9c0,0.1,0,0.2,0.1,0.2
	c0.1,0,0.1,0,0.2-0.1C57.2,93.2,57.4,92.9,57.8,92.5L57.8,92.5z M66.7,93.4c0,0-0.1-0.1-0.1-0.2c0-0.1-0.1-0.1-0.1-0.1L66,92.7
	c-0.5-0.4-0.7-0.9-0.7-1.7c0-1.2,0.5-2.1,1.5-2.7c0.7-0.5,1.3-0.7,1.9-0.7c0.4,0,0.8,0.2,1.1,0.6c0.2,0.2,0.3,0.5,0.3,0.9
	c0,0.2,0,0.4-0.1,0.7c0,0.2-0.1,0.4-0.1,0.5c-0.1,0.1-0.2,0.2-0.5,0.3c-0.3,0.1-0.5,0.1-0.7,0.1c-0.1,0-0.2-0.1-0.2-0.2v-0.2l0-0.2
	c0-0.2-0.1-0.3-0.2-0.3c-0.1,0-0.2,0.1-0.5,0.3c-0.2,0.1-0.3,0.3-0.3,0.4c0,0.1,0.1,0.3,0.3,0.4c0.5,0.3,0.8,0.7,1,0.9
	c0.2,0.3,0.3,0.7,0.3,1.2c0,0.5-0.1,1-0.4,1.5c-0.2,0.4-0.6,0.9-1.1,1.3c-0.6,0.5-1.2,0.8-1.6,0.8c-0.4,0-0.8-0.2-1.3-0.7
	c-0.5-0.5-0.7-0.9-0.7-1.3c0-0.2,0.1-0.6,0.4-1c0.2-0.4,0.4-0.7,0.6-0.7c0.1,0,0.3,0.2,0.4,0.6c0.1,0.4,0.3,0.6,0.6,0.6
	C66.1,94,66.3,93.8,66.7,93.4L66.7,93.4z M76.1,92.3c0.3-0.6,0.6-1.1,0.8-1.6c0.1-0.2,0.2-0.6,0.4-1c0.1-0.4,0.3-0.9,0.5-1.4
	c0.3-0.8,0.5-1.5,0.7-2c0.1-0.4,0.3-1,0.4-1.8c0.1-0.4,0.3-0.6,0.5-0.6c0.2,0,0.5,0.1,0.7,0.4c0,0.1,0.2,0.3,0.4,0.8
	c0,0,0,0.1,0,0.1c0,0.1,0.1,0.2,0.2,0.3c0.2,0.2,0.2,0.5,0.2,0.7c0,0.3-0.1,0.7-0.3,1.3c-0.2,0.6-0.4,1.2-0.7,1.8
	c-0.4,0.8-0.7,1.6-1,2.1c-0.3,0.6-0.7,1.4-1.3,2.3l-0.7,1.2c-0.5,0.9-0.9,1.3-1.1,1.3c-0.2,0-0.5-0.2-1-0.7
	c-0.4-0.4-0.6-0.8-0.6-1.1c0-0.1,0-0.3,0-0.5c0-0.2,0.1-0.9,0.3-2.2c0.1-1.3,0.3-2.4,0.4-3.3c0.1-0.6,0.2-1.2,0.2-1.7
	c0.1-0.5,0.1-0.9,0.1-1.2c0-0.2,0-0.4,0-0.5c0-0.1,0.1-0.3,0.1-0.4c0.1-0.2,0.2-0.3,0.5-0.4c0.3-0.1,0.5-0.2,0.6-0.2
	c0.1,0,0.4,0.2,1,0.7c0.1,0.1,0.2,0.2,0.2,0.2c0,0.1,0,0.2,0,0.3c0,0.3,0,0.6-0.1,1.1l-1,5L76.1,92.3L76.1,92.3z M86.1,88.5
	c-0.7-0.9-1.2-1.3-1.6-1.3c-0.1,0-0.3,0.1-0.3,0.2c-0.1,0.1-0.2,0.3-0.3,0.6l-0.1,0.3l-0.2-0.5c-0.2-0.4-0.3-0.6-0.5-0.6
	c-0.1,0-0.3,0.1-0.6,0.3c-0.4,0.3-0.9,0.7-1.3,1.2c-0.6,0.7-1,1.4-1.3,2.3c-0.3,0.9-0.5,1.7-0.5,2.6c0,0.7,0.2,1.4,0.7,2
	c0.3,0.4,0.6,0.6,0.8,0.6c0.2,0,0.3,0,0.5-0.1c0.1-0.1,0.3-0.2,0.5-0.3c0.1-0.1,0.2-0.2,0.4-0.3l0,0.2c0,0.1,0,0.2,0.1,0.2
	c0,0,0.2,0.1,0.4,0.2c0.6,0.3,1,0.4,1.1,0.4c0.2,0,0.3-0.1,0.4-0.3c0-0.1,0.1-0.2,0.1-0.4c0-0.2,0-0.4,0-0.7c0-0.8,0.1-1.8,0.4-2.9
	C85.1,91,85.5,89.8,86.1,88.5L86.1,88.5z M82.7,92.5c-0.4,0.4-0.6,0.7-0.7,0.7c-0.1,0.1-0.1,0.1-0.2,0.1c-0.1,0-0.1-0.1-0.1-0.2
	c0-0.2,0.1-0.5,0.2-0.9c0.1-0.4,0.3-0.8,0.5-1.1c0.2-0.3,0.3-0.5,0.5-0.6c0.2-0.1,0.3-0.2,0.5-0.2c-0.1,0.4-0.3,0.8-0.3,1.1
	L82.7,92.5L82.7,92.5z M91.7,88.7c0.6-0.5,1.1-0.7,1.4-0.7c0.3,0,0.6,0.3,0.9,0.8c0.3,0.5,0.4,1,0.4,1.4c0,0.2,0,0.4,0,0.6
	c0,0.2-0.1,0.5-0.1,0.8c-0.1,0.6-0.4,1.6-0.8,3.2c-0.1,0.6-0.2,0.9-0.2,1c0,0.2-0.1,0.4-0.1,0.5c-0.1,0.2-0.3,0.3-0.5,0.3
	c-0.2,0-0.4-0.1-0.6-0.4l-0.4-0.4c-0.2-0.2-0.3-0.4-0.3-0.6c0-0.1,0.1-0.6,0.3-1.4c0.4-1.2,0.6-1.9,0.6-2.2c0.1-0.4,0.1-0.6,0.1-0.7
	c0-0.1,0-0.2-0.1-0.2c-0.1,0-0.3,0.2-0.7,0.5c0,0.2-0.1,0.5-0.2,0.9c-0.1,0.4-0.2,0.8-0.3,1.2c-0.1,0.4-0.3,1-0.5,1.7
	c-0.1,0.3-0.2,0.7-0.3,1c-0.1,0.4-0.2,0.5-0.4,0.5c-0.1,0-0.2-0.1-0.4-0.2c-0.1-0.1-0.3-0.1-0.5-0.2c-0.1,0-0.2,0-0.2-0.1l-0.1-0.3
	l-0.3-0.7c0-0.1,0-0.2,0-0.3c0-0.1,0.1-0.5,0.3-1c0.6-1.6,0.9-2.6,0.9-2.9c0-0.2-0.1-0.2-0.2-0.2c-0.2,0-0.4,0.2-0.7,0.5l-0.8,2.8
	l-0.5,1.8c-0.1,0.3-0.1,0.4-0.2,0.5c-0.1,0.1-0.2,0.1-0.4,0.1c-0.1,0-0.3,0-0.4-0.1c-0.1-0.1-0.3-0.3-0.5-0.6
	c-0.3-0.4-0.4-0.7-0.4-1c0-0.2,0-0.3,0.1-0.5c0.1-0.2,0.2-0.8,0.6-1.7c0.1-0.1,0.1-0.3,0.2-0.6c0.1-0.3,0.2-0.6,0.3-0.9
	c0.1-0.2,0.1-0.5,0.3-0.9c0.1-0.3,0.1-0.4,0.1-0.5l0.4-1.5c0-0.2,0.1-0.3,0.1-0.4c0.1-0.1,0.1-0.1,0.3-0.1c0.4,0,0.9,0.4,1.5,1.2
	c0.8-0.6,1.3-0.9,1.6-0.9c0.2,0,0.3,0.1,0.4,0.2C91.4,87.9,91.5,88.2,91.7,88.7L91.7,88.7z M101.3,88.5c-0.5,1.3-0.9,2.5-1.2,3.5
	c-0.3,1.1-0.4,2.1-0.4,2.9c0,0.3,0,0.5,0,0.7c0,0.2-0.1,0.3-0.1,0.4c-0.1,0.2-0.2,0.3-0.4,0.3c-0.1,0-0.5-0.1-1.1-0.4
	c-0.2-0.1-0.4-0.2-0.4-0.2c0,0-0.1-0.1-0.1-0.2l0-0.2c-0.2,0.2-0.4,0.3-0.4,0.3c-0.2,0.1-0.3,0.2-0.5,0.3c-0.1,0.1-0.3,0.1-0.5,0.1
	c-0.2,0-0.5-0.2-0.8-0.6c-0.5-0.6-0.7-1.3-0.7-2c0-0.9,0.2-1.8,0.5-2.6c0.3-0.9,0.8-1.6,1.3-2.3c0.4-0.5,0.9-0.9,1.3-1.2
	c0.3-0.2,0.5-0.3,0.6-0.3c0.1,0,0.3,0.2,0.5,0.6l0.2,0.5l0.1-0.3c0.1-0.3,0.2-0.5,0.3-0.6c0.1-0.1,0.2-0.2,0.3-0.2
	C100,87.2,100.6,87.6,101.3,88.5L101.3,88.5z M97.9,92.5l0.3-1.1c0.1-0.3,0.2-0.7,0.3-1.1c-0.2,0-0.3,0.1-0.5,0.2
	c-0.2,0.1-0.3,0.3-0.5,0.6c-0.2,0.3-0.3,0.7-0.5,1.1c-0.1,0.4-0.2,0.7-0.2,0.9c0,0.1,0,0.2,0.1,0.2c0.1,0,0.1,0,0.2-0.1
	C97.2,93.2,97.5,92.9,97.9,92.5L97.9,92.5z M20.6,88.7c0.1,0,0.2,0,0.3,0c0.1,0,0.2,0,0.3,0l0.2,0c0.2,0,0.4,0,0.5,0.1
	c0.1,0.1,0.3,0.3,0.4,0.6c0.3,0.7,0.5,1.3,0.5,1.9c0,0.4,0,0.8-0.1,1.1c-0.1,0.4-0.2,0.7-0.3,1.1c-0.5,1.2-1.2,2.1-2.1,2.6
	c-0.2,0.1-0.4,0.2-0.5,0.2c-0.2,0.1-0.4,0.1-0.5,0.1c-0.6,0-1.2-0.4-1.7-1.1c-0.3-0.4-0.4-0.7-0.6-1c-0.1-0.3-0.2-0.7-0.2-1.1
	c0-1.8,0.5-3.6,1.5-5.3c0.7-1.3,1.5-2.3,2.4-3.1c0.5-0.5,0.9-0.7,1.2-0.7c0.2,0,0.5,0.3,0.9,0.8c0.3,0.4,0.5,0.7,0.5,0.9
	c0,0.2-0.1,0.3-0.3,0.4C22.1,86.5,21.3,87.4,20.6,88.7L20.6,88.7z M19.5,91.6c0,0.1,0,0.2-0.1,0.3c0,0.2-0.1,0.3-0.1,0.5
	c-0.1,0.4-0.1,0.7-0.1,1c0,0.2,0.1,0.3,0.2,0.3c0.2,0,0.4-0.3,0.8-1c0.4-0.6,0.5-1.1,0.5-1.4c0-0.2-0.1-0.3-0.3-0.3
	c-0.1,0-0.3,0-0.5,0.1l-0.2,0.2L19.5,91.6z"/>
<path class="st1" d="M99.8,52.6l-0.3,0c-0.2,0-0.4,0-0.5-0.1c-0.1-0.1-0.2-0.2-0.4-0.5c-0.5-1-0.7-1.7-0.8-2c0-0.3,0-0.5,0.2-0.7
	c0.1-0.2,0.6-0.6,1.3-1.3c0.9-0.8,1.8-1.6,2.5-2.4c0.1-0.1,0.2-0.2,0.3-0.2c0.2,0,0.6,0.2,1.1,0.8c0.6,0.7,0.9,1.2,1,1.4
	c0,0.1,0,0.3,0,0.6l-0.2,1.4c-0.2,1.4-0.5,3.1-0.9,5.2c-0.3,1.9-0.7,4.1-1.2,6.6c-0.4,1.9-0.6,3-0.6,3.4c-0.1,0.6-0.2,1-0.2,1.3
	c-0.1,0.2-0.2,0.3-0.4,0.4c-0.2,0-0.4-0.1-0.7-0.3c-0.3-0.2-0.6-0.3-1-0.3c-0.4,0-0.8-0.4-1.1-1c-0.2-0.4-0.3-0.8-0.4-1
	c-0.1-0.6,0.2-2.2,0.8-4.9c0.1-0.2,0.1-0.6,0.3-1.2c0.1-0.6,0.3-1.2,0.4-1.9C99.4,54.6,99.6,53.5,99.8,52.6L99.8,52.6z M112.3,51.1
	c0.2,0,0.3-0.1,0.5-0.1c0.2-0.1,0.4-0.1,0.5-0.2l0.4-0.1c0.4-0.1,0.7,0,0.9,0.1c0.2,0.1,0.5,0.4,0.9,0.9c0.8,1,1.2,2.1,1.3,3
	c0.1,0.6,0.1,1.3,0.1,1.9c0,0.6-0.1,1.3-0.3,2c-0.5,2.2-1.5,3.9-2.9,5c-0.3,0.2-0.6,0.4-0.9,0.6c-0.3,0.1-0.6,0.2-0.8,0.3
	c-1,0.2-2.1-0.3-3.2-1.5c-0.5-0.6-0.9-1.1-1.2-1.6c-0.3-0.5-0.4-1.2-0.6-1.9c-0.5-3-0.1-6.2,1.1-9.4c0.8-2.3,1.9-4.3,3.2-5.9
	c0.7-0.9,1.4-1.4,1.8-1.5c0.4-0.1,1,0.3,1.8,1.1c0.6,0.6,0.9,1.1,1,1.4c0,0.3-0.1,0.5-0.4,0.7C114.3,47.1,113.2,48.8,112.3,51.1
	L112.3,51.1z M111.2,56.3c0,0.1,0,0.3,0,0.6c0,0.3-0.1,0.6-0.1,0.9c-0.1,0.7-0.1,1.3,0,1.8c0,0.3,0.2,0.4,0.4,0.4
	c0.3,0,0.6-0.6,1.1-1.8c0.5-1.2,0.7-2,0.6-2.5c0-0.3-0.2-0.4-0.5-0.4c-0.2,0-0.5,0.2-0.8,0.4l-0.4,0.3L111.2,56.3z"/>
<path class="st8" d="M5.4,6.3h2.9V21H5.4V6.3L5.4,6.3z M11.6,6.3h2.8l6.5,9.7V6.3h2.9V21H21l-6.5-9.6V21h-2.9V6.3L11.6,6.3z
	 M25.8,6.3h8.4v2.8h-2.8V21h-2.9V9.1h-2.7V6.3L25.8,6.3z M36.2,6.3h8.3v2.7h-5.4v2.7h5.4v2.7h-5.4v3.9h5.4V21h-8.3V6.3L36.2,6.3z
	 M47.5,6.3h3.1c1.7,0,2.9,0.1,3.6,0.4c0.7,0.3,1.3,0.8,1.7,1.4c0.4,0.7,0.7,1.5,0.7,2.4c0,1-0.2,1.8-0.7,2.4
	c-0.5,0.6-1.2,1.1-2.2,1.5l3.6,6.5h-3.2l-3.4-6.2h-0.3V21h-2.9V6.3L47.5,6.3z M50.4,12.1h0.9c0.9,0,1.6-0.1,1.9-0.4
	c0.3-0.2,0.5-0.6,0.5-1.2c0-0.3-0.1-0.6-0.3-0.8c-0.2-0.2-0.4-0.4-0.7-0.5c-0.3-0.1-0.8-0.2-1.6-0.2h-0.8V12.1L50.4,12.1z M59.6,6.3
	h2.8l6.5,9.7V6.3h2.9V21H69l-6.5-9.6V21h-2.9V6.3L59.6,6.3z M75.3,6.3h8.3v2.7h-5.4v2.7h5.4v2.7h-5.4v3.9h5.4V21h-8.3V6.3L75.3,6.3z
	 M84.8,6.3h8.4v2.8h-2.8V21h-2.9V9.1h-2.7V6.3L84.8,6.3z M102.6,6.3h2.8l3.5,10.2l3.6-10.2h2.8L118,21h-2.8l-1.6-9.3l-3.2,9.3h-2.6
	l-3.2-9.3l-1.7,9.3H100L102.6,6.3L102.6,6.3z M120.3,6.3h8.3v2.7h-5.4v2.7h5.4v2.7h-5.4v3.9h5.4V21h-8.3V6.3L120.3,6.3z M145.4,8.7
	l-2,1.9c-1.3-1.3-2.8-2-4.5-2c-1.5,0-2.8,0.5-3.8,1.4c-1,1-1.5,2.1-1.5,3.5c0,1.4,0.5,2.6,1.6,3.6c1.1,1,2.3,1.5,3.9,1.5
	c1,0,1.8-0.2,2.5-0.6c0.7-0.4,1.2-1,1.7-1.9h-4.4v-2.6h7.7l0,0.6c0,1.3-0.3,2.5-1,3.7c-0.7,1.2-1.6,2-2.7,2.6
	c-1.1,0.6-2.4,0.9-3.9,0.9c-1.6,0-3-0.3-4.2-1c-1.2-0.7-2.2-1.6-2.9-2.8c-0.7-1.2-1.1-2.5-1.1-4c0-1.9,0.7-3.6,2-5.1
	c1.6-1.7,3.6-2.6,6.2-2.6c1.3,0,2.6,0.2,3.7,0.7C143.5,7.1,144.5,7.7,145.4,8.7L145.4,8.7z M153.8,6.3h2.9l5.9,14.7h-3l-1.2-3h-6.2
	l-1.2,3h-3L153.8,6.3L153.8,6.3z M155.3,10.2l-2,5h4.1L155.3,10.2L155.3,10.2z M172.8,8.3l-2.1,1.8c-0.8-1-1.5-1.5-2.3-1.5
	c-0.4,0-0.7,0.1-0.9,0.3c-0.2,0.2-0.4,0.4-0.4,0.7c0,0.2,0.1,0.5,0.3,0.7c0.2,0.3,0.9,0.9,2.1,1.9c1.1,0.9,1.8,1.5,2,1.7
	c0.6,0.6,1,1.1,1.2,1.6c0.2,0.5,0.4,1.1,0.4,1.7c0,1.2-0.4,2.2-1.3,3c-0.9,0.8-2,1.2-3.4,1.2c-1.1,0-2-0.3-2.8-0.8
	c-0.8-0.5-1.5-1.3-2.1-2.4l2.4-1.4c0.7,1.3,1.6,1.9,2.5,1.9c0.5,0,0.9-0.1,1.3-0.4c0.3-0.3,0.5-0.6,0.5-1c0-0.3-0.1-0.7-0.4-1
	c-0.3-0.3-0.8-0.8-1.7-1.5c-1.7-1.3-2.7-2.3-3.2-3c-0.5-0.7-0.7-1.4-0.7-2.1c0-1,0.4-1.9,1.2-2.6c0.8-0.7,1.8-1.1,3-1.1
	c0.8,0,1.5,0.2,2.2,0.5C171.3,6.8,172,7.4,172.8,8.3L172.8,8.3z M174.4,6.3h8.4v2.8H180V21h-2.9V9.1h-2.7V6.3L174.4,6.3z M192,5.9
	c2.2,0,4,0.8,5.6,2.3c1.6,1.5,2.3,3.3,2.3,5.5c0,2.1-0.8,4-2.3,5.4c-1.5,1.5-3.4,2.2-5.6,2.2c-2.3,0-4.2-0.8-5.7-2.3
	c-1.5-1.5-2.3-3.3-2.3-5.4c0-1.4,0.4-2.7,1.1-3.9c0.7-1.2,1.7-2.1,2.9-2.8C189.3,6.3,190.6,5.9,192,5.9L192,5.9z M192,8.7
	c-1.4,0-2.6,0.5-3.6,1.4c-1,0.9-1.4,2.1-1.4,3.6c0,1.6,0.6,2.9,1.8,3.9c0.9,0.7,2,1.1,3.2,1.1c1.4,0,2.5-0.5,3.5-1.4
	c1-1,1.5-2.1,1.5-3.5c0-1.4-0.5-2.6-1.5-3.6C194.6,9.2,193.4,8.7,192,8.7L192,8.7z M202.8,6.3h3.1c1.7,0,2.9,0.1,3.6,0.4
	c0.7,0.3,1.3,0.8,1.7,1.4c0.4,0.7,0.7,1.5,0.7,2.4c0,1-0.2,1.8-0.7,2.4c-0.5,0.6-1.2,1.1-2.2,1.5l3.6,6.5h-3.2l-3.4-6.2h-0.3V21
	h-2.9V6.3L202.8,6.3z M205.7,12.1h0.9c0.9,0,1.6-0.1,1.9-0.4c0.3-0.2,0.5-0.6,0.5-1.2c0-0.3-0.1-0.6-0.3-0.8
	c-0.2-0.2-0.4-0.4-0.7-0.5c-0.3-0.1-0.8-0.2-1.6-0.2h-0.8V12.1L205.7,12.1z M215,6.3h8.3v2.7h-5.4v2.7h5.4v2.7h-5.4v3.9h5.4V21H215
	V6.3z"/>
</svg>
