<?xml version="1.0" encoding="utf-8"?>
<!-- Generator: Adobe Illustrator 24.0.2, SVG Export Plug-In . SVG Version: 6.00 Build 0)  -->
<svg version="1.1" id="Layer_1" xmlns="http://www.w3.org/2000/svg" xmlns:xlink="http://www.w3.org/1999/xlink" x="0px" y="0px"
	 viewBox="0 0 228.7 100.6" style="enable-background:new 0 0 228.7 100.6;" xml:space="preserve">
<style type="text/css">
	.st0{fill-rule:evenodd;clip-rule:evenodd;fill:#95A6B0;}
	.st1{fill-rule:evenodd;clip-rule:evenodd;fill:#FFFFFF;}
	.st2{fill-rule:evenodd;clip-rule:evenodd;fill:#94C120;}
	.st3{fill-rule:evenodd;clip-rule:evenodd;fill:#717E85;}
	.st4{fill-rule:evenodd;clip-rule:evenodd;fill:url(#SVGID_1_);}
	.st5{fill-rule:evenodd;clip-rule:evenodd;fill:url(#SVGID_2_);}
	.st6{fill-rule:evenodd;clip-rule:evenodd;}
	.st7{fill-rule:evenodd;clip-rule:evenodd;fill:#A30E06;}
	.st8{fill-rule:evenodd;clip-rule:evenodd;fill:#E3000F;}
</style>
<path class="st0" d="M15.7,36.2l-0.2-0.1c-2.9-1.4-5.5-3.3-7.4-5.8c-1.9-2.6-2.9-5.6-2.9-8.8c0-4.5,1.9-8.6,5.5-11.4
	c3.5-2.7,7.9-3.8,12.3-3.8h17.2v3.1c3.3-2.5,7.4-3.7,11.7-3.7c4.1,0,7.8,1,11.1,3.2V6.2h18.7v21.7l0.1,0.1
	c1.1-12.6,11.9-22.4,25.1-22.4c6,0,11.7,2,16.2,5.7c0.3-0.5,0.6-0.9,0.9-1.4c2-2.7,5.1-4.1,8.5-4.1c2.5,0,4.9,0.8,6.8,2.4
	c1.3,1.1,2.4,2.4,3.2,3.9V6.2H161V9c3.2-2.3,7.1-3.3,11.2-3.3c5.5,0,10.4,1.9,14.1,5.9l0.1,0.1c1.8,1.9,3.1,4.2,3.9,6.6
	c0.9,2.5,1.2,5.1,1.2,7.7v5.3l10.4-2.6c6.4-1.6,13,2.2,14.7,8.4l7.2,27c1.6,6.2-2.3,12.7-8.6,14.3L142,96.8
	c-6.4,1.6-13-2.2-14.7-8.4l-5.2-19.5l0,0L119,56.7c-33,0-75.2,0-113.9,0v-3.6c0-2.6,0-5.2,0-7.8c0-2.6,0-5.2,0-7.8v-1.3h1.4
	C9.6,36.2,12.7,36.2,15.7,36.2z"/>
<path class="st1" d="M6.5,53.1c0-2.6,0-5.2,0-7.8c0-2.6,0-5.2,0-7.8c5,0,9.9,0,14.9,0l-5.2-2.6c-2.7-1.3-5.1-3-6.9-5.4
	s-2.7-5.1-2.7-8c0-4.1,1.7-7.8,5-10.4s7.3-3.5,11.5-3.5H39v4.8C42.4,8.7,47,7,52.1,7c4.8,0,9.1,1.5,12.4,4.7V7.5h16v21.1l2.7,1.8
	c0-0.1,0-0.3,0-0.4c0-12.8,10.7-23.2,23.8-23.2c6.5,0,12.4,2.5,16.7,6.7c0.3-1,0.8-2,1.5-2.8c1.8-2.3,4.4-3.5,7.4-3.5
	c2.2,0,4.2,0.7,5.9,2.1c1.5,1.2,2.5,2.7,3.4,4.3v0.1l2,4.1V7.6h15.8v4.3c3.4-3.3,7.7-4.9,12.6-4.9c5.1,0,9.7,1.7,13.1,5.4v0.1
	c1.6,1.8,2.9,3.9,3.6,6.1c0.8,2.3,1.1,4.8,1.1,7.3V33l12.1-3c5.7-1.4,11.5,1.9,13,7.5l7.2,27c1.5,5.5-2,11.2-7.7,12.7l-73.2,18.4
	c-5.7,1.4-11.5-1.9-13-7.5l-4.4-16.5l-4.2-16.2H6.5V53.1z"/>
<path class="st2" d="M45.6,38.5c5.3,2.1,9.8,5.6,13,10v0.1h0.1h2.5h4.4V25.9c0-2-0.2-4-0.9-5.9c-0.6-1.7-1.5-3.3-2.7-4.6
	c-2.6-2.8-6-4-9.8-4s-7.2,1.2-9.8,4c-2.7,2.9-3.6,6.6-3.6,10.5v22.7h6.9V38.5H45.6z M58.6,38.8c-3.7-3.2-8.1-5.7-13-7.2V26
	c0-2.1,0.3-4.5,1.7-6.2c1.2-1.5,2.9-2,4.7-2c1.9,0,3.6,0.5,4.8,2c1.4,1.7,1.7,4.1,1.7,6.2L58.6,38.8L58.6,38.8z"/>
<path class="st2" d="M165.9,38.5c5.3,2.1,9.8,5.6,13,10v0.1h0.1h2.5h4.4V25.9c0-2-0.2-4-0.9-5.9c-0.6-1.7-1.5-3.3-2.7-4.6
	c-2.6-2.8-6-4-9.8-4s-7.2,1.2-9.8,4c-2.7,2.9-3.6,6.6-3.6,10.5v22.7h6.9L165.9,38.5L165.9,38.5z M178.9,38.8
	c-3.7-3.2-8.1-5.7-13-7.2V26c0-2.1,0.3-4.5,1.7-6.2c1.2-1.5,2.9-2,4.7-2c1.9,0,3.6,0.5,4.8,2c1.4,1.7,1.7,4.1,1.7,6.2v12.8H178.9z"
	/>
<path class="st2" d="M148.5,37.2V12h6.7v31c0,1.5-0.3,3.1-1.2,4.3c-0.9,1.2-2.1,1.8-3.6,1.8c-1.2,0-2.3-0.4-3.2-1.1
	c-1-0.8-1.7-1.9-2.2-3l-10.7-21.7v25.2h-6.7V17.8c0-1.5,0.3-3.1,1.2-4.4c0.9-1.2,2.2-1.8,3.7-1.8c1.1,0,2.2,0.4,3,1.1
	c1,0.8,1.7,1.9,2.3,3L148.5,37.2z"/>
<path class="st2" d="M14.5,14.5c2.4-1.9,5.6-2.5,8.6-2.5h11.3v6.7H21.5c-0.9,0-1.8,0.2-2.5,0.8c-0.6,0.5-0.8,1.1-0.8,1.8
	s0.2,1.3,0.7,1.8c0.9,1,3.6,2.3,4.7,2.9l5.2,2.6c2,1,4,2.3,5.4,4.2c1.3,1.7,1.8,3.6,1.8,5.7c0,3-1,5.7-3.5,7.6
	c-2.6,2.1-6,2.7-9.3,2.7H11v-6.7h13.2c1.2,0,2.7-0.2,3.7-0.9c0.8-0.6,1-1.4,1-2.4c0-0.8-0.3-1.5-0.8-2.2c-0.9-1-2.8-2-4-2.6l-5.9-3
	c-2-1-3.9-2.3-5.3-4c-1.2-1.6-1.8-3.5-1.8-5.5C11.2,18.7,12.2,16.3,14.5,14.5z"/>
<path class="st0" d="M130.3,52.7l73.2-18.4c3.3-0.8,6.6,1.1,7.5,4.3l7.2,27c0.8,3.2-1.1,6.5-4.4,7.3l-73.2,18.4
	c-3.3,0.8-6.6-1.1-7.5-4.3l-7.2-27C125.1,56.8,127.1,53.5,130.3,52.7z"/>
<path class="st3" d="M144.6,59.2c-0.5,0.2-0.9,0.3-1.2,0.6c-0.3,0.2-0.5,0.5-0.6,0.8c-0.2,0.3-0.3,0.6-0.4,1c-0.1,0.3-0.2,0.7-0.4,1
	s-0.4,0.7-0.7,1s-0.7,0.6-1.3,0.9c-0.5,0.2-1,0.5-1.6,0.7s-1.2,0.4-1.8,0.6s-1.2,0.3-1.7,0.4s-0.9,0.2-1.3,0.3
	c-0.1,0.2-0.2,0.4-0.3,0.6s-0.1,0.4-0.1,0.6c0,0.3,0.1,0.7,0.3,1c0.2,0.4,0.3,0.7,0.5,1s0.4,0.6,0.6,0.8c0.3,0,0.5-0.1,0.7-0.1
	c0.2-0.1,0.3-0.1,0.5-0.2s0.3-0.2,0.6-0.3c0.2-0.1,0.5-0.2,0.9-0.3l2.6-0.7c-0.3,0.9-0.5,1.7-0.8,2.6s-0.5,1.8-0.7,2.6
	c-0.2,0.9-0.4,1.7-0.6,2.4c-0.2,0.7-0.3,1.3-0.4,1.8c-0.1,0.5-0.1,0.8-0.1,1c0,0.1,0.1,0.2,0.1,0.3c0.1,0.1,0.1,0.2,0.2,0.3
	c0.1,0.4,0.2,0.8,0.2,1.2c0.1,0.4,0.2,0.7,0.3,0.9c0.1,0.2,0.4,0.4,0.6,0.4l-0.1,0.4c0.3,0,0.6-0.1,1-0.1c0.4-0.1,0.8-0.2,1.2-0.3
	c0.1-0.8,0.3-1.7,0.4-2.6c0.2-0.9,0.4-1.8,0.6-2.8c-0.1,0-0.3,0.1-0.4,0.1c-0.1,0.1-0.2,0.2-0.2,0.4l-0.3-0.1c0.1-0.3,0.2-0.6,0.3-1
	c0.1-0.3,0.2-0.7,0.3-1c0,0.1,0.1,0.2,0.1,0.3c0,0.1,0,0.3,0.1,0.4c0,0.1,0.1,0.1,0.2,0.1c0.1,0,0.1-0.1,0.2-0.3
	c0-0.1,0.1-0.3,0.1-0.5s0.1-0.4,0.1-0.5s0-0.3-0.1-0.4c0-0.1-0.1-0.3-0.2-0.5c0-0.2,0.1-0.4,0.1-0.6s0.1-0.4,0.1-0.6
	s0.1-0.3,0.2-0.3c0.1,0,0.1,0,0.1,0.1s0,0.2,0,0.3c0,0.1,0.1,0.2,0.2,0.1c0.1,0,0.2-0.1,0.3-0.3c0.1-0.2,0.2-0.4,0.2-0.6
	c0.1-0.2,0.1-0.5,0.2-0.7c0.1-0.2,0.1-0.5,0.1-0.7l-0.3-0.1c0.1-0.1,0.1-0.2,0.2-0.3c0.1-0.1,0.2-0.3,0.2-0.4
	c0.1-0.1,0.1-0.3,0.1-0.4c0.2-0.8,0.3-1.3,0.5-1.8c0.2-0.4,0.3-0.7,0.6-1c0.2-0.2,0.5-0.4,0.9-0.5c0.1-0.2,0.2-0.3,0.3-0.4
	s0.2-0.2,0.4-0.2V66l0.5-0.1c0.7-0.5,1.3-0.9,2-1.3c0.7-0.3,1.4-0.6,2-0.9c0.7-0.3,1.3-0.5,1.9-0.7c0.6-0.2,1.1-0.4,1.6-0.7
	c0,0,0-0.1-0.1-0.1v-0.1c0-0.1,0-0.1,0-0.2s0.1-0.1,0.2-0.1c0,0,0.1,0,0.2,0c0.1,0,0.2,0,0.3,0l0.1,0.2c0.1-0.1,0.2-0.1,0.3-0.2
	s0.2-0.1,0.2-0.2c-0.1-0.1-0.2-0.3-0.3-0.5s-0.1-0.4-0.1-0.6s0.1-0.5,0.2-0.7c-0.2-0.4-0.4-0.6-0.8-0.8c-0.3-0.2-0.7-0.3-1.1-0.4
	c-0.4-0.1-0.9-0.1-1.4-0.1c-0.5,0.2-1.1,0.5-1.8,0.8s-1.4,0.7-2.1,1c-0.7,0.4-1.5,0.7-2.2,1.1L144.6,59.2L144.6,59.2z M143.2,71.6
	l-0.2,0.7l-0.2-0.2l0.3-0.7L143.2,71.6L143.2,71.6z M170.5,56.5c0,0.1,0,0.2-0.1,0.3c-0.1,0.1-0.2,0.2-0.3,0.3
	c-0.1,0.1-0.3,0.2-0.4,0.4c-0.7,0.5-1.5,1-2.2,1.5c-0.7,0.4-1.5,0.8-2.2,1.2c-0.7,0.4-1.5,0.7-2.2,1.1s-1.5,0.7-2.2,1.2
	c-0.2,0.3-0.3,0.7-0.5,1.2c-0.2,0.4-0.4,0.9-0.6,1.5c0.3-0.1,0.7-0.3,1.2-0.6c0.5-0.3,0.9-0.5,1.4-0.8s0.9-0.6,1.3-0.8
	c0.4-0.2,0.7-0.4,1-0.5s0.6-0.1,0.8-0.1s0.4,0.1,0.6,0.3c0.2,0.2,0.4,0.4,0.7,0.7c0,0.2,0,0.4,0.1,0.5s0.2,0.2,0.4,0.3l-0.3,0.6
	c-0.4,0.2-0.9,0.4-1.5,0.7c-0.6,0.3-1.2,0.6-1.9,0.9s-1.3,0.6-2,1c-0.6,0.3-1.2,0.7-1.8,1c-0.5,0.3-1,0.6-1.3,0.8
	c-0.2,0.1-0.3,0.4-0.4,0.7c-0.1,0.3-0.2,0.7-0.3,1.2c-0.1,0.4-0.2,0.9-0.2,1.3c-0.1,0.5-0.1,0.9-0.1,1.2c0,0.4,0,0.6,0,0.8
	c0.4,0.1,0.8,0.2,1.2,0.1s0.9-0.2,1.3-0.4c0.4-0.2,0.8-0.4,1.1-0.5l0.2,0.3c0.1,0,0.2-0.1,0.3-0.2s0.2-0.2,0.1-0.3
	c0.1,0,0.2-0.1,0.3,0c0.1,0,0.2,0.1,0.3,0.2s0.2,0.1,0.3,0.2c0.1,0,0.2,0,0.3,0c0.7-0.4,1.4-0.8,2.2-1.3c0.7-0.5,1.5-0.9,2.2-1.3
	s1.3-0.8,1.8-1.2c0,0,0.1-0.1,0.2-0.1c0.1,0,0.1,0,0.1,0s0,0.1-0.1,0.2s-0.2,0.2-0.3,0.3c-0.1,0.1-0.2,0.2-0.3,0.3l-2.2,1.5
	c0.1,0,0.2,0.1,0.4,0.1s0.3,0.1,0.4,0.1c0,0,0.1,0,0,0.1l-0.1,0.1c-0.5,0.3-1.1,0.7-1.7,1.1c-0.6,0.4-1.2,0.7-1.8,1.1
	s-1.2,0.7-1.9,1c0.3,0,0.6,0,0.9-0.1c0.3-0.1,0.7-0.2,1-0.4c0.4-0.3,0.9-0.5,1.4-0.9c0.5-0.3,1-0.7,1.6-1c0.5-0.4,1.1-0.7,1.6-1
	l0.1-0.1h0.1c0,0,0,0.1,0,0.2c-0.1,0.2-0.2,0.4-0.3,0.5c-0.1,0.2-0.3,0.3-0.5,0.5c-0.7,0.5-1.4,1-2.2,1.5s-1.6,1-2.3,1.4
	c-0.8,0.4-1.5,0.7-2.2,0.9c-1,0.3-1.9,0.4-2.7,0.4s-1.6-0.2-2.2-0.5c-0.6-0.3-1.1-0.9-1.5-1.6s-0.6-1.7-0.7-2.9c0-0.6,0-1.3,0.2-2.1
	c0.2-0.8,0.4-1.6,0.7-2.6s0.7-2,1.1-3.2c0.4-1.2,0.9-2.5,1.4-3.9c-0.1-0.4-0.2-0.8-0.2-1.2c0-0.4,0.1-0.9,0.4-1.4
	c0.3-0.1,0.6-0.2,0.9-0.4c0.3-0.2,0.5-0.5,0.7-0.8s0.4-0.6,0.6-0.9c0.2-0.3,0.4-0.6,0.6-0.8c0.2-0.2,0.4-0.4,0.7-0.5
	c0.2,0,0.4-0.1,0.7-0.1s0.6,0,0.9-0.1c0.3,0,0.6,0,0.8,0s0.4,0,0.6,0c0.1,0.4,0.1,0.7,0,1.2c-0.1,0.4-0.2,0.9-0.4,1.4
	c0.1,0,0.3,0,0.6-0.1c0.2,0,0.5-0.1,0.8-0.1c0.3-0.1,0.6-0.1,0.8-0.2c0.3-0.1,0.5-0.1,0.7-0.2l0.4,0.5c0.1,0,0.2-0.1,0.3-0.2
	s0.3-0.2,0.5-0.2c0.1,0,0.3-0.1,0.5-0.1s0.4,0,0.6,0c0.2,0,0.4,0,0.6,0h0.1v0.1c-0.2,0.3-0.5,0.6-0.7,0.7c-0.2,0.2-0.4,0.3-0.6,0.4
	c-0.2,0.1-0.3,0.2-0.4,0.2c-0.1,0.1-0.2,0.2-0.2,0.2c0,0.1,0,0.2,0,0.4c0.5-0.3,0.9-0.6,1.3-0.9c0.4-0.3,0.9-0.6,1.3-0.9l0.1-0.1
	C170.3,56.5,170.3,56.4,170.5,56.5C170.4,56.4,170.4,56.4,170.5,56.5L170.5,56.5z M167.7,57.2c0-0.1-0.1-0.1-0.2-0.1
	c-0.1,0-0.2,0-0.3,0s-0.2,0.1-0.3,0.1l0.1,0.4L167.7,57.2L167.7,57.2z M157.2,70.4v0.4l0,0c0.1-0.2,0.2-0.3,0.3-0.5s0.2-0.4,0.2-0.5
	c-0.2,0-0.4,0.1-0.4,0.2C157.2,70.1,157.2,70.3,157.2,70.4L157.2,70.4z M157.1,73.3l-0.3-0.3c0,0.3,0,0.6,0,0.8
	c0,0.2,0.1,0.3,0.2,0.4L157.1,73.3L157.1,73.3z M167,70.2C167,70.1,167,70.1,167,70.2l-0.1-0.1c-0.6,0.4-1.2,0.9-2,1.3
	c-0.7,0.4-1.4,0.9-2.2,1.3c0.2,0.2,0.4,0.2,0.6,0.1c0.3-0.1,0.6-0.3,0.9-0.5c0.3-0.2,0.6-0.5,0.9-0.9c0.2-0.1,0.4-0.1,0.7-0.3
	c0.2-0.1,0.5-0.3,0.7-0.4C166.8,70.6,166.9,70.4,167,70.2L167,70.2z M160.3,62.6l-0.4,0.2l-0.5,1.1l0.4-0.2L160.3,62.6L160.3,62.6z
	 M159.3,64.4c-0.1,0-0.2,0.1-0.3,0.2s-0.2,0.3-0.3,0.4c-0.1,0.2-0.1,0.3-0.1,0.4l0.4-0.2L159.3,64.4L159.3,64.4z M157.5,70.9
	l-0.3,0.1l-0.2,1.3l0.3,0.2L157.5,70.9L157.5,70.9z M186.8,52.2c0-0.4,0-0.7-0.1-0.9c-0.1-0.3-0.2-0.5-0.4-0.7s-0.3-0.4-0.5-0.6
	s-0.3-0.4-0.5-0.7c-0.2,0-0.4-0.1-0.6-0.1c-0.2,0-0.4-0.1-0.6-0.1c-0.2,0-0.4,0-0.5,0c-0.2,0.1-0.5,0.3-0.9,0.6
	c-0.4,0.3-0.9,0.7-1.5,1.2c-0.5,0.5-1.1,1-1.7,1.6c-0.6,0.6-1.1,1.2-1.6,1.8c-0.5,0.6-1,1.2-1.3,1.7c-0.4,0.5-0.6,1-0.7,1.4
	l-0.2,0.1c0,0.1,0.1,0.3,0.1,0.5s0.1,0.3,0.2,0.4l-0.4,0.1c-0.1,0-0.2,0.2-0.3,0.4c-0.1,0.2-0.2,0.4-0.3,0.7
	c-0.1,0.3-0.2,0.5-0.3,0.7s-0.2,0.3-0.3,0.4c-0.1,0-0.2,0-0.2,0s0-0.1,0-0.2s0-0.1,0-0.2c0,0-0.1-0.1-0.2,0c-0.1,0-0.3,0.2-0.4,0.5
	c-0.2,0.3-0.4,0.7-0.6,1.1c-0.2,0.4-0.4,0.9-0.6,1.4c-0.2,0.5-0.4,0.9-0.5,1.3c0,0.1,0,0.3,0,0.4s0,0.3,0.1,0.4c0,0.1,0,0.3-0.1,0.4
	l-0.4-0.1c0,0.2,0,0.5,0,0.7s0,0.5-0.1,0.7s-0.2,0.4-0.3,0.6l0.1,0.9c0,0.2,0.1,0.4,0.1,0.6c0.1,0.2,0.1,0.4,0.2,0.5
	c0.1,0.1,0.2,0.3,0.4,0.5s0.4,0.5,0.7,0.8s0.5,0.5,0.7,0.8c0.2,0.2,0.4,0.4,0.6,0.5c0.3-0.1,0.5-0.2,0.7-0.1c0.2,0,0.3,0,0.5,0.1
	c0.1,0.1,0.3,0.1,0.4,0.1c0.2,0,0.3,0,0.5,0c0.1,0,0.2,0,0.3,0c0.1,0.1,0.2,0.1,0.3,0.2s0.2,0.1,0.4,0c0.3-0.1,0.5-0.2,0.8-0.3
	c0.3-0.1,0.6-0.3,0.9-0.4c0.3-0.2,0.5-0.3,0.8-0.4c-0.1-0.1-0.1-0.2-0.1-0.4c0.1-0.2,0.2-0.3,0.4-0.4c0.4-0.3,0.9-0.6,1.4-0.9
	s1-0.6,1.5-0.9s1-0.6,1.4-0.9s0.8-0.5,1.1-0.7s0.5-0.3,0.5-0.3l-0.3-0.3c-0.1-0.1-0.1-0.2-0.1-0.3c0-0.1,0.1-0.2,0.2-0.3
	c0.1-0.1,0.3-0.1,0.4-0.2l1.7-0.8l-0.4-0.1l-0.8,0.3h-0.5c-0.6,0.2-1.2,0.5-1.8,0.8s-1.3,0.6-1.9,0.9c-0.6,0.3-1.3,0.6-1.8,0.9
	c-0.2,0.2-0.4,0.4-0.6,0.6c-0.3,0.2-0.5,0.3-0.8,0.4s-0.5,0.1-0.8,0c0.1-0.2,0.3-0.4,0.5-0.6c0.3-0.2,0.6-0.4,1-0.7
	c0.4-0.2,0.8-0.5,1.3-0.7c0.4-0.2,0.9-0.4,1.2-0.6c-0.1-0.1-0.2-0.1-0.4-0.2c-0.2,0-0.4,0-0.6,0.1c-0.5,0.2-1,0.5-1.6,0.8
	s-1.1,0.6-1.6,0.8c-0.5,0.3-1,0.5-1.5,0.7s-0.8,0.4-1.1,0.5c-0.2,0.1-0.3,0-0.4,0c-0.1-0.1-0.2-0.2-0.2-0.4c0-0.3,0-0.8,0.2-1.3
	s0.4-1.1,0.7-1.7s0.6-1.2,0.9-1.8c0.3-0.6,0.6-1.1,0.9-1.5c0.3-0.4,0.4-0.7,0.6-0.9c0-0.1,0.1-0.2,0.1-0.4c0-0.2,0.1-0.3,0.1-0.4
	c0.3-0.4,0.6-0.8,0.9-1.1c0.3-0.4,0.6-0.8,0.9-1.1c0.3-0.4,0.4-0.6,0.5-0.9l0.2,0.3c0.1-0.2,0.3-0.4,0.5-0.6
	c0.2-0.3,0.4-0.5,0.6-0.9c0.2-0.3,0.5-0.6,0.8-1c0.4-0.4,0.8-0.8,1.2-1.1c0.4-0.4,0.9-0.7,1.4-1C185.8,52.8,186.3,52.5,186.8,52.2
	L186.8,52.2z M183.8,68.5L183.8,68.5c-0.3,0.3-0.6,0.6-0.9,0.8c-0.3,0.2-0.6,0.4-0.9,0.5c-0.1,0-0.2,0-0.2,0c-0.1,0-0.2,0-0.2,0
	c0.3-0.2,0.7-0.4,1.1-0.7C183,69,183.4,68.7,183.8,68.5L183.8,68.5z M180.8,70.7c-0.1,0-0.2,0-0.3,0.1c-0.1,0-0.2,0-0.3,0l1.1-0.7
	c0.1,0.1,0.2,0.1,0.2,0.2s-0.1,0.2-0.2,0.2C181.1,70.6,180.9,70.6,180.8,70.7L180.8,70.7z M174.1,60.8l-0.2,0.5l-0.4-0.1
	c0.1-0.2,0.1-0.3,0.2-0.4C173.9,60.9,174,60.8,174.1,60.8L174.1,60.8z M176,64.1l-0.9,1.8c-0.1-0.1-0.1-0.2-0.1-0.3
	c0-0.1,0.1-0.3,0.1-0.4c0.1-0.1,0.1-0.3,0.2-0.4l0.3-0.7H176L176,64.1z M174.9,66.5l-0.3,0.8l-0.2-0.2l0.2-0.5L174.9,66.5
	L174.9,66.5z M187.2,65.8l-1,0.6l-0.4-0.3l0.9-0.4L187.2,65.8L187.2,65.8z M183.9,65.4c-0.3,0.1-0.6,0.2-0.8,0.2c-0.3,0-0.5,0-0.6,0
	c0.4-0.2,0.9-0.4,1.3-0.6c0.4-0.2,0.9-0.4,1.2-0.6c0.4-0.2,0.8-0.3,1.1-0.4c0,0.2-0.2,0.4-0.4,0.6s-0.5,0.3-0.8,0.5
	C184.5,65.2,184.2,65.3,183.9,65.4L183.9,65.4z M177.1,61.5c0.2-0.3,0.3-0.5,0.5-0.7c0.1-0.2,0.3-0.3,0.5-0.4c0,0,0,0.1,0,0.2
	s-0.1,0.2-0.1,0.3c-0.1,0.2-0.2,0.4-0.4,0.7L177.1,61.5L177.1,61.5z M177.3,61.9l-0.2,0.4l-0.3-0.1l0.2-0.4L177.3,61.9L177.3,61.9z
	 M173.7,61.8l-0.4,0.8l-0.3-0.1l0.4-0.9L173.7,61.8L173.7,61.8z M201.7,65.4c0.1,0.1,0.2,0.1,0.3-0.1s0.3-0.5,0.5-0.9
	s0.4-0.9,0.5-1.5c0.1,0,0.2,0.2,0.2,0.4c0,0.2-0.1,0.5-0.2,0.8c-0.1,0.3-0.2,0.6-0.3,0.9s-0.2,0.6-0.3,0.9s-0.2,0.7-0.3,1
	s-0.2,0.6-0.3,0.8c-0.1,0.2-0.2,0.4-0.3,0.4c-0.2-0.1-0.5-0.2-0.9-0.3c-0.3-0.1-0.7-0.3-1-0.5s-0.6-0.4-0.9-0.7
	c-0.2-0.3-0.4-0.6-0.4-1c0-0.5,0-1.1,0.1-1.7s0.2-1.3,0.4-2s0.4-1.4,0.6-2c0.2-0.7,0.4-1.3,0.6-1.8l-0.2-0.2c-0.2,0-0.4,0.1-0.7,0.2
	s-0.6,0.2-1,0.4c-0.3,0.1-0.7,0.3-1,0.4s-0.6,0.2-0.8,0.3c-0.2,0.1-0.4,0.2-0.4,0.2c-0.1-0.1-0.1-0.1-0.2-0.1c-0.1,0-0.2,0-0.2,0
	c-0.3,0.1-0.5,0.2-0.6,0.4c-0.1,0.2-0.2,0.5-0.3,0.7c-0.1,0.3-0.2,0.8-0.3,1.3s-0.2,1-0.3,1.6s-0.2,1.2-0.3,1.7
	c-0.1,0.6-0.2,1.1-0.2,1.6c-0.1,0.5-0.1,0.9-0.2,1.2c-0.2,0.1-0.4,0.1-0.6,0c-0.1,0-0.3-0.1-0.4-0.2c-0.1-0.1-0.2-0.2-0.4-0.3
	c0,0,0,0-0.1,0.1h-0.1c0,0,0,0-0.1,0h-0.1c-0.1,0-0.1,0-0.2,0c-0.1,0-0.1,0-0.2,0l0.1-0.4c-0.4-0.1-0.7-0.3-0.9-0.5
	s-0.3-0.5-0.4-0.7c-0.1-0.3-0.1-0.6,0-1c0-0.4,0.1-0.8,0.2-1.2c0.1-0.4,0.1-0.9,0.2-1.5c-0.3,0-0.5,0.1-0.9,0.2
	c-0.3,0.1-0.6,0.2-0.9,0.3c-0.3,0.1-0.6,0.2-0.9,0.3c0.1-0.3,0.2-0.5,0.4-0.6c0.2-0.2,0.4-0.3,0.6-0.5c0.2-0.1,0.4-0.3,0.6-0.4
	l-0.6-0.1l1.8-1.3c0.1-0.2,0.1-0.3,0.2-0.5c0.1-0.1,0.1-0.3,0.2-0.4c0.1-0.1,0.1-0.3,0.2-0.5c0.2-0.4,0.3-0.9,0.4-1.3
	c0.1-0.5,0.2-0.9,0.3-1.4s0.2-0.9,0.4-1.4c0.3-0.8,0.7-1.7,1-2.6c0.4-0.9,0.7-1.8,1.1-2.6c0.3-0.9,0.7-1.7,1-2.5s0.5-1.6,0.7-2.3
	l0.1-0.1c0,0,0-0.1,0.1-0.1c0,0,0.1-0.1,0.3-0.1c0.4-0.1,0.8-0.2,1-0.1c0.3,0,0.5,0.1,0.6,0.3c0.2,0.1,0.3,0.3,0.5,0.5
	s0.4,0.4,0.6,0.5c0.1,0.4,0.1,0.7,0.2,1c0.1,0.3,0.1,0.7,0.1,1.1s0,0.9-0.1,1.5l-0.2,0.1c-0.1,0.4-0.2,0.9-0.4,1.4s-0.4,1.1-0.7,1.7
	s-0.5,1.2-0.7,1.7c-0.3,0.3-0.5,0.5-0.7,0.9c-0.2,0.3-0.2,0.7-0.2,1l0.7-0.4c0.3-0.4,0.6-0.8,1-1.1c0.4-0.3,0.8-0.5,1.2-0.7
	s0.8-0.3,1.3-0.5c0.2-0.1,0.5-0.1,0.8-0.1s0.6,0,0.8,0c0.6-1,1.1-2.1,1.6-3.2s0.9-2.2,1.3-3.3c0.4-1.1,0.8-2.2,1.2-3.3
	c0.1-0.1,0.1-0.3,0.3-0.4c0.1-0.1,0.3-0.2,0.4-0.2c0.3-0.1,0.5-0.1,0.8,0.1c0.2,0.1,0.4,0.3,0.6,0.6c0.2,0.3,0.3,0.6,0.4,0.9
	c0.1,0.3,0.2,0.6,0.2,1c0,0.3,0,0.5,0,0.8s0,0.5-0.1,0.8s-0.2,0.5-0.3,0.7c0,0.5-0.1,1-0.2,1.4c-0.1,0.5-0.4,0.8-0.8,1.2
	c0.1,0.1,0.1,0.3,0,0.6c0,0.2-0.1,0.5-0.3,0.8c-0.1,0.3-0.3,0.6-0.4,0.9c-0.1,0.3-0.3,0.6-0.4,0.8c-0.2,0-0.3,0.1-0.5,0.2
	s-0.3,0.2-0.4,0.4c-0.1,0.2-0.2,0.3-0.3,0.5s-0.1,0.4-0.2,0.6c-0.1,0.2-0.2,0.5-0.3,0.7c-0.1,0.3-0.2,0.5-0.3,0.7c0,0.1,0,0.1,0,0.1
	s0.1,0,0.2,0c0.1,0,0.1-0.1,0.2-0.2l0.3-0.9c0.1-0.2,0.2-0.4,0.3-0.5s0.3-0.2,0.4-0.3c-0.3,0.7-0.5,1.4-0.7,2.1s-0.4,1.4-0.7,2.1
	c-0.2,0.7-0.5,1.4-0.9,2.2h-0.4c-0.1,0-0.2,0-0.3,0.1s-0.2,0.2-0.3,0.3c-0.1,0.1-0.1,0.3-0.2,0.5c-0.1,0.2-0.2,0.5-0.3,0.7
	s-0.1,0.4-0.1,0.6s0.1,0.4,0.1,0.6c0.1,0.2,0.1,0.3,0.1,0.4c-0.1,0.2-0.2,0.3-0.2,0.5c-0.1,0.2-0.2,0.3-0.2,0.5
	C201.8,65.1,201.7,65.2,201.7,65.4L201.7,65.4z M203.3,61.3l-0.1-0.1h-0.1l-0.1,0.1l-0.4,0.9l0.1,0.4c0,0,0,0.1,0.1,0.1l0.1-0.1
	L203.3,61.3L203.3,61.3z M204.6,56.7c-0.1,0-0.1,0-0.2,0.1c-0.1,0.1-0.1,0.1-0.2,0.2l-1.1,3c0.1-0.1,0.2-0.2,0.3-0.3
	c0.1-0.1,0.2-0.3,0.3-0.5s0.1-0.4,0.2-0.5L204.6,56.7L204.6,56.7z M201.8,63.9c-0.1,0-0.1,0-0.2,0.1c-0.1,0-0.2,0.1-0.2,0.2
	l-0.3,0.8l0.2,0.2L201.8,63.9L201.8,63.9z M198.2,62.4c0,0,0.1-0.1,0.2-0.2c0.1-0.1,0.2-0.3,0.3-0.5s0.1-0.5,0.2-0.8h-0.4
	L198.2,62.4L198.2,62.4z M187.5,62.8l-0.1,0.6l-0.6,0.3c0,0,0-0.1,0.1-0.2s0.2-0.2,0.3-0.3C187.3,63.1,187.4,62.9,187.5,62.8
	l0.1-0.1C187.5,62.7,187.5,62.8,187.5,62.8L187.5,62.8z M194.4,60.2c-0.1,0-0.2,0.1-0.3,0.2s-0.1,0.2-0.2,0.4
	c-0.1,0.2-0.1,0.3-0.1,0.5h0.3L194.4,60.2z"/>
<linearGradient id="SVGID_1_" gradientUnits="userSpaceOnUse" x1="176.4282" y1="-1.7729" x2="176.2224" y2="-0.9753" gradientTransform="matrix(1 0 0 -1 0 77.5858)">
	<stop  offset="0" style="stop-color:#485155"/>
	<stop  offset="1" style="stop-color:#95A6B0"/>
</linearGradient>
<path class="st4" d="M133.7,86.9c0.8,2.8,3.8,4.5,6.7,3.8l73.2-18.4c2.9-0.7,4.7-3.6,4-6.5L133.7,86.9z"/>
<linearGradient id="SVGID_2_" gradientUnits="userSpaceOnUse" x1="167.9544" y1="30.5693" x2="167.6101" y2="32.0475" gradientTransform="matrix(1 0 0 -1 0 77.5858)">
	<stop  offset="0" style="stop-color:#95A6B0"/>
	<stop  offset="1" style="stop-color:#FFFFFF"/>
</linearGradient>
<path class="st5" d="M130.5,53.2c-2.9,0.7-4.7,3.7-4,6.5l83.9-21.1c-0.8-2.8-3.8-4.6-6.7-3.8L130.5,53.2z"/>
<path class="st1" d="M144.4,58.9c-0.5,0.2-0.9,0.3-1.2,0.6c-0.3,0.2-0.5,0.5-0.6,0.8c-0.2,0.3-0.3,0.6-0.4,1c-0.1,0.3-0.2,0.7-0.4,1
	s-0.4,0.7-0.7,1s-0.7,0.6-1.3,0.9c-0.5,0.2-1,0.5-1.6,0.7s-1.2,0.4-1.8,0.6s-1.2,0.3-1.7,0.4s-0.9,0.2-1.3,0.3
	c-0.1,0.2-0.2,0.4-0.3,0.6s-0.1,0.4-0.1,0.6c0,0.3,0.1,0.7,0.3,1c0.2,0.4,0.3,0.7,0.5,1s0.4,0.6,0.6,0.8c0.3,0,0.5-0.1,0.7-0.1
	c0.2-0.1,0.3-0.1,0.5-0.2s0.3-0.2,0.6-0.3c0.2-0.1,0.5-0.2,0.9-0.3l2.6-0.7c-0.3,0.9-0.5,1.7-0.8,2.6s-0.5,1.8-0.7,2.6
	c-0.2,0.9-0.4,1.7-0.6,2.4c-0.2,0.7-0.3,1.3-0.4,1.8c-0.1,0.5-0.1,0.8-0.1,1c0,0.1,0.1,0.2,0.1,0.3c0.1,0.1,0.1,0.2,0.2,0.3
	c0.1,0.4,0.2,0.8,0.2,1.2c0.1,0.4,0.2,0.7,0.3,0.9c0.1,0.2,0.4,0.4,0.6,0.4l-0.1,0.4c0.3,0,0.6-0.1,1-0.1c0.4-0.1,0.8-0.2,1.2-0.3
	c0.1-0.8,0.3-1.7,0.4-2.6c0.2-0.9,0.4-1.8,0.6-2.8c-0.1,0-0.3,0.1-0.4,0.1c-0.1,0.1-0.2,0.2-0.2,0.4l-0.3-0.1c0.1-0.3,0.2-0.6,0.3-1
	c0.1-0.3,0.2-0.7,0.3-1c0,0.1,0.1,0.2,0.1,0.3c0,0.1,0,0.3,0.1,0.4c0,0.1,0.1,0.1,0.2,0.1c0.1,0,0.1-0.1,0.2-0.3
	c0-0.1,0.1-0.3,0.1-0.5s0.1-0.4,0.1-0.5s0-0.3-0.1-0.4c0-0.1-0.1-0.3-0.2-0.5c0-0.2,0.1-0.4,0.1-0.6s0.1-0.4,0.1-0.6
	s0.1-0.3,0.2-0.3c0.1,0,0.1,0,0.1,0.1s0,0.2,0,0.3c0,0.1,0.1,0.2,0.2,0.1c0.1,0,0.2-0.1,0.3-0.3c0.1-0.2,0.2-0.4,0.2-0.6
	c0.1-0.2,0.1-0.5,0.2-0.7c0.1-0.2,0.1-0.5,0.1-0.7l-0.3-0.1c0.1-0.1,0.1-0.2,0.2-0.3c0.1-0.1,0.2-0.3,0.2-0.4
	c0.1-0.1,0.1-0.3,0.1-0.4c0.2-0.8,0.3-1.3,0.5-1.8c0.2-0.4,0.3-0.7,0.6-1c0.2-0.2,0.5-0.4,0.9-0.5c0.1-0.2,0.2-0.3,0.3-0.4
	s0.2-0.2,0.4-0.2v0.4l0.5-0.1c0.7-0.5,1.3-0.9,2-1.3c0.7-0.3,1.4-0.6,2-0.9c0.7-0.3,1.3-0.5,1.9-0.7c0.6-0.2,1.1-0.4,1.6-0.7
	c0,0,0-0.1-0.1-0.1v-0.1c0-0.1,0-0.1,0-0.2s0.1-0.1,0.2-0.1c0,0,0.1,0,0.2,0c0.1,0,0.2,0,0.3,0l0.1,0.2c0.1-0.1,0.2-0.1,0.3-0.2
	s0.2-0.1,0.2-0.2c-0.1-0.1-0.2-0.3-0.3-0.5s-0.1-0.4-0.1-0.6s0.1-0.5,0.2-0.7c-0.2-0.4-0.4-0.6-0.8-0.8c-0.3-0.2-0.7-0.3-1.1-0.4
	c-0.4-0.1-0.9-0.1-1.4-0.1c-0.5,0.2-1.1,0.5-1.8,0.8s-1.4,0.7-2.1,1c-0.7,0.4-1.5,0.7-2.2,1.1L144.4,58.9L144.4,58.9z M143,71.3
	l-0.2,0.7l-0.2-0.2l0.3-0.7L143,71.3L143,71.3z M170.3,56.2c0,0.1,0,0.2-0.1,0.3c-0.1,0.1-0.2,0.2-0.3,0.3c-0.1,0.1-0.3,0.2-0.4,0.4
	c-0.7,0.5-1.5,1-2.2,1.5c-0.7,0.4-1.5,0.8-2.2,1.2c-0.7,0.4-1.5,0.7-2.2,1.1s-1.5,0.7-2.2,1.2c-0.2,0.3-0.3,0.7-0.5,1.2
	c-0.2,0.4-0.4,0.9-0.6,1.5c0.3-0.1,0.7-0.3,1.2-0.6c0.5-0.3,0.9-0.5,1.4-0.8s0.9-0.6,1.3-0.8c0.4-0.2,0.7-0.4,1-0.5s0.6-0.1,0.8-0.1
	s0.4,0.1,0.6,0.3c0.2,0.2,0.4,0.4,0.7,0.7c0,0.2,0,0.4,0.1,0.5s0.2,0.2,0.4,0.3l-0.2,0.8c-0.4,0.2-0.9,0.4-1.5,0.7
	c-0.6,0.3-1.2,0.6-1.9,0.9s-1.3,0.6-2,1c-0.6,0.3-1.2,0.7-1.8,1c-0.5,0.3-1,0.6-1.3,0.8c-0.2,0.1-0.3,0.4-0.4,0.7
	c-0.1,0.3-0.2,0.7-0.3,1.2c-0.1,0.4-0.2,0.9-0.2,1.3c-0.1,0.5-0.1,0.9-0.1,1.2c0,0.4,0,0.6,0,0.8c0.4,0.1,0.8,0.2,1.2,0.1
	s0.9-0.2,1.3-0.4c0.4-0.2,0.8-0.4,1.1-0.5l0.2,0.3c0.1,0,0.2-0.1,0.3-0.2s0.2-0.2,0.1-0.3c0.1,0,0.2-0.1,0.3,0
	c0.1,0,0.2,0.1,0.3,0.2s0.2,0.1,0.3,0.2c0.1,0,0.2,0,0.3,0c0.7-0.4,1.4-0.8,2.2-1.3c0.7-0.5,1.5-0.9,2.1-1.3
	c0.7-0.4,1.3-0.8,1.8-1.2c0,0,0.1-0.1,0.2-0.1c0.1,0,0.1,0,0.1,0s0,0.1-0.1,0.2s-0.2,0.2-0.3,0.3c-0.1,0.1-0.2,0.2-0.3,0.2l-2.2,1.5
	c0.1,0,0.2,0.1,0.4,0.1s0.3,0.1,0.4,0.1c0,0,0.1,0,0,0.1l-0.1,0.1c-0.5,0.3-1.1,0.7-1.7,1.1c-0.6,0.4-1.2,0.7-1.8,1.1
	s-1.2,0.7-1.9,1c0.3,0,0.6,0,0.9-0.1c0.3-0.1,0.7-0.2,1-0.4c0.4-0.2,0.9-0.5,1.4-0.9c0.5-0.3,1-0.7,1.6-1c0.5-0.4,1.1-0.7,1.6-1
	l0.1-0.1h0.1c0,0,0,0.1,0,0.2c-0.1,0.2-0.2,0.4-0.3,0.5c-0.1,0.2-0.3,0.3-0.5,0.5c-0.7,0.5-1.4,1-2.2,1.5s-1.6,1-2.3,1.4
	c-0.8,0.4-1.5,0.7-2.2,0.9c-1,0.3-1.9,0.4-2.7,0.4s-1.6-0.2-2.2-0.5c-0.6-0.3-1.1-0.9-1.5-1.6s-0.6-1.7-0.7-2.9c0-0.6,0-1.3,0.2-2.1
	c0.2-0.8,0.4-1.6,0.7-2.6s0.7-2,1.1-3.2c0.4-1.2,0.9-2.5,1.4-3.9c-0.1-0.4-0.2-0.8-0.2-1.2c0-0.4,0.1-0.9,0.4-1.4
	c0.3-0.1,0.6-0.2,0.9-0.4c0.3-0.2,0.5-0.5,0.7-0.8s0.4-0.6,0.6-0.9c0.2-0.3,0.4-0.6,0.6-0.8c0.2-0.2,0.4-0.4,0.7-0.5
	c0.2,0,0.4-0.1,0.7-0.1s0.6,0,0.9-0.1c0.3,0,0.6,0,0.8,0s0.4,0,0.6,0c0.1,0.4,0.1,0.7,0,1.2c-0.1,0.4-0.2,0.9-0.4,1.4
	c0.1,0,0.3,0,0.6-0.1c0.2,0,0.5-0.1,0.8-0.1c0.3-0.1,0.6-0.1,0.8-0.2c0.3-0.1,0.5-0.1,0.7-0.2l0.4,0.5c0.1,0,0.2-0.1,0.3-0.2
	s0.3-0.2,0.5-0.2c0.1,0,0.3,0,0.5-0.1c0.2,0,0.4,0,0.6,0c0.2,0,0.4,0,0.6,0h0.1v0.1c-0.2,0.3-0.5,0.6-0.7,0.7
	c-0.2,0.2-0.4,0.3-0.6,0.4c-0.2,0.1-0.3,0.2-0.4,0.2c-0.1,0.1-0.2,0.2-0.2,0.2c0,0.1,0,0.2,0,0.4c0.5-0.3,0.9-0.6,1.3-0.9
	c0.4-0.3,0.9-0.6,1.3-0.9l0.1-0.1C170.1,56.2,170.2,56.1,170.3,56.2C170.3,56.1,170.3,56.1,170.3,56.2L170.3,56.2z M167.5,56.9
	c0-0.1-0.1-0.1-0.2-0.1c-0.1,0-0.2,0-0.3,0s-0.2,0.1-0.3,0.1l0.1,0.4L167.5,56.9L167.5,56.9z M157,70.1v0.4l0,0
	c0.1-0.2,0.2-0.3,0.3-0.5s0.2-0.4,0.2-0.5c-0.2,0-0.4,0.1-0.4,0.2S157,70,157,70.1L157,70.1z M157,73l-0.3-0.3c0,0.3,0,0.6,0,0.8
	c0,0.2,0.1,0.3,0.2,0.4L157,73L157,73z M166.9,69.9C166.9,69.8,166.9,69.8,166.9,69.9l-0.1-0.1c-0.6,0.4-1.2,0.9-2,1.3
	c-0.7,0.4-1.4,0.9-2.2,1.3c0.2,0.2,0.4,0.2,0.6,0.1c0.3-0.1,0.6-0.3,0.9-0.5c0.3-0.2,0.6-0.5,0.9-0.9c0.2-0.1,0.4-0.1,0.7-0.3
	c0.2-0.1,0.5-0.3,0.7-0.4C166.6,70.3,166.8,70.1,166.9,69.9L166.9,69.9z M160.2,62.3l-0.4,0.2l-0.5,1.1l0.4-0.2L160.2,62.3
	L160.2,62.3z M159.1,64.1c-0.1,0-0.2,0.1-0.3,0.2s-0.2,0.3-0.3,0.4c-0.1,0.2-0.1,0.3-0.1,0.4l0.4-0.2L159.1,64.1L159.1,64.1z
	 M157.3,70.6l-0.3,0.1l-0.2,1.3l0.3,0.2L157.3,70.6L157.3,70.6z M186.6,51.9c0-0.4,0-0.7-0.1-0.9c-0.1-0.3-0.2-0.5-0.4-0.7
	s-0.3-0.4-0.5-0.6s-0.3-0.4-0.5-0.7c-0.2,0-0.4-0.1-0.6-0.1c-0.2,0-0.4-0.1-0.6-0.1c-0.2,0-0.4,0-0.5,0c-0.2,0.1-0.5,0.3-0.9,0.6
	c-0.4,0.3-0.9,0.7-1.5,1.2c-0.5,0.5-1.1,1-1.7,1.6c-0.6,0.6-1.1,1.2-1.6,1.8c-0.5,0.6-1,1.2-1.3,1.7c-0.4,0.5-0.6,1-0.7,1.4
	l-0.2,0.1c0,0.1,0.1,0.3,0.1,0.5s0.1,0.3,0.2,0.4l-0.4,0.1c-0.1,0-0.2,0.2-0.3,0.4c-0.1,0.2-0.2,0.4-0.3,0.7
	c-0.1,0.3-0.2,0.5-0.3,0.7s-0.2,0.3-0.3,0.4c-0.1,0-0.2,0-0.2,0s0-0.1,0-0.2s0-0.1,0-0.2c0,0-0.1-0.1-0.2,0c-0.1,0-0.3,0.2-0.4,0.5
	c-0.2,0.3-0.4,0.7-0.6,1.1c-0.2,0.4-0.4,0.9-0.6,1.4c-0.2,0.5-0.4,0.9-0.5,1.3c0,0.1,0,0.3,0,0.4s0,0.3,0.1,0.4c0,0.1,0,0.3-0.1,0.4
	l-0.4-0.1c0,0.2,0,0.5,0,0.7s0,0.5-0.1,0.7s-0.2,0.4-0.3,0.6l0.1,0.9c0,0.2,0.1,0.4,0.1,0.6c0.1,0.2,0.1,0.4,0.2,0.5
	c0.1,0.1,0.2,0.3,0.4,0.5s0.4,0.5,0.7,0.8s0.5,0.5,0.7,0.8c0.2,0.2,0.4,0.4,0.6,0.5c0.3-0.1,0.5-0.1,0.7-0.1s0.3,0,0.5,0.1
	c0.1,0.1,0.3,0.1,0.4,0.1c0.2,0,0.3,0,0.5,0c0.1,0,0.2,0,0.3,0c0.1,0.1,0.2,0.1,0.3,0.2s0.2,0.1,0.4,0c0.3-0.1,0.5-0.2,0.8-0.3
	c0.3-0.1,0.6-0.3,0.9-0.4c0.3-0.2,0.5-0.3,0.8-0.4c-0.1-0.1-0.1-0.2-0.1-0.4c0.1-0.2,0.2-0.3,0.4-0.4c0.4-0.3,0.9-0.6,1.4-0.9
	s1-0.6,1.5-0.9s1-0.6,1.4-0.9s0.8-0.5,1.1-0.7s0.5-0.3,0.5-0.3l-0.3-0.3c-0.1-0.1-0.1-0.2-0.1-0.3c0-0.1,0.1-0.2,0.2-0.3
	c0.1-0.1,0.3-0.1,0.4-0.2l1.7-0.8l-0.4-0.1l-0.8,0.3h-0.5c-0.6,0.2-1.2,0.5-1.8,0.8s-1.3,0.6-1.9,0.9c-0.6,0.3-1.3,0.6-1.8,0.9
	c-0.2,0.2-0.4,0.4-0.6,0.6c-0.3,0.2-0.5,0.3-0.8,0.4s-0.5,0.1-0.8,0c0.1-0.2,0.3-0.4,0.5-0.6c0.3-0.2,0.6-0.4,1-0.7
	c0.4-0.2,0.8-0.5,1.3-0.7c0.4-0.2,0.9-0.4,1.2-0.6c-0.1-0.1-0.2-0.1-0.4-0.2c-0.2,0-0.4,0-0.6,0.1c-0.5,0.2-1,0.5-1.6,0.8
	s-1.1,0.6-1.6,0.8c-0.5,0.3-1,0.5-1.5,0.7s-0.8,0.4-1.1,0.5c-0.2,0.1-0.3,0-0.4,0c-0.1-0.1-0.2-0.2-0.2-0.4c0-0.3,0-0.8,0.2-1.3
	s0.4-1.1,0.7-1.7s0.6-1.2,0.9-1.8c0.3-0.6,0.6-1.1,0.9-1.5c0.3-0.4,0.4-0.7,0.6-0.9c0-0.1,0.1-0.2,0.1-0.4c0-0.2,0.1-0.3,0.1-0.4
	c0.3-0.4,0.6-0.8,0.9-1.1c0.3-0.4,0.6-0.8,0.9-1.1c0.3-0.4,0.4-0.6,0.5-0.9l0.2,0.3c0.1-0.2,0.3-0.4,0.5-0.6
	c0.2-0.3,0.4-0.5,0.6-0.9c0.2-0.3,0.5-0.6,0.8-1c0.4-0.4,0.8-0.8,1.2-1.1c0.4-0.4,0.9-0.7,1.4-1C185.7,52.5,186.1,52.2,186.6,51.9
	L186.6,51.9z M183.6,68.2L183.6,68.2c-0.3,0.3-0.6,0.6-0.9,0.8c-0.3,0.2-0.6,0.4-0.9,0.5c-0.1,0-0.2,0-0.2,0c-0.1,0-0.2,0-0.2,0
	c0.3-0.2,0.7-0.4,1.1-0.7C182.8,68.7,183.2,68.4,183.6,68.2L183.6,68.2z M180.6,70.4c-0.1,0-0.2,0-0.3,0.1c-0.1,0-0.2,0-0.3,0l1-0.7
	c0.1,0.1,0.2,0.1,0.2,0.2s-0.1,0.2-0.2,0.2C180.9,70.3,180.8,70.4,180.6,70.4L180.6,70.4z M173.9,60.5l-0.2,0.5l-0.4-0.1
	c0.1-0.2,0.1-0.3,0.2-0.4C173.7,60.6,173.8,60.5,173.9,60.5L173.9,60.5z M175.9,63.8l-0.9,1.8c-0.1-0.1-0.1-0.2-0.1-0.3
	c0-0.1,0.1-0.3,0.1-0.4c0.1-0.1,0.1-0.3,0.2-0.4l0.3-0.7H175.9L175.9,63.8z M174.8,66.2l-0.3,0.8l-0.2-0.2l0.2-0.5L174.8,66.2
	L174.8,66.2z M187,65.5l-1,0.6l-0.4-0.3l0.9-0.4L187,65.5L187,65.5z M183.7,65.1c-0.3,0.1-0.6,0.2-0.8,0.2c-0.3,0-0.5,0-0.6,0
	c0.4-0.2,0.9-0.4,1.3-0.6c0.4-0.2,0.9-0.4,1.2-0.6c0.4-0.2,0.8-0.3,1.1-0.4c0,0.2-0.2,0.4-0.4,0.6s-0.5,0.3-0.8,0.5
	C184.4,64.9,184,65,183.7,65.1L183.7,65.1z M176.9,61.2c0.2-0.3,0.3-0.5,0.5-0.7c0.1-0.2,0.3-0.3,0.5-0.4c0,0,0,0.1,0,0.2
	s-0.1,0.2-0.1,0.3c-0.1,0.2-0.2,0.4-0.4,0.7L176.9,61.2L176.9,61.2z M177.1,61.6l-0.2,0.4l-0.3-0.1l0.2-0.4L177.1,61.6L177.1,61.6z
	 M173.6,61.5l-0.4,0.8l-0.3-0.1l0.4-0.9L173.6,61.5L173.6,61.5z M201.6,65.1c0.1,0.1,0.2,0.1,0.3-0.1s0.3-0.5,0.5-0.9
	s0.4-0.9,0.5-1.5c0.1,0,0.2,0.2,0.2,0.4c0,0.2-0.1,0.5-0.2,0.8c-0.1,0.3-0.2,0.6-0.3,0.9s-0.2,0.6-0.3,0.9s-0.2,0.7-0.3,1
	s-0.2,0.6-0.3,0.8c-0.1,0.2-0.2,0.4-0.3,0.4c-0.2-0.1-0.5-0.2-0.9-0.3c-0.3-0.1-0.7-0.3-1-0.5s-0.6-0.4-0.9-0.7
	c-0.2-0.3-0.4-0.6-0.4-1c0-0.5,0-1.1,0.1-1.7s0.2-1.3,0.4-2s0.4-1.4,0.6-2c0.2-0.7,0.4-1.3,0.6-1.8l-0.2-0.2c-0.2,0-0.4,0.1-0.7,0.2
	s-0.6,0.2-1,0.4c-0.3,0.1-0.7,0.3-1,0.4s-0.6,0.2-0.8,0.3c-0.2,0.1-0.4,0.2-0.4,0.2c-0.1-0.1-0.1-0.1-0.2-0.1c-0.1,0-0.2,0-0.2,0
	c-0.3,0.1-0.5,0.2-0.6,0.4c-0.1,0.2-0.2,0.5-0.3,0.7c-0.1,0.3-0.2,0.8-0.3,1.3s-0.2,1-0.3,1.6s-0.2,1.2-0.3,1.7
	c-0.1,0.6-0.2,1.1-0.2,1.6c-0.1,0.5-0.1,0.9-0.2,1.2c-0.2,0.1-0.4,0.1-0.6,0c-0.1,0-0.3-0.1-0.4-0.2c-0.1-0.1-0.2-0.2-0.4-0.3
	c0,0,0,0-0.1,0.1h-0.1c0,0,0,0-0.1,0h-0.1c-0.1,0-0.1,0-0.2,0c-0.1,0-0.1,0-0.2,0l0.1-0.4c-0.4-0.1-0.7-0.3-0.9-0.5
	s-0.3-0.5-0.4-0.7c-0.1-0.3-0.1-0.6,0-1c0-0.4,0.1-0.8,0.2-1.2c0.1-0.4,0.1-0.9,0.2-1.5c-0.3,0-0.5,0.1-0.9,0.2
	c-0.3,0.1-0.6,0.2-0.9,0.3c-0.3,0.1-0.6,0.2-0.9,0.3c0.1-0.3,0.2-0.5,0.4-0.6c0.2-0.2,0.4-0.3,0.6-0.5c0.2-0.1,0.4-0.3,0.6-0.4
	l-0.6-0.1l1.8-1.3c0-0.2,0.1-0.3,0.2-0.5c0.1-0.1,0.1-0.3,0.2-0.4c0.1-0.1,0.1-0.3,0.2-0.5c0.2-0.4,0.3-0.9,0.4-1.3
	c0.1-0.5,0.2-0.9,0.3-1.4s0.2-0.9,0.4-1.4c0.3-0.8,0.7-1.7,1-2.6c0.4-0.9,0.7-1.8,1.1-2.6c0.3-0.9,0.7-1.7,1-2.5s0.5-1.6,0.7-2.3
	l0.1-0.1c0,0,0-0.1,0.1-0.1c0,0,0.1-0.1,0.3-0.1c0.4-0.1,0.8-0.2,1-0.1c0.3,0,0.5,0.1,0.6,0.3c0.2,0.1,0.3,0.3,0.5,0.5
	s0.4,0.4,0.6,0.5c0.1,0.4,0.1,0.7,0.2,1c0.1,0.3,0.1,0.7,0.1,1.1s0,0.9-0.1,1.5l-0.2,0.1c-0.1,0.4-0.2,0.9-0.4,1.4s-0.4,1.1-0.7,1.7
	s-0.5,1.2-0.7,1.7c-0.3,0.3-0.5,0.5-0.7,0.9c-0.2,0.3-0.2,0.7-0.2,1l0.7-0.4c0.3-0.4,0.6-0.8,1-1.1c0.4-0.3,0.8-0.5,1.2-0.7
	s0.8-0.3,1.3-0.5c0.2-0.1,0.5-0.1,0.8-0.1s0.6,0,0.8,0c0.6-1,1.1-2.1,1.6-3.2s0.9-2.2,1.3-3.3c0.4-1.1,0.8-2.2,1.2-3.3
	c0.1-0.1,0.1-0.3,0.3-0.4c0.1-0.1,0.3-0.2,0.4-0.2c0.3-0.1,0.5-0.1,0.8,0.1c0.2,0.1,0.4,0.3,0.6,0.6c0.2,0.3,0.3,0.6,0.4,0.9
	c0.1,0.3,0.2,0.6,0.2,1c0,0.3,0,0.5,0,0.8s0,0.5-0.1,0.8s-0.2,0.5-0.3,0.7c0,0.5-0.1,1-0.2,1.4c-0.1,0.5-0.4,0.8-0.8,1.2
	c0.1,0.1,0.1,0.3,0,0.6c0,0.2-0.1,0.5-0.3,0.8c-0.1,0.3-0.3,0.6-0.4,0.9c-0.1,0.3-0.3,0.6-0.4,0.8c-0.2,0-0.3,0.1-0.5,0.2
	s-0.3,0.2-0.4,0.4c-0.1,0.2-0.2,0.3-0.3,0.5s-0.1,0.4-0.2,0.6c-0.1,0.2-0.2,0.5-0.3,0.7c-0.1,0.3-0.2,0.5-0.3,0.7c0,0.1,0,0.1,0,0.1
	s0.1,0,0.2,0c0.1,0,0.1-0.1,0.2-0.2l0.3-0.9c0.1-0.2,0.2-0.4,0.3-0.5s0.3-0.2,0.4-0.3c-0.3,0.7-0.5,1.4-0.7,2.2
	c-0.2,0.7-0.4,1.4-0.7,2.1c-0.2,0.7-0.5,1.4-0.9,2.2h-0.4c-0.1,0-0.2,0-0.3,0.1s-0.2,0.2-0.3,0.3c-0.1,0.1-0.1,0.3-0.2,0.5
	c-0.1,0.2-0.2,0.5-0.3,0.7s-0.1,0.4-0.1,0.6s0.1,0.4,0.1,0.6c0.1,0.2,0.1,0.3,0.1,0.4c-0.1,0.2-0.2,0.3-0.2,0.5
	c-0.1,0.2-0.2,0.3-0.2,0.5C201.6,64.8,201.6,64.9,201.6,65.1L201.6,65.1z M203.1,61l-0.1-0.1h-0.1l-0.1,0.1l-0.4,0.9l0.1,0.4
	c0,0,0,0.1,0.1,0.1l0.1-0.1L203.1,61L203.1,61z M204.4,56.4c-0.1,0-0.1,0-0.2,0.1c-0.1,0.1-0.1,0.1-0.2,0.2l-1.1,3
	c0.1-0.1,0.2-0.2,0.3-0.3c0.1-0.1,0.2-0.3,0.3-0.5s0.1-0.4,0.2-0.5L204.4,56.4L204.4,56.4z M201.6,63.6c-0.1,0-0.1,0-0.2,0.1
	c-0.1,0-0.2,0.1-0.2,0.2l-0.3,0.8l0.2,0.2L201.6,63.6L201.6,63.6z M198,62.1c0,0,0.1-0.1,0.2-0.2c0.1-0.1,0.2-0.3,0.3-0.5
	s0.1-0.5,0.2-0.8h-0.4L198,62.1L198,62.1z M187.4,62.5l-0.1,0.6l-0.6,0.3c0,0,0-0.1,0.1-0.2s0.2-0.2,0.3-0.3
	C187.2,62.8,187.3,62.6,187.4,62.5l0.1-0.1C187.4,62.4,187.4,62.5,187.4,62.5L187.4,62.5z M194.2,59.9c-0.1,0-0.2,0.1-0.3,0.2
	s-0.1,0.2-0.2,0.4c-0.1,0.2-0.1,0.3-0.1,0.5h0.3L194.2,59.9z"/>
<path class="st2" d="M69,12h7v24.3c0,1.6,0.3,3.3,1.5,4.5c1.2,1.2,2.8,1.5,4.4,1.5h7.5v6.4h-6.7c-3.6,0-7.5-0.7-10.2-3.3
	c-2.7-2.6-3.5-6.3-3.5-9.9V12z"/>
<path class="st6" d="M107,49c0.7,0.4,0.5,2.2,0.2,4.3c-0.1,1.2-0.3,2.4-0.3,3.6c0,1.3,0.2,2.6,0.5,3.8c0.4,1.4,0.9,2.6,1.5,3.4
	c1.2,1.9,0.2,4.4-0.8,6.9c-0.6,1.6-1.3,3.2-1.3,4.6c-1.2,0-0.5-1.5-0.2-2.2c0.2-0.8,0.6-1.6,0.9-2.5c1-2.4,1.9-4.8,0.8-6.6
	c-0.5-0.8-1.1-2-1.5-3.5c-0.3-1.2-0.5-2.5-0.5-3.9c0-1.1,0.2-2.4,0.3-3.6c0.2-1.9,0.4-3.6,0-3.9L107,49z"/>
<path class="st7" d="M106.8,50.2c9.2,0,16.7-8.9,16.7-19.7c0-10.9-7.5-19.7-16.7-19.7s-16.7,8.9-16.7,19.7
	C90.1,41.3,97.6,50.2,106.8,50.2z"/>
<path class="st8" d="M113.7,12.5c5.8,3.1,9.8,10,9.8,18c0,10.9-7.5,19.7-16.7,19.7c-1.9,0-3.6-0.4-5.3-1c-5.8-3.1-6.4-9.4-6.4-18.8
	s9.2-19.6,14.3-19.4C112,11.4,112.3,11.9,113.7,12.5z"/>
<path class="st8" d="M13.3,64.3h-0.2c-0.1,0-0.2,0-0.3-0.1c0,0-0.1-0.2-0.2-0.3c-0.2-0.6-0.3-1-0.3-1.2s0.1-0.3,0.2-0.4
	c0.1-0.1,0.4-0.3,0.9-0.6c0.6-0.4,1.2-0.8,1.7-1.2c0.1-0.1,0.1-0.1,0.2-0.1c0.1,0,0.3,0.2,0.5,0.6c0.3,0.5,0.4,0.8,0.4,0.9
	s0,0.2-0.1,0.4l-0.2,0.8c-0.2,0.8-0.6,1.8-1,2.9s-0.8,2.3-1.2,3.7c-0.4,1.1-0.6,1.7-0.6,1.9c-0.1,0.4-0.2,0.6-0.2,0.7
	c-0.1,0.1-0.1,0.2-0.2,0.2c-0.1,0-0.2-0.1-0.4-0.2c-0.1-0.1-0.3-0.2-0.6-0.3c-0.2,0-0.4-0.3-0.5-0.7c-0.1-0.5-0.2-0.7-0.2-0.8
	c0-0.4,0.3-1.3,0.9-2.7c0.1-0.1,0.1-0.4,0.3-0.7c0.1-0.3,0.3-0.7,0.4-1.1C12.8,65.3,13.1,64.8,13.3,64.3L13.3,64.3z M32.1,65.5
	l0.4,0.5l0.2,0.3v0.3c0,0.7-0.3,1.8-0.8,3.4s-1.1,2.9-1.7,3.9c-0.3,0.5-0.6,0.9-0.9,1.1c-0.3,0.3-0.7,0.5-1.2,0.7
	c-0.4,0.2-0.7,0.3-0.8,0.3c-0.2,0-0.3-0.1-0.5-0.4c-0.1-0.2-0.2-0.3-0.3-0.5c-0.1-0.2-0.2-0.6-0.2-1.2c0-0.1,0-0.2,0-0.3
	c0,0,0.1-0.1,0.2-0.1s0.1,0,0.2,0c0,0,0.2,0,0.4-0.1l0.6-0.1c0.2,0,0.4-0.1,0.5-0.2s0.3-0.2,0.4-0.5c0.2-0.3,0.4-0.6,0.6-1.1
	l-0.4,0.2C28.3,71.9,28.1,72,28,72c-0.2,0-0.5-0.3-0.8-1c-0.2-0.4-0.3-0.7-0.3-1c0-0.7,0.2-1.6,0.5-2.7c0.4-1.1,1-2,1.9-2.8
	c0.3-0.3,0.6-0.5,0.8-0.6c0.2-0.1,0.5-0.3,1-0.5c0.4-0.2,0.6-0.3,0.7-0.3c0.3,0,0.5,0.3,0.8,0.8c0.3,0.5,0.4,0.9,0.4,1
	c0,0.2-0.1,0.3-0.3,0.4C32.3,65.3,32.2,65.4,32.1,65.5L32.1,65.5z M30.8,66.1c-0.1,0.1-0.2,0.2-0.4,0.2c-0.1,0.1-0.2,0.2-0.3,0.3
	c-0.1,0.1-0.3,0.4-0.5,0.7c-0.2,0.4-0.4,0.7-0.5,1s-0.2,0.6-0.3,1c0.1,0,0.2,0,0.3,0l0.7-0.5l0.2-0.6C30.4,67.5,30.6,66.9,30.8,66.1
	L30.8,66.1z M36.2,62.9c0.1,0,0.2,0,0.3,0.1s0.2,0.4,0.5,0.9c0.1,0.2,0.1,0.2,0.2,0.3c0,0,0.1,0,0.3,0.1c0.2,0,0.3,0,0.5,0.1
	c0.1,0.1,0.2,0.1,0.3,0.2s0.2,0.4,0.2,0.8c0.1,0.4,0.1,0.8,0.1,1.3c0,1-0.2,2-0.6,2.9c-0.4,1-1,1.7-1.7,2.2
	c-0.3,0.2-0.6,0.3-0.8,0.3c-0.3,0-0.6-0.1-0.9-0.3c-0.4-0.2-0.6-0.4-0.9-0.7c-0.4-0.5-0.6-1.2-0.6-2c0-0.6,0.1-1.3,0.3-2
	s0.5-1.4,0.8-1.9c0.4-0.6,0.8-1.2,1.3-1.8C35.7,63,36,62.9,36.2,62.9L36.2,62.9z M36.5,65.8c-0.1,0-0.2,0.1-0.4,0.5
	c-0.2,0.3-0.3,0.7-0.5,1.1c-0.1,0.3-0.2,0.7-0.3,1.2c-0.1,0.4-0.1,0.7-0.1,0.9c0,0.2,0.1,0.3,0.2,0.3c0.1,0,0.3-0.2,0.5-0.5
	s0.4-0.8,0.6-1.3c0.2-0.6,0.4-1.1,0.4-1.5C36.7,66,36.6,65.8,36.5,65.8L36.5,65.8z M43.2,64.3c0.3-0.9,0.6-2,1.1-3.3
	c0.2-0.5,0.3-0.8,0.3-0.9c0.1-0.1,0.1-0.1,0.3-0.1c0.3,0,0.4,0,0.5,0.1s0.2,0.2,0.2,0.4c0,0.1,0.1,0.2,0.1,0.2l0.2,0.1
	c0.1,0.1,0.2,0.2,0.3,0.4c0.1,0.2,0.1,0.3,0.1,0.4s0,0.3-0.1,0.5l-0.4,1.1c-0.5,1.4-0.8,2.5-1.1,3.2c-0.2,0.6-0.4,1.3-0.6,2.1
	c-0.1,0.6-0.3,1.2-0.3,1.7c-0.1,0.5-0.1,1-0.2,1.5c0,0.2-0.1,0.3-0.1,0.4c-0.1,0.1-0.2,0.1-0.3,0.1s-0.3-0.1-0.6-0.2
	s-0.5-0.2-0.7-0.3c-0.1-0.1-0.2-0.1-0.2-0.2s-0.1-0.2-0.1-0.5c-0.6,0.6-1,0.9-1.3,0.9s-0.6-0.3-0.9-0.8c-0.2-0.3-0.4-0.6-0.4-0.8
	c-0.1-0.3-0.1-0.6-0.1-1c0-0.6,0.1-1.3,0.3-2s0.4-1.3,0.8-1.8c0.4-0.7,1.2-1.4,2.1-2.2l0.2-0.2c0.1-0.1,0.2-0.1,0.3-0.1
	s0.2,0.2,0.4,0.5L43.2,64.3L43.2,64.3z M42.8,65.8c-0.4,0.4-0.8,0.9-1.1,1.4c-0.2,0.4-0.4,0.8-0.5,1.1C41,68.6,41,68.9,41,69.2
	c0,0.2,0.1,0.3,0.2,0.3c0.1,0,0.4-0.2,0.8-0.7C42.1,68.3,42.3,67.3,42.8,65.8L42.8,65.8z M48.3,59.8c0.1,0,0.1,0,0.2,0.1l0.6,0.5
	l0.5,0.4c0.2,0.1,0.3,0.3,0.3,0.5s-0.1,0.4-0.2,0.6c-0.1,0.2-0.2,0.3-0.2,0.5c-0.1,0.1-0.1,0.3-0.2,0.5c-0.1,0.5-0.3,0.7-0.4,0.7
	c-0.1,0-0.5-0.3-1-0.8c-0.3-0.3-0.4-0.5-0.4-0.8c0-0.1,0.1-0.4,0.2-0.9c0.1-0.4,0.2-0.7,0.3-0.9C48,60,48.1,59.8,48.3,59.8
	L48.3,59.8z M47.3,63.5c-0.1,0-0.3,0.2-0.4,0.5c-0.1,0.3-0.5,1.3-0.9,2.8c-0.7,2.2-1.1,3.5-1.1,3.8c0,0.2,0,0.3,0.1,0.5
	c0.1,0.1,0.1,0.2,0.2,0.3c0,0,0.1,0.1,0.3,0.1c0.2,0.1,0.4,0.2,0.5,0.3c0.1,0.2,0.3,0.3,0.4,0.3c0.2,0,0.3-0.1,0.4-0.2
	c0.1-0.1,0.2-0.3,0.2-0.5l0.1-0.5l0.1-0.5c0.3-1.2,0.5-2.1,0.8-2.9c0.2-0.7,0.4-1.2,0.5-1.5l0.2-0.6c0-0.1,0-0.2,0-0.3
	c0-0.3-0.2-0.7-0.7-1.2c-0.2-0.2-0.3-0.3-0.5-0.4C47.4,63.5,47.3,63.5,47.3,63.5L47.3,63.5z M51.7,64.4c0-0.3,0-0.5-0.1-0.5
	c-0.1-0.1-0.2-0.2-0.6-0.3l-0.4-0.2c-0.1-0.1-0.2-0.1-0.3-0.1s-0.2,0.1-0.3,0.2c0.1,0,0,0.3,0,0.6c-0.1,0.6-0.2,1.1-0.3,1.5
	s-0.3,0.9-0.5,1.4s-0.3,0.9-0.4,1.2c-0.1,0.3-0.2,0.6-0.3,0.8l-0.2,0.6c-0.1,0.4-0.2,0.7-0.2,0.8c0,0.1,0,0.3,0.1,0.4
	s0.2,0.3,0.5,0.5c0.5,0.4,0.8,0.7,1,0.7c0.1,0,0.2-0.1,0.2-0.3c0.1-0.2,0.2-0.5,0.3-1.1c0.2-0.6,0.4-1.6,0.9-3
	c0.2-0.6,0.3-0.9,0.3-1c0.1-0.1,0.2-0.2,0.3-0.2c0.1-0.1,0.2-0.1,0.3-0.1s0.1,0,0.1,0.1c0,0,0.1,0.1,0.1,0.2c0,0.2-0.1,0.5-0.2,1
	c-0.1,0.2-0.2,0.5-0.3,1c-0.2,0.7-0.4,1.2-0.5,1.5c-0.1,0.2-0.2,0.4-0.2,0.5s-0.1,0.2-0.1,0.3v0.2c0,0.1,0.1,0.3,0.4,0.6
	c0.3,0.4,0.6,0.6,0.7,0.6c0,0,0.1,0,0.2,0c0.1,0,0.1,0,0.2-0.1c0.2-0.1,0.3-0.2,0.4-0.2c0.1-0.1,0.2-0.5,0.4-1.1s0.4-1.4,0.6-2.2
	c0.2-1,0.4-1.7,0.4-1.9c0-0.2,0.1-0.5,0.1-0.7c0-0.6-0.2-1.1-0.5-1.7c-0.3-0.5-0.6-0.8-0.8-0.8C52.9,63.5,52.5,63.8,51.7,64.4
	L51.7,64.4z M61.2,64.3c-0.5,1.3-0.9,2.5-1.2,3.5c-0.3,1.1-0.4,2.1-0.4,2.9c0,0.3,0,0.5,0,0.7s-0.1,0.3-0.1,0.4
	c-0.1,0.2-0.2,0.3-0.4,0.3c-0.1,0-0.5-0.1-1.1-0.4c-0.2-0.1-0.4-0.2-0.4-0.2s-0.1-0.1-0.1-0.2v-0.2c-0.2,0.2-0.4,0.3-0.4,0.3
	c-0.2,0.1-0.3,0.2-0.5,0.3c-0.1,0.1-0.3,0.1-0.5,0.1s-0.5-0.2-0.8-0.6c-0.5-0.6-0.7-1.3-0.7-2c0-0.9,0.2-1.8,0.5-2.6
	c0.3-0.9,0.8-1.6,1.3-2.3c0.4-0.5,0.9-0.9,1.3-1.2c0.3-0.2,0.5-0.3,0.6-0.3s0.3,0.2,0.5,0.6l0.2,0.5l0.1-0.3
	c0.1-0.3,0.2-0.5,0.3-0.6s0.2-0.2,0.3-0.2C60,63,60.5,63.4,61.2,64.3L61.2,64.3z M57.8,68.3l0.3-1.1c0.1-0.3,0.2-0.7,0.3-1.1
	c-0.2,0-0.3,0.1-0.5,0.2s-0.3,0.3-0.5,0.6c-0.2,0.3-0.3,0.7-0.5,1.1c-0.1,0.4-0.2,0.7-0.2,0.9c0,0.1,0,0.2,0.1,0.2s0.1,0,0.2-0.1
	C57.2,69,57.4,68.7,57.8,68.3L57.8,68.3z M66.7,69.2c0,0-0.1-0.1-0.1-0.2s-0.1-0.1-0.1-0.1L66,68.5c-0.5-0.4-0.7-0.9-0.7-1.7
	c0-1.2,0.5-2.1,1.5-2.7c0.7-0.5,1.3-0.7,1.9-0.7c0.4,0,0.8,0.2,1.1,0.6c0.2,0.2,0.3,0.5,0.3,0.9c0,0.2,0,0.4-0.1,0.7
	c0,0.2-0.1,0.4-0.1,0.5c-0.1,0.1-0.2,0.2-0.5,0.3c-0.3,0.1-0.5,0.1-0.7,0.1c-0.1,0-0.2-0.1-0.2-0.2v-0.2v-0.2c0-0.2-0.1-0.3-0.2-0.3
	s-0.2,0.1-0.5,0.3c-0.2,0.1-0.3,0.3-0.3,0.4s0.1,0.3,0.3,0.4c0.5,0.3,0.8,0.7,1,0.9c0.2,0.3,0.3,0.7,0.3,1.2s-0.1,1-0.4,1.5
	c-0.2,0.4-0.6,0.9-1.1,1.3c-0.6,0.5-1.2,0.8-1.6,0.8s-0.8-0.2-1.3-0.7S64,70.8,64,70.4c0-0.2,0.1-0.6,0.4-1c0.2-0.4,0.4-0.7,0.6-0.7
	c0.1,0,0.3,0.2,0.4,0.6s0.3,0.6,0.6,0.6C66.1,69.8,66.3,69.6,66.7,69.2L66.7,69.2z M76.1,68.1c0.3-0.6,0.6-1.1,0.8-1.6
	c0.1-0.2,0.2-0.6,0.4-1c0.1-0.4,0.3-0.9,0.5-1.4c0.3-0.8,0.5-1.5,0.7-2c0.1-0.4,0.3-1,0.4-1.8c0.1-0.4,0.3-0.6,0.5-0.6
	s0.5,0.1,0.7,0.4c0,0.1,0.2,0.3,0.4,0.8V61c0,0.1,0.1,0.2,0.2,0.3c0.2,0.2,0.2,0.5,0.2,0.7c0,0.3-0.1,0.7-0.3,1.3
	c-0.2,0.6-0.4,1.2-0.7,1.8c-0.4,0.8-0.7,1.6-1,2.1c-0.3,0.6-0.7,1.4-1.3,2.3l-0.7,1.2C76.4,71.6,76,72,75.8,72s-0.5-0.2-1-0.7
	c-0.4-0.4-0.6-0.8-0.6-1.1c0-0.1,0-0.3,0-0.5s0.1-0.9,0.3-2.2c0.1-1.3,0.3-2.4,0.4-3.3c0.1-0.6,0.2-1.2,0.2-1.7
	c0.1-0.5,0.1-0.9,0.1-1.2c0-0.2,0-0.4,0-0.5s0.1-0.3,0.1-0.4c0.1-0.2,0.2-0.3,0.5-0.4s0.5-0.2,0.6-0.2s0.4,0.2,1,0.7
	c0.1,0.1,0.2,0.2,0.2,0.2c0,0.1,0,0.2,0,0.3c0,0.3,0,0.6-0.1,1.1l-1,5L76.1,68.1L76.1,68.1z M86.1,64.3c-0.7-0.9-1.2-1.3-1.6-1.3
	c-0.1,0-0.3,0.1-0.3,0.2c-0.1,0.1-0.2,0.3-0.3,0.6l-0.1,0.3l-0.2-0.5c-0.2-0.4-0.3-0.6-0.5-0.6c-0.1,0-0.3,0.1-0.6,0.3
	c-0.4,0.3-0.9,0.7-1.3,1.2c-0.6,0.7-1,1.4-1.3,2.3s-0.5,1.7-0.5,2.6c0,0.7,0.2,1.4,0.7,2c0.3,0.4,0.6,0.6,0.8,0.6
	c0.2,0,0.3,0,0.5-0.1c0.1-0.1,0.3-0.2,0.5-0.3c0.1-0.1,0.2-0.2,0.4-0.3v0.2c0,0.1,0,0.2,0.1,0.2c0,0,0.2,0.1,0.4,0.2
	c0.6,0.3,1,0.4,1.1,0.4c0.2,0,0.3-0.1,0.4-0.3c0-0.1,0.1-0.2,0.1-0.4c0-0.2,0-0.4,0-0.7c0-0.8,0.1-1.8,0.4-2.9
	C85.1,66.8,85.5,65.6,86.1,64.3L86.1,64.3z M82.7,68.3C82.3,68.7,82.1,69,82,69c-0.1,0.1-0.1,0.1-0.2,0.1s-0.1-0.1-0.1-0.2
	c0-0.2,0.1-0.5,0.2-0.9s0.3-0.8,0.5-1.1c0.2-0.3,0.3-0.5,0.5-0.6s0.3-0.2,0.5-0.2c-0.1,0.4-0.3,0.8-0.3,1.1L82.7,68.3L82.7,68.3z
	 M91.7,64.5c0.6-0.5,1.1-0.7,1.4-0.7s0.6,0.3,0.9,0.8s0.4,1,0.4,1.4c0,0.2,0,0.4,0,0.6s-0.1,0.5-0.1,0.8c-0.1,0.6-0.4,1.6-0.8,3.2
	c-0.1,0.6-0.2,0.9-0.2,1c0,0.2-0.1,0.4-0.1,0.5c-0.1,0.2-0.3,0.3-0.5,0.3s-0.4-0.1-0.6-0.4l-0.4-0.4c-0.2-0.2-0.3-0.4-0.3-0.6
	c0-0.1,0.1-0.6,0.3-1.4c0.4-1.2,0.6-1.9,0.6-2.2c0.1-0.4,0.1-0.6,0.1-0.7s0-0.2-0.1-0.2S92,66.7,91.6,67c0,0.2-0.1,0.5-0.2,0.9
	s-0.2,0.8-0.3,1.2c-0.1,0.4-0.3,1-0.5,1.7c-0.1,0.3-0.2,0.7-0.3,1c-0.1,0.4-0.2,0.5-0.4,0.5c-0.1,0-0.2-0.1-0.4-0.2
	C89.4,72,89.2,72,89,71.9c-0.1,0-0.2,0-0.2-0.1l-0.1-0.3l-0.3-0.7c0-0.1,0-0.2,0-0.3c0-0.1,0.1-0.5,0.3-1c0.6-1.6,0.9-2.6,0.9-2.9
	c0-0.2-0.1-0.2-0.2-0.2c-0.2,0-0.4,0.2-0.7,0.5l-0.8,2.8l-0.5,1.8c-0.1,0.3-0.1,0.4-0.2,0.5s-0.2,0.1-0.4,0.1c-0.1,0-0.3,0-0.4-0.1
	s-0.3-0.3-0.5-0.6c-0.3-0.4-0.4-0.7-0.4-1c0-0.2,0-0.3,0.1-0.5s0.2-0.8,0.6-1.7c0.1-0.1,0.1-0.3,0.2-0.6c0.1-0.3,0.2-0.6,0.3-0.9
	c0.1-0.2,0.1-0.5,0.3-0.9c0.1-0.3,0.1-0.4,0.1-0.5l0.4-1.5c0-0.2,0.1-0.3,0.1-0.4c0.1-0.1,0.1-0.1,0.3-0.1c0.4,0,0.9,0.4,1.5,1.2
	c0.8-0.6,1.3-0.9,1.6-0.9c0.2,0,0.3,0.1,0.4,0.2C91.4,63.7,91.5,64,91.7,64.5L91.7,64.5z M101.3,64.3c-0.5,1.3-0.9,2.5-1.2,3.5
	c-0.3,1.1-0.4,2.1-0.4,2.9c0,0.3,0,0.5,0,0.7s-0.1,0.3-0.1,0.4c-0.1,0.2-0.2,0.3-0.4,0.3c-0.1,0-0.5-0.1-1.1-0.4
	c-0.2-0.1-0.4-0.2-0.4-0.2s-0.1-0.1-0.1-0.2v-0.2c-0.2,0.2-0.4,0.3-0.4,0.3c-0.2,0.1-0.3,0.2-0.5,0.3c-0.1,0.1-0.3,0.1-0.5,0.1
	s-0.5-0.2-0.8-0.6c-0.5-0.6-0.7-1.3-0.7-2c0-0.9,0.2-1.8,0.5-2.6c0.3-0.9,0.8-1.6,1.3-2.3c0.4-0.5,0.9-0.9,1.3-1.2
	c0.3-0.2,0.5-0.3,0.6-0.3s0.3,0.2,0.5,0.6l0.2,0.5l0.1-0.3c0.1-0.3,0.2-0.5,0.3-0.6c0.1-0.1,0.2-0.2,0.3-0.2
	C100,63,100.6,63.4,101.3,64.3L101.3,64.3z M97.9,68.3l0.3-1.1c0.1-0.3,0.2-0.7,0.3-1.1c-0.2,0-0.3,0.1-0.5,0.2s-0.3,0.3-0.5,0.6
	c-0.2,0.3-0.3,0.7-0.5,1.1c-0.1,0.4-0.2,0.7-0.2,0.9c0,0.1,0,0.2,0.1,0.2s0.1,0,0.2-0.1C97.2,69,97.5,68.7,97.9,68.3L97.9,68.3z
	 M20.6,64.5c0.1,0,0.2,0,0.3,0c0.1,0,0.2,0,0.3,0h0.2c0.2,0,0.4,0,0.5,0.1s0.3,0.3,0.4,0.6c0.3,0.7,0.5,1.3,0.5,1.9
	c0,0.4,0,0.8-0.1,1.1c-0.1,0.4-0.2,0.7-0.3,1.1c-0.5,1.2-1.2,2.1-2.1,2.6c-0.2,0.1-0.4,0.2-0.5,0.2c-0.2,0.1-0.4,0.1-0.5,0.1
	c-0.6,0-1.2-0.4-1.7-1.1c-0.3-0.4-0.4-0.7-0.6-1c-0.1-0.3-0.2-0.7-0.2-1.1c0-1.8,0.5-3.6,1.5-5.3c0.7-1.3,1.5-2.3,2.4-3.1
	c0.5-0.5,0.9-0.7,1.2-0.7c0.2,0,0.5,0.3,0.9,0.8c0.3,0.4,0.5,0.7,0.5,0.9c0,0.2-0.1,0.3-0.3,0.4C22.1,62.3,21.3,63.2,20.6,64.5
	L20.6,64.5z M19.5,67.4c0,0.1,0,0.2-0.1,0.3c0,0.2-0.1,0.3-0.1,0.5c-0.1,0.4-0.1,0.7-0.1,1c0,0.2,0.1,0.3,0.2,0.3
	c0.2,0,0.4-0.3,0.8-1c0.4-0.6,0.5-1.1,0.5-1.4c0-0.2-0.1-0.3-0.3-0.3c-0.1,0-0.3,0-0.5,0.1l-0.2,0.2L19.5,67.4z"/>
<path class="st1" d="M99.8,28.4h-0.3c-0.2,0-0.4,0-0.5-0.1s-0.2-0.2-0.4-0.5c-0.5-1-0.7-1.7-0.8-2c0-0.3,0-0.5,0.2-0.7
	c0.1-0.2,0.6-0.6,1.3-1.3c0.9-0.8,1.8-1.6,2.5-2.4c0.1-0.1,0.2-0.2,0.3-0.2c0.2,0,0.6,0.2,1.1,0.8c0.6,0.7,0.9,1.2,1,1.4
	c0,0.1,0,0.3,0,0.6l-0.2,1.4c-0.2,1.4-0.5,3.1-0.9,5.2c-0.3,1.9-0.7,4.1-1.2,6.6c-0.4,1.9-0.6,3-0.6,3.4c-0.1,0.6-0.2,1-0.2,1.3
	c-0.1,0.2-0.2,0.3-0.4,0.4c-0.2,0-0.4-0.1-0.7-0.3c-0.3-0.2-0.6-0.3-1-0.3s-0.8-0.4-1.1-1c-0.2-0.4-0.3-0.8-0.4-1
	c-0.1-0.6,0.2-2.2,0.8-4.9c0.1-0.2,0.1-0.6,0.3-1.2c0.1-0.6,0.3-1.2,0.4-1.9C99.4,30.4,99.6,29.3,99.8,28.4L99.8,28.4z M112.3,26.9
	c0.2,0,0.3-0.1,0.5-0.1c0.2-0.1,0.4-0.1,0.5-0.2l0.4-0.1c0.4-0.1,0.7,0,0.9,0.1c0.2,0.1,0.5,0.4,0.9,0.9c0.8,1,1.2,2.1,1.3,3
	c0.1,0.6,0.1,1.3,0.1,1.9c0,0.6-0.1,1.3-0.3,2c-0.5,2.2-1.5,3.9-2.9,5c-0.3,0.2-0.6,0.4-0.9,0.6c-0.3,0.1-0.6,0.2-0.8,0.3
	c-1,0.2-2.1-0.3-3.2-1.5c-0.5-0.6-0.9-1.1-1.2-1.6c-0.3-0.5-0.4-1.2-0.6-1.9c-0.5-3-0.1-6.2,1.1-9.4c0.8-2.3,1.9-4.3,3.2-5.9
	c0.7-0.9,1.4-1.4,1.8-1.5s1,0.3,1.8,1.1c0.6,0.6,0.9,1.1,1,1.4c0,0.3-0.1,0.5-0.4,0.7C114.3,22.9,113.2,24.6,112.3,26.9L112.3,26.9z
	 M111.2,32.1c0,0.1,0,0.3,0,0.6s-0.1,0.6-0.1,0.9c-0.1,0.7-0.1,1.3,0,1.8c0,0.3,0.2,0.4,0.4,0.4c0.3,0,0.6-0.6,1.1-1.8
	s0.7-2,0.6-2.5c0-0.3-0.2-0.4-0.5-0.4c-0.2,0-0.5,0.2-0.8,0.4l-0.4,0.3L111.2,32.1z"/>
</svg>
