<?xml version="1.0" encoding="utf-8"?>
<!-- Generator: Adobe Illustrator 24.0.2, SVG Export Plug-In . SVG Version: 6.00 Build 0)  -->
<svg version="1.1" id="Layer_1" xmlns="http://www.w3.org/2000/svg" xmlns:xlink="http://www.w3.org/1999/xlink" x="0px" y="0px"
	 width="700px" height="700px" viewBox="0 0 700 700" style="enable-background:new 0 0 700 700;" xml:space="preserve">
<style type="text/css">
	.st0{fill:#F7F7F7;}
</style>
<g>
	<g>
		<path class="st0" d="M494.8,286.8c-5.1,1.1-8.2,6.1-7.2,11.2c0.9,4.4,4.9,7.4,9.2,7.4c0.7,0,1.3-0.1,2-0.2l57.6-12.2
			c5.1-1.1,8.2-6.1,7.2-11.2c-1.1-5.1-6.1-8.2-11.2-7.2L494.8,286.8L494.8,286.8z"/>
		<path class="st0" d="M183,295.6c-20.2,4.3-33.2,24.3-28.9,44.5c3.8,17.6,19.3,29.7,36.7,29.7c2.5,0,5.2-0.3,7.8-0.8
			c1,4.9,3.9,9.1,8.2,11.8c3,2,6.6,3,10.1,3c1.3,0,2.6-0.1,3.9-0.4l20-4.2c2.2,3.5,5,6.6,8.5,8.9c4.7,3,9.9,4.6,15.3,4.6
			c2,0,3.9-0.3,5.9-0.7l127.4-27.1c2.4,3.7,5.5,6.8,9.1,9.5l18.6,111.5c2.3,13.7,14,23.5,27.7,23.5h150c0,15.5,12.7,28.1,28.1,28.1
			h9.4v18.8c0,15.5,12.7,28.1,28.1,28.1h18.8c5.2,0,9.4-4.2,9.4-9.4V387.5c0-5.2-4.2-9.4-9.4-9.4h-18.8c-15.5,0-28.1,12.7-28.1,28.1
			V425h-9.4c-15.5,0-28.1,12.7-28.1,28.1l-126.3,0l-15.1-90.9c2-3.7,3.5-7.5,4.1-11.7l116.4-24.7c15.2-3.3,24.8-18.2,21.7-33.4
			l-17.5-82.6l9.2-2c7.3-1.6,13.6-5.9,17.7-12.2c4.1-6.4,5.5-13.9,3.9-21.2l-7.8-36.7c-1.6-7.3-5.9-13.6-12.2-17.7
			c-6.3-4.1-13.9-5.5-21.2-3.9l-394.4,83.7c-10.1,2.2-16.6,12.1-14.4,22.2l3.9,18.4c2.2,10.1,12.1,16.6,22.2,14.4l18.3-3.9l3.9,18.4
			l-18.3,3.9C187.3,275.5,180.8,285.4,183,295.6L183,295.6z M597.6,185.5c-1.4,2.1-3.5,3.6-5.9,4l-269.3,57.4l-22.5-28.2
			c-2.3-2.8-5.8-4.1-9.3-3.4l-100.9,21.5l-3.9-18.4l394.3-83.8c0.7-0.2,1.3-0.2,2-0.2c1.8,0,3.6,0.5,5.1,1.5c2.1,1.3,3.5,3.5,4,5.9
			l7.8,36.7C599.5,180.9,599,183.4,597.6,185.5L597.6,185.5z M410.4,344.3c0-10.3,8.4-18.8,18.8-18.8c10.3,0,18.8,8.4,18.8,18.8
			s-8.4,18.8-18.8,18.8C418.8,363.1,410.4,354.6,410.4,344.3z M659.5,406.2c0-5.2,4.2-9.4,9.4-9.4h9.4v168.8h-9.4
			c-5.2,0-9.4-4.2-9.4-9.4V406.2z M622,453.1c0-5.2,4.2-9.4,9.4-9.4h9.4v75h-9.4c-5.2,0-9.4-4.2-9.4-9.4V453.1z M444,482.7
			l-16.9-101.2c0.7,0,1.3,0.2,2,0.2c5.9,0,11.4-1.5,16.4-3.9l14.3,86.2c0.8,4.6,4.7,7.9,9.3,7.9h134.2v18.8h-150
			C448.6,490.6,444.8,487.3,444,482.7L444,482.7z M259.6,372.5c-2.1-1.4-3.5-3.5-4-5.9l-25.3-119.3l58.5-12.5l22.5,28.2
			c1.8,2.2,4.5,3.6,7.3,3.6c0.7,0,1.3-0.1,2-0.2l247.6-52.6l17.5,82.6c1,5-2.2,9.9-7.2,11.1l-114.1,24.2
			c-5.2-14.4-18.9-24.8-35.2-24.8c-20.7,0-37.5,16.8-37.5,37.5c0,0.9,0.3,1.8,0.3,2.7l-125.4,26.6
			C264.2,374.3,261.7,373.8,259.6,372.5L259.6,372.5z M217.1,365.1l-15.6-73.3l18.3-3.9l15.6,73.3L217.1,365.1L217.1,365.1z
			 M172.5,336.3c-2.2-10.1,4.3-20.1,14.4-22.2l7.8,36.7C184.7,352.9,174.7,346.4,172.5,336.3L172.5,336.3z"/>
	</g>
</g>
</svg>
