<?xml version="1.0" encoding="utf-8"?>
<!-- Generator: Adobe Illustrator 24.0.2, SVG Export Plug-In . SVG Version: 6.00 Build 0)  -->
<svg version="1.1" id="Layer_1" xmlns="http://www.w3.org/2000/svg" xmlns:xlink="http://www.w3.org/1999/xlink" x="0px" y="0px"
	 width="700px" height="700px" viewBox="0 0 700 700" style="enable-background:new 0 0 700 700;" xml:space="preserve">
<style type="text/css">
	.st0{fill:#F7F7F7;}
</style>
<symbol  id="f" viewBox="-3.8 -16.6 7.7 33.2">
	<path d="M-3.8-7.3h7.7v23.9h-7.7L-3.8-7.3z M-3.8-16.6h7.7v6.2h-7.7L-3.8-16.6z"/>
</symbol>
<g>
	<g>
		<path class="st0" d="M206.5,286.8l-57.6-12.2c-5.1-1-10,2.2-11.2,7.2c-1,5.1,2.2,10,7.2,11.2l57.6,12.2c0.7,0.1,1.3,0.2,2,0.2
			c4.3,0,8.2-3,9.2-7.4C214.7,292.9,211.5,288,206.5,286.8L206.5,286.8z"/>
		<path class="st0" d="M518.3,295.6c2.2-10.1-4.3-20.1-14.4-22.2l-18.3-3.9l3.9-18.4l18.3,3.9c10.1,2.2,20.1-4.3,22.2-14.4l3.9-18.4
			c2.2-10.1-4.3-20.1-14.4-22.2l-394.4-83.7c-7.3-1.6-14.9-0.2-21.2,3.9c-6.3,4.1-10.6,10.4-12.2,17.7l-7.8,36.7
			c-1.6,7.3-0.2,14.8,3.9,21.2c4.1,6.3,10.4,10.6,17.7,12.2l9.2,2l-17.5,82.6c-3.2,15.2,6.5,30.1,21.7,33.4l116.4,24.7
			c0.7,4.2,2.2,8.1,4.1,11.7l-15.1,90.9l-126.3,0c0-15.5-12.7-28.1-28.1-28.1h-9.4v-18.8c0-15.5-12.7-28.1-28.1-28.1H13.6
			c-5.2,0-9.4,4.2-9.4,9.4V575c0,5.2,4.2,9.4,9.4,9.4h18.8c15.5,0,28.1-12.7,28.1-28.1v-18.8h9.4c15.5,0,28.1-12.7,28.1-28.1h150
			c13.8,0,25.4-9.8,27.7-23.5l18.6-111.5c3.6-2.6,6.7-5.8,9.1-9.5L430.8,392c2,0.4,3.9,0.7,5.9,0.7c5.3,0,10.6-1.6,15.3-4.6
			c3.6-2.3,6.4-5.4,8.5-8.9l20,4.2c1.3,0.3,2.6,0.4,3.9,0.4c3.6,0,7.1-1,10.1-3c4.2-2.7,7.1-6.9,8.2-11.8c2.6,0.6,5.2,0.8,7.8,0.8
			c17.3,0,32.9-12.1,36.7-29.7C551.5,319.9,538.5,299.9,518.3,295.6L518.3,295.6z M103.6,185.5c-1.4-2.1-1.9-4.6-1.3-7l7.8-36.7
			c0.6-2.4,2-4.6,4-5.9c1.5-1,3.3-1.5,5.1-1.5c0.7,0,1.3,0,2,0.2l394.3,83.8l-3.9,18.4l-100.9-21.5c-3.5-0.7-7,0.6-9.3,3.4
			l-22.5,28.2l-269.3-57.4C107.1,189.1,105,187.6,103.6,185.5L103.6,185.5z M272.1,363.1c-10.3,0-18.8-8.4-18.8-18.8
			s8.4-18.8,18.8-18.8c10.3,0,18.8,8.4,18.8,18.8S282.4,363.1,272.1,363.1z M41.8,556.2c0,5.2-4.2,9.4-9.4,9.4H23V396.8h9.4
			c5.2,0,9.4,4.2,9.4,9.4V556.2z M79.3,509.3c0,5.2-4.2,9.4-9.4,9.4h-9.4v-75h9.4c5.2,0,9.4,4.2,9.4,9.4V509.3z M257.2,482.8
			c-0.7,4.5-4.6,7.8-9.2,7.8H98v-18.8h134.2c4.6,0,8.5-3.3,9.3-7.9l14.3-86.2c5,2.4,10.5,3.9,16.4,3.9c0.7,0,1.3-0.2,2-0.2
			L257.2,482.8L257.2,482.8z M441.6,372.4c-2.1,1.3-4.6,1.9-7,1.3l-125.4-26.6c0-0.9,0.3-1.8,0.3-2.7c0-20.7-16.8-37.5-37.5-37.5
			c-16.2,0-29.9,10.4-35.2,24.8l-114.1-24.2c-5.1-1.1-8.2-6.1-7.2-11.1l17.5-82.6l247.6,52.6c0.7,0.1,1.3,0.2,2,0.2
			c2.8,0,5.5-1.3,7.3-3.6l22.5-28.2l58.5,12.5l-25.3,119.3C445.1,369.1,443.7,371.1,441.6,372.4L441.6,372.4z M484.3,365.1
			l-18.4-3.9l15.6-73.3l18.3,3.9L484.3,365.1L484.3,365.1z M528.7,336.3c-2.2,10.1-12.2,16.6-22.2,14.4l7.8-36.7
			C524.4,316.2,530.9,326.1,528.7,336.3L528.7,336.3z"/>
	</g>
	<g>
		<defs>
			<rect id="SVGID_1_" x="682.7" y="691.2" width="700" height="700"/>
		</defs>
		<clipPath id="SVGID_2_">
			<use xlink:href="#SVGID_1_"  style="overflow:visible;"/>
		</clipPath>
		<g style="clip-path:url(#SVGID_2_);">
			
				<use xlink:href="#f"  width="7.7" height="33.2" x="-3.8" y="-16.6" transform="matrix(1 0 0 1 690.1914 674.6328)" style="overflow:visible;"/>
		</g>
	</g>
</g>
</svg>
